<svg width="152" height="151" viewBox="0 0 152 151" fill="none" xmlns="http://www.w3.org/2000/svg">
<path d="M32.2171 109.219C32.2228 110.222 32.562 111.195 33.1812 111.983C36.375 116.239 39.2599 117.392 38.2355 122.529C38.0924 123.282 37.889 123.983 37.7082 124.706C36.955 127.568 34.2132 126.883 29.1665 127.982C26.4935 128.513 23.7421 128.513 21.0691 127.982C19.8037 127.756 18.5156 127.591 17.2427 127.335C15.9697 127.078 15.3746 126.318 15.6383 124.962C16.5647 120.149 11.6837 122.958 6.53157 111.403C4.15886 106.116 8.93441 99.5324 13.3936 95.6607C16.3388 93.1299 22.4325 89.5143 26.1008 89.0699C27.5134 88.8538 28.9525 88.8793 30.3566 89.1452C30.8657 89.2846 31.3205 89.5752 31.6608 89.9788C32.0011 90.3823 32.2108 90.8796 32.2623 91.4049C32.654 95.8641 32.1644 105.86 32.2171 109.219Z" fill="#FEF0BB"/>
<path d="M132.812 107.042C131.08 107.042 130.929 106.725 130.651 105.475C130.282 103.841 130.877 102.876 132.21 102.093C132.736 101.701 133.239 101.279 133.716 100.828C134.62 100.135 134.673 99.1252 134.763 98.131C134.781 97.9168 134.726 97.703 134.607 97.524C134.488 97.345 134.312 97.2112 134.108 97.1442C131.163 95.7884 129.973 96.7827 128.948 95.0653C121.28 82.3581 122.109 84.6028 121.16 82.6067C121.099 82.5091 121.079 82.3919 121.102 82.2796C121.126 82.1672 121.193 82.0685 121.288 82.0041C121.499 81.8685 121.672 82.0041 121.823 82.1321C121.973 82.2602 122.229 82.5238 122.365 82.2301C122.787 81.3412 123.728 81.3186 124.451 80.9721C125.435 80.3961 126.519 80.0127 127.645 79.8423C132.413 79.4732 136.564 80.5955 139.494 84.7007C142.778 89.3331 144.699 95.2009 141.964 100.187C141.185 101.642 140.299 103.037 139.313 104.36C138.681 105.279 137.736 105.935 136.654 106.206C135.23 106.469 133.852 106.959 132.812 107.042Z" fill="#FEF0BB"/>
<path d="M121.716 138.212C119.954 132.713 116.338 128.058 113.288 123.215C113.104 122.878 112.829 122.6 112.495 122.412C112.161 122.224 111.78 122.134 111.397 122.153C105.243 122.989 98.4112 121.445 82.661 126.311C83.0225 126.446 82.789 126.732 82.661 126.981C81.3428 129.994 79.4672 134.152 79.5049 137.526C79.3484 137.39 79.2204 137.223 79.1283 137.037C79.0351 137.353 78.8455 137.632 78.5859 137.835C79.2799 138.678 79.9165 139.566 80.4916 140.494C82.8493 142.754 82.9849 145.255 86.2163 145.654C94.404 146.648 100.791 145.654 105.341 145.518C106.75 145.466 117.303 145.466 121.784 144.66C123.389 144.366 123.125 143.605 122.786 142.121C122.358 140.839 122 139.534 121.716 138.212Z" fill="#FEF0BB"/>
<path d="M56.7357 114.017C58.3401 111.08 58.6941 110.123 59.6582 110.123C60.4115 110.123 60.7655 110.681 60.9538 111.366C62.0837 115.494 60.9538 120.405 62.2946 123.365C62.5658 123.975 62.7691 123.983 63.1533 123.44C64.1226 121.862 64.8465 120.145 65.3 118.349C65.9553 116.285 65.993 115.23 66.8668 115.298C67.9364 115.381 67.7104 117.076 68.9909 121.361C71.1 115.449 68.8327 110.741 70.9267 109.852C71.7327 109.513 72.3654 110.063 72.9379 110.553C74.0378 111.546 74.9002 112.774 75.4612 114.145C76.1843 115.598 76.4964 117.221 76.3636 118.838C76.2308 120.455 75.6583 122.005 74.708 123.32C72.7119 126.227 76.2145 125.911 74.0602 132.359C73.7739 133.624 73.2802 134.833 72.5989 135.937C72.501 136.072 72.4332 139.703 68.0343 141.963C67.218 142.303 66.3114 142.362 65.4582 142.128C60.4642 141.262 57.0746 137.948 52.751 139.206C51.1391 139.673 50.2201 139.251 49.3238 137.842C48.8438 137.14 48.5445 136.329 48.4525 135.483C48.3605 134.637 48.4787 133.781 48.7965 132.992C49.307 131.911 49.6208 130.748 49.723 129.557C49.723 125.791 45.9568 125.625 47.6215 119.712C48.4575 116.669 49.6297 113.728 51.1165 110.944C51.6176 109.945 52.3672 109.092 53.2934 108.466C53.4571 108.326 53.6654 108.249 53.8809 108.249C54.0963 108.249 54.3047 108.326 54.4684 108.466C54.8601 108.888 55.2217 108.767 55.6585 108.715C58.0538 108.406 56.6453 111.374 56.7432 113.001C56.7507 113.257 56.7357 113.52 56.7357 114.017Z" fill="#FFC7D6"/>
<path d="M65.9242 37.3458C65.9495 36.3399 65.9092 35.3334 65.8037 34.3328C65.8037 34.1897 65.8639 34.0541 65.6832 33.9562C63.9356 33.105 63.318 31.4404 62.7983 29.7606C62.6271 29.1199 62.3053 28.5294 61.8599 28.0381C61.4145 27.5468 60.8581 27.1689 60.2372 26.936C59.5616 26.6578 58.9511 26.2423 58.4445 25.7157C57.1941 24.4503 57.857 22.6199 59.1978 21.7687C59.8606 21.3545 61.1487 22.0249 61.3746 22.8158C61.3863 22.8889 61.4157 22.9581 61.4604 23.0172C61.505 23.0763 61.5635 23.1235 61.6307 23.1547C61.972 23.2838 62.3476 23.2897 62.6927 23.1714C63.0379 23.0532 63.331 22.8181 63.5214 22.5069C63.995 21.6835 64.5556 20.9133 65.1936 20.2095C65.3216 20.0514 65.4497 19.8781 65.6832 19.9158C67.4683 20.1794 68.8844 19.2228 70.2704 18.4093C72.4322 17.0987 74.5036 15.6524 75.9046 13.453C75.9726 13.3456 76.0666 13.2572 76.1778 13.1959C76.2891 13.1347 76.4141 13.1025 76.5411 13.1025C76.6682 13.1025 76.7931 13.1347 76.9044 13.1959C77.0157 13.2572 77.1097 13.3456 77.1776 13.453C78.202 15.0122 79.814 15.788 81.3732 16.6166C82.9324 17.4451 83.0378 17.7916 82.8119 19.4111C82.1942 23.8854 82.5482 25.437 80.9664 30.0017C80.7664 30.5166 80.4556 30.9813 80.056 31.3627C79.6563 31.7441 79.1777 32.0329 78.654 32.2087C77.404 32.7282 76.0604 32.9846 74.707 32.9619C73.584 33.0073 72.4697 33.1791 71.3852 33.4741C70.3533 33.6775 70.8504 34.7697 69.8787 35.086C69.6 35.1764 69.6678 35.3647 69.713 35.5681C69.9512 36.8719 70.0321 38.1996 69.954 39.5226C69.954 39.8013 69.954 40.1328 69.6 40.1629C69.246 40.193 69.2159 39.8541 69.1631 39.5904C69.0128 38.2728 68.975 36.9448 69.0501 35.6208C69.0501 34.7697 68.6057 34.7847 67.7922 34.619C66.3686 34.3328 66.3761 34.3328 66.4967 35.8092C68.2743 58.9864 68.8694 58.9035 68.1764 58.9412C67.8073 58.9412 67.747 58.5495 67.7094 58.2708C67.5211 56.5911 65.6982 39.5452 65.9242 37.3458ZM67.1821 26.0472C67.5059 26.0533 67.8192 25.932 68.0545 25.7094C68.2898 25.4868 68.4282 25.1807 68.44 24.857C68.4189 24.5444 68.2851 24.25 68.0635 24.0284C67.8419 23.8068 67.5475 23.673 67.2348 23.6519C65.6606 23.5991 65.7133 26.0095 67.1821 26.0321V26.0472ZM79.6859 28.3822C80.9514 28.4575 80.9514 26.1225 79.7688 26.2053C79.1059 26.2053 78.9251 26.7401 78.8423 27.2749C78.8148 27.4034 78.8156 27.5363 78.8447 27.6644C78.8738 27.7925 78.9305 27.9127 79.0108 28.0167C79.0911 28.1206 79.1931 28.2059 79.3097 28.2664C79.4263 28.3269 79.5547 28.3613 79.6859 28.3671V28.3822Z" fill="#FFC7D6"/>
<path d="M46.3864 17.3235C44.6122 16.3476 42.7574 15.5261 40.8425 14.868C40.014 14.5365 40.255 15.3124 40.1721 15.7643C40.014 16.7887 39.4867 17.0072 38.6657 16.3594C36.9751 15.034 35.4047 13.562 33.973 11.9605C33.8004 11.7937 33.6986 11.5668 33.6888 11.327C33.679 11.0872 33.7618 10.8528 33.9202 10.6724C34.6735 9.68567 35.3815 8.70646 36.18 7.76491C36.7826 7.01167 37.2797 7.05686 37.9124 7.76491C38.854 8.80438 38.8464 10.4389 39.5771 9.64801C42.7708 6.15298 41.9874 10.1 47.2903 16.2464C47.9079 16.8942 47.4786 17.9035 46.3864 17.3235Z" fill="#FFC7D6"/>
<path d="M39.7425 23.403C39.7491 23.5212 39.7232 23.6389 39.6676 23.7434C39.612 23.8479 39.5288 23.9352 39.4271 23.9957C39.3254 24.0563 39.2091 24.0878 39.0907 24.0869C38.9724 24.086 38.8565 24.0527 38.7558 23.9905C36.3981 22.8908 33.7919 22.4012 31.5322 21.1358C31.0049 20.8495 30.6961 20.842 30.6961 21.5576C30.6797 21.7057 30.6495 21.852 30.6057 21.9945C30.4099 23.0716 30.0106 23.2448 29.0992 22.6347C27.5099 21.5952 25.9205 20.5708 24.3237 19.5389C23.6458 19.102 23.6834 18.9664 24.2408 18.4166C24.873 17.7075 25.4075 16.9171 25.8302 16.0664C26.9299 14.1909 27.2764 14.1683 28.5117 15.961C29.3177 17.1436 29.3177 17.1436 30.3195 16.1794C31.826 14.7332 31.7431 16.4355 36.5036 20.5934C38.3114 22.2204 39.6672 22.8305 39.7425 23.403Z" fill="#FFC7D6"/>
<path d="M39.5164 38.4138C38.947 38.4854 38.3688 38.4102 37.8367 38.1954C37.4601 38.0674 37.2943 38.0824 37.0834 38.5042C36.5637 39.7471 35.6673 40.8016 35.2079 42.0821C34.9894 42.6998 34.4998 42.6245 34.0253 42.391C33.9197 42.3583 33.8225 42.3028 33.7408 42.2284C33.659 42.1539 33.5947 42.0625 33.5523 41.9604C33.5098 41.8583 33.4904 41.7481 33.4954 41.6377C33.5003 41.5272 33.5295 41.4192 33.5809 41.3214C34.8915 38.0448 36.1268 37.7585 35.0196 37.5552C33.6411 37.3442 32.2702 37.058 30.8918 36.8546C30.2371 36.6956 29.6009 36.4684 28.9936 36.1767C28.4739 35.9733 28.5718 35.4762 28.6547 35.0619C29.1648 33.0261 29.8868 31.0494 30.8089 29.1641C31.2157 28.2074 31.5622 28.0417 32.4811 28.5313C33.8596 29.2846 35.2531 30.0378 36.5486 30.9266C37.2357 31.5001 38.062 31.8821 38.9439 32.0339C39.8687 32.1767 40.7125 32.6439 41.3242 33.3521C42.8985 34.9791 41.6782 37.9996 39.5164 38.4138ZM33.7918 36.3876C34.545 36.5759 34.4019 35.7022 36.3001 32.531C36.624 32.0038 36.5185 31.7778 36.0138 31.5142C34.6389 30.8868 33.3055 30.1722 32.0217 29.375C31.7806 29.1942 31.7128 29.277 31.63 29.5407C29.7845 35.2126 29.1141 35.2954 30.5528 35.7097C31.63 35.9884 32.7297 36.1541 33.7918 36.3876ZM39.2904 37.8941C40.0437 38.0372 40.3977 37.4798 40.7216 36.8546C41.1735 35.9884 41.5276 35.077 40.8722 34.1882C40.2929 33.4331 39.4708 32.9011 38.5447 32.6817C38.4831 32.653 38.4158 32.6384 38.3478 32.6389C38.2798 32.6394 38.2127 32.655 38.1515 32.6845C38.0902 32.7141 38.0363 32.7568 37.9936 32.8098C37.9509 32.8627 37.9204 32.9244 37.9045 32.9905C36.4507 36.6889 36.1569 36.7567 36.5034 36.8848C37.3923 37.2162 38.153 37.9092 39.3055 37.9016L39.2904 37.8941Z" fill="#FFC7D6"/>
<path d="M64.0569 44.9301C63.7707 44.9301 63.6953 44.7267 63.6426 44.4932C63.2359 42.7909 62.9421 36.3959 62.4902 33.5938C62.4824 33.4935 62.4824 33.3928 62.4902 33.2925C62.4902 33.0364 62.4902 32.7502 62.7839 32.6824C63.0777 32.6146 63.2886 32.8858 63.3413 33.157C63.8008 35.2359 63.6878 34.2943 64.3507 41.8343C64.4109 42.6553 64.6746 44.8774 64.0569 44.9301Z" fill="#FFC7D6"/>
<path d="M21.8755 30.0538C21.9669 29.1593 22.2464 28.2943 22.6955 27.5155C23.1447 26.7366 23.7534 26.0615 24.4817 25.5343C24.6706 25.41 24.8887 25.3373 25.1144 25.3234C25.3856 25.2782 25.7999 25.7377 25.4308 25.9712C23.8565 26.9504 23.3066 28.5473 22.8396 30.2044C22.7266 30.6262 22.7116 31.3493 22.2672 31.2966C21.8228 31.2439 21.883 30.5283 21.8755 30.0538Z" fill="#FFC7D6"/>
<path d="M71.4989 36.0651C71.4989 34.182 71.4085 33.5643 71.8981 33.5794C72.1843 33.5794 72.1994 33.8581 72.2295 34.0916C72.4166 35.5922 72.4166 37.1103 72.2295 38.611C72.2295 38.7843 72.2295 39.0102 72.0186 39.0479C71.8077 39.0856 71.7173 38.8144 71.6571 38.6411C71.4595 37.7975 71.406 36.9265 71.4989 36.0651Z" fill="#FFC7D6"/>
<path d="M24.3609 29.9707C24.4339 29.4752 24.6131 29.0013 24.8861 28.5815C25.1591 28.1616 25.5195 27.8056 25.9427 27.5377C25.9956 27.4942 26.0566 27.4615 26.1221 27.4416C26.1877 27.4216 26.2565 27.4148 26.3247 27.4214C26.3929 27.428 26.4591 27.4481 26.5196 27.4803C26.58 27.5125 26.6336 27.5564 26.6771 27.6093C26.7206 27.6622 26.7533 27.7232 26.7732 27.7887C26.7932 27.8543 26.8001 27.9231 26.7934 27.9913C26.7868 28.0595 26.7668 28.1257 26.7345 28.1862C26.7023 28.2467 26.6585 28.3002 26.6055 28.3437C25.0991 29.5188 25.7016 31.1382 24.7902 30.9574C24.3985 30.8821 24.3081 30.3021 24.3609 29.9707Z" fill="#FFC7D6"/>
<path d="M112.822 37.0287C113.507 38.151 113.658 36.5843 116.355 36.7048C117.552 36.7575 118.758 36.7424 119.955 36.7048C120.784 36.7034 121.607 36.5738 122.396 36.3206C119.774 34.9573 118.81 35.5674 118.923 34.6936C119.014 33.9404 119.895 34.4375 122.388 34.2793C123.092 34.2888 123.793 34.2053 124.475 34.0308C124.456 33.921 124.407 33.8189 124.332 33.737C124.248 33.7026 124.163 33.6749 124.075 33.6541C122.392 33.2507 120.652 33.1386 118.931 33.3227C118.577 33.3227 118.178 33.3227 118.132 32.8783C118.087 32.4339 118.524 32.3586 118.886 32.3058C121.725 31.8916 122.516 31.9292 123.593 31.5526C123.564 31.4987 123.526 31.4503 123.48 31.4095C123.068 31.2932 122.647 31.2076 122.222 31.1534C119.36 31.1534 119.737 31.1534 119.533 31.1534C117.65 31.3643 116.912 31.8614 116.739 31.1534C116.603 30.6562 117.304 30.5583 117.56 30.4755C118.837 30.1233 120.094 29.7034 121.326 29.2176C120.529 28.971 119.68 28.9476 118.871 29.1498C117.237 29.3277 115.679 29.9302 114.351 30.8973C114.24 31.0199 114.085 31.0934 113.92 31.1019C113.755 31.1104 113.593 31.0531 113.47 30.9425C112.513 30.257 115.134 28.7279 115.511 27.6885C115.141 27.7303 114.784 27.851 114.464 28.0425C112.683 28.9906 111.055 30.2019 109.636 31.6355C109.424 31.856 109.251 32.1107 109.124 32.3887C108.973 32.6599 108.958 32.803 109.244 33.044C110.644 34.1701 111.853 35.5158 112.822 37.0287Z" fill="#FFC7D6"/>
<path d="M50.8973 61.0647C53.5789 61.1551 53.8049 61.3886 53.9103 61.0647C54.0158 60.7408 53.6843 60.6504 53.4734 60.5374C51.6205 59.4904 49.9181 60.1457 50.0387 59.2042C50.1592 58.2626 51.6883 59.4753 54.5581 58.7899C54.6441 58.7786 54.7265 58.7484 54.7994 58.7016C54.8723 58.6547 54.934 58.5922 54.9799 58.5187C54.4686 58.0455 53.8009 57.7773 53.1043 57.7655C51.8404 57.6691 50.5829 57.5006 49.3381 57.2608C49.0142 57.2081 48.6828 57.1553 48.7431 56.7561C48.8033 56.3569 49.1574 56.372 49.4963 56.4096C50.7474 56.4631 51.9919 56.6193 53.2173 56.8766C53.3649 56.8953 53.5142 56.8953 53.6617 56.8766C53.835 56.8766 54.0384 56.8766 54.0986 56.6733C54.1589 56.4699 53.9932 56.4096 53.8877 56.3042C53.5026 55.9617 53.0532 55.6994 52.5656 55.5326C52.0781 55.3657 51.5621 55.2977 51.048 55.3325C49.649 55.2208 48.242 55.2638 46.8524 55.4606C46.5963 55.5057 46.3252 55.4606 46.2047 55.2195C46.0841 54.9785 46.3101 54.7148 46.5361 54.5567C47.5705 53.9432 48.531 53.2128 49.3984 52.3798C50.3776 51.2424 45.9109 52.4928 42.6192 55.3928C41.5948 56.2891 41.2709 57.6525 40.7587 58.8125C40.2952 59.8341 40.0392 60.9376 40.0055 62.0589C39.8044 62.0043 39.6298 61.8791 39.5136 61.7061C39.3974 61.5332 39.3474 61.3242 39.3728 61.1174C39.2598 61.2379 38.9058 61.4036 39.2071 62.2322C39.3502 62.6314 39.6967 62.3979 39.9603 62.3527C42.2033 61.9929 44.4683 61.7865 46.7395 61.735C50.2044 61.5844 50.5433 61.9083 49.1498 61.5015C49.6578 61.1439 50.2808 60.9882 50.8973 61.0647Z" fill="#FFC7D6"/>
<path d="M113.739 6.77907C117.995 7.0879 123.531 8.09724 125.979 11.5697C129.557 16.5637 123.388 20.0662 117.302 20.6688C113.799 21.0229 112.165 20.2169 110.696 20.9626C108.671 21.907 106.407 22.2143 104.203 21.8439C103.254 21.5351 103.329 20.6688 104.203 20.4353C105.148 20.2012 106.068 19.8784 106.952 19.4712C109.348 18.3489 103.646 18.5146 100.927 15.7502C100.633 15.4915 100.398 15.1733 100.237 14.8168C100.076 14.4603 99.9932 14.0737 99.9932 13.6825C99.9932 13.2914 100.076 12.9047 100.237 12.5482C100.398 12.1918 100.633 11.8736 100.927 11.6149C102.38 10.2291 104.114 9.17085 106.011 8.51153C108.497 7.48712 110.99 6.53804 113.739 6.77907Z" fill="#A6EEF8"/>
<path d="M112.474 53.1102C111.58 52.7603 110.722 52.3238 109.913 51.8071C108.241 50.6772 107.947 49.0578 109.16 47.4383C109.68 46.7271 110.35 46.1395 111.124 45.7176C111.897 45.2957 112.754 45.0499 113.634 44.9978C118.297 44.7116 122.914 44.9375 127.298 46.8282C131.2 48.5154 131.252 51.3476 128.97 52.5754C125.829 54.2702 121.099 54.4962 117.551 54.4208C116.489 54.4208 116.097 54.0593 115.178 54.6694C113.762 55.6185 112.165 55.5507 110.546 55.4227C109.883 55.3775 109.672 54.5188 110.41 54.1346C111.035 53.8183 111.668 53.4793 112.474 53.1102Z" fill="#A6EEF8"/>
<path d="M13.4525 138.926C13.4525 137.472 13.4525 137.487 12.2096 137.374C11.5396 137.308 10.8734 137.207 10.2135 137.073C9.93484 137.02 9.64108 136.93 9.68627 136.561C9.73147 136.192 10.0704 136.094 10.3642 136.109C15.2151 136.252 12.9327 137.736 14.4543 131.258C14.5597 130.791 14.5974 130.377 13.912 130.399C13.7613 130.393 13.612 130.367 13.4675 130.324C12.9177 130.211 13.1286 129.518 13.5052 129.571C14.8309 129.865 15.0117 128.968 15.1774 128.019C15.2377 127.688 15.1774 127.085 15.7047 127.198C16.2319 127.311 15.9834 127.876 15.9231 128.23C15.5992 130.053 15.3657 129.609 20.6685 130.49C21.1506 130.565 21.4218 130.422 21.4896 129.91C21.6176 129.157 21.8059 128.403 21.9867 127.65C22.047 127.364 22.1223 126.987 22.5215 127.085C22.9207 127.183 22.8981 127.507 22.8454 127.838C22.7249 128.592 22.6495 129.345 22.4914 130.045C22.3934 130.52 22.5516 130.693 22.9885 130.738L26.6342 131.1C27.3874 131.175 28.1407 131.205 28.9542 131.266C29.3157 131.266 29.489 131.19 29.5191 130.784C29.5794 129.985 29.7149 129.202 29.8053 128.411C29.8053 128.132 29.8505 127.808 30.2271 127.808C30.6038 127.808 30.6866 128.17 30.6866 128.456C30.6339 131.025 30.2648 131.364 31.0934 131.469C34.8596 131.876 35.6806 132.539 35.6128 131.401C35.5526 130.648 36.5242 130.769 36.4414 131.446C36.3585 132.124 36.8255 132.275 37.3528 132.328C37.8527 132.376 38.344 132.49 38.8141 132.667C38.9377 132.703 39.0435 132.783 39.111 132.893C39.1785 133.003 39.2028 133.134 39.1794 133.26C39.156 133.387 39.0863 133.5 38.9841 133.578C38.8818 133.657 38.7541 133.694 38.6258 133.684C38.0834 133.646 37.5336 133.593 36.9837 133.54C36.2305 133.473 36.5845 133.684 36.1024 137.39C36.0572 137.804 36.1702 137.985 36.5694 138.03C36.9686 138.075 37.7671 138.113 37.7445 138.7C37.7219 139.288 36.9912 139.19 36.5242 139.22C36.2154 139.22 36.012 139.288 35.9744 139.664C35.9595 139.785 35.9011 139.895 35.8102 139.976C35.7194 140.056 35.6023 140.1 35.481 140.1C35.3597 140.1 35.2426 140.056 35.1518 139.976C35.0609 139.895 35.0025 139.785 34.9876 139.664C34.9424 139.288 34.7165 139.273 34.4152 139.235C32.9991 139.084 31.5679 139.152 30.1594 138.896C29.6095 138.798 29.7752 139.371 29.5116 140.297C29.4513 140.515 29.3157 140.726 29.0521 140.711C28.7885 140.696 28.683 140.523 28.6001 140.282C28.2838 139.401 28.8638 138.73 28.0352 138.67C25.9939 138.512 23.9602 138.339 21.9189 138.15C21.4218 138.098 21.6101 138.414 21.2259 139.92C21.0828 140.425 20.5254 140.395 20.4049 139.883C20.2513 139.43 20.2125 138.946 20.2919 138.474C20.5254 137.631 19.6667 138.143 15.0192 137.653C14.4392 137.585 14.8234 138.572 14.5522 139.597C14.4769 139.875 14.4317 140.161 14.0852 140.169C13.7387 140.176 13.5956 139.853 13.5353 139.566C13.4849 139.357 13.4571 139.142 13.4525 138.926ZM21.7381 136.162C21.6101 136.606 21.836 136.87 22.3708 136.915L28.2687 137.39C28.5248 137.39 28.7659 137.39 28.8035 137.051C28.9466 135.687 29.1123 134.324 29.2705 132.96C29.3609 132.057 28.7433 132.712 22.8002 131.853C22.5366 131.816 22.2503 131.778 22.2051 132.207C22.0394 133.495 21.8737 134.783 21.7381 136.162ZM18.9436 136.651C18.9436 136.727 18.9059 136.651 20.0735 136.651C20.3748 136.651 20.5028 136.553 20.548 136.23C20.7212 134.874 20.9246 133.525 21.128 132.17C21.1807 131.793 21.0301 131.582 20.6685 131.552C16.601 131.19 15.5691 130.211 15.441 131.145C15.2377 132.697 15.0418 134.256 14.8309 135.808C14.7706 136.275 14.9138 136.471 15.4335 136.478C16.586 136.516 17.7535 136.591 18.921 136.651H18.9436ZM33.2552 137.849C33.8352 137.849 34.2344 137.849 34.6411 137.849C35.0479 137.849 35.078 137.759 35.1157 137.427C35.2437 136.26 35.3944 135.107 35.5526 133.947C35.6203 133.48 35.4622 133.194 34.9801 133.194C29.1952 132.795 30.7243 130.934 29.9936 136.84C29.9183 137.48 30.2422 137.661 30.7469 137.668C31.6206 137.676 32.5095 137.932 33.2326 137.841L33.2552 137.849Z" fill="#A6EEF8"/>
<path d="M62.0135 70.4267C62.446 68.7158 63.2141 67.1079 64.2732 65.6963C64.5218 65.2971 64.8758 64.9883 65.403 65.3121C65.9303 65.636 65.7571 66.0127 65.5537 66.4269C63.5425 70.517 63.294 71.5414 62.4428 71.21C62.149 71.0895 62.0059 70.8635 62.0135 70.4267Z" fill="#A6EEF8"/>
<path d="M37.0669 105.183C37.0669 104.075 37.6017 103.285 38.3549 103.307C38.836 103.382 39.2774 103.619 39.6071 103.977C39.9367 104.335 40.1353 104.795 40.1702 105.281C40.1657 105.7 40.0115 106.105 39.7353 106.421C39.4591 106.737 39.0792 106.945 38.6638 107.006C38.2262 106.937 37.8267 106.717 37.5349 106.384C37.243 106.05 37.0774 105.625 37.0669 105.183Z" fill="#A6EEF8"/>
<path d="M80.0697 117.837C80.1734 117.241 80.4542 116.69 80.8756 116.255C81.5008 115.645 82.1411 115.058 82.8115 114.493C83.1956 114.161 83.6626 113.988 84.0618 114.493C84.4611 114.997 84.1824 115.314 83.8509 115.668C81.5912 118.153 81.4707 118.447 80.9886 118.598C80.8753 118.644 80.7516 118.658 80.6308 118.639C80.51 118.62 80.3964 118.569 80.3023 118.491C80.2081 118.413 80.1367 118.311 80.0958 118.196C80.0548 118.081 80.0458 117.957 80.0697 117.837Z" fill="#A6EEF8"/>
<path d="M71.7682 88.2633C71.7231 88.7379 71.595 89.1823 71.015 89.1521C70.435 89.122 70.307 88.655 70.3371 88.1805C70.4124 86.8548 70.5179 85.5441 70.6158 84.2184C70.6158 83.7062 70.7815 83.2467 71.4293 83.2844C72.3106 83.3296 72.2051 83.9472 71.7682 88.2633Z" fill="#A6EEF8"/>
<path d="M40.9457 64.553C41.6462 64.6735 41.8647 65.1857 43.6046 69.2608C43.9059 70.014 42.7384 70.7673 42.0982 69.4265C41.4579 68.0857 40.9306 66.9408 40.3808 65.6603C40.1473 65.1104 40.4636 64.538 40.9457 64.553Z" fill="#A6EEF8"/>
<path d="M47.0327 85.7411C47.0327 86.2006 46.9122 86.5923 46.4225 86.6676C45.9329 86.7429 45.7145 86.3738 45.6015 85.9671C45.2626 84.7167 44.9236 83.4663 44.6223 82.2009C44.5093 81.7188 44.4039 81.1162 45.0592 80.9354C45.7145 80.7546 45.9932 81.2668 46.1288 81.8167C46.4451 83.1198 46.7314 84.4305 47.0327 85.7411Z" fill="#A6EEF8"/>
<path d="M69.306 98.3199C68.4397 98.2672 67.4906 97.6571 65.9842 96.8135C65.8685 96.7776 65.7632 96.7144 65.6772 96.6291C65.5912 96.5439 65.527 96.4392 65.49 96.3239C65.4531 96.2086 65.4445 96.0861 65.4649 95.9668C65.4854 95.8475 65.5343 95.7348 65.6075 95.6384C65.9766 94.9605 66.3608 94.7872 66.9784 95.1111C67.3701 95.322 69.5018 96.821 69.7504 97.0093C69.9061 97.0953 70.0218 97.239 70.0725 97.4095C70.1233 97.58 70.1049 97.7636 70.0215 97.9207C69.9654 98.0587 69.8639 98.1734 69.7338 98.246C69.6038 98.3185 69.4528 98.3446 69.306 98.3199Z" fill="#A6EEF8"/>
<path d="M53.307 71.6639C53.096 72.4699 53.4425 71.566 51.6875 75.1891C51.454 75.6561 51.1 75.9424 50.6028 75.7314C50.1057 75.5205 50.2036 75.046 50.3392 74.6769C50.7404 73.4417 51.2865 72.2584 51.9662 71.1517C52.1922 70.8128 52.4859 70.5567 52.9002 70.6923C53.3145 70.8278 53.2768 71.2271 53.307 71.6639Z" fill="#A6EEF8"/>
<path d="M77.5455 108.382C76.3478 108.382 75.0748 106.175 74.5325 105.091C74.3216 104.691 74.2538 104.239 74.7283 103.983C75.2029 103.727 75.4816 104.059 75.7829 104.413C78.0426 107.313 78.4268 107.426 78.0878 108.043C78.0406 108.147 77.964 108.234 77.8676 108.294C77.7712 108.355 77.6591 108.385 77.5455 108.382Z" fill="#A6EEF8"/>
<path d="M45.6161 115.562C45.021 117.604 45.36 116.436 44.5841 119.494C44.4862 119.863 44.2753 120.142 43.8309 120.067C43.7406 120.059 43.6527 120.034 43.5726 119.991C43.4925 119.949 43.4218 119.891 43.3648 119.821C43.3078 119.75 43.2656 119.669 43.2408 119.582C43.2161 119.495 43.2093 119.403 43.2208 119.314C43.2931 117.817 43.6834 116.354 44.3657 115.02C44.4361 114.89 44.5505 114.789 44.6884 114.735C44.8264 114.681 44.9789 114.678 45.1189 114.726C45.4503 114.824 45.6085 115.08 45.6161 115.562Z" fill="#A6EEF8"/>
<path d="M75.5573 72.0466C76.3708 72.363 77.1919 72.6567 78.0054 72.9731C78.1781 73.03 78.3223 73.1511 78.4082 73.3114C78.494 73.4717 78.5149 73.6589 78.4665 73.8342C78.418 74.0095 78.304 74.1594 78.1481 74.2529C77.9921 74.3464 77.8062 74.3763 77.6287 74.3365C76.3278 74.0366 75.0645 73.5919 73.8625 73.0108C73.7075 72.9514 73.5816 72.8342 73.5114 72.6839C73.4411 72.5335 73.432 72.3618 73.4859 72.2048C73.7119 71.4064 74.7664 71.7378 75.5573 72.0466Z" fill="#A6EEF8"/>
<path d="M101.039 80.8898C100.932 80.9583 100.804 80.9875 100.678 80.9724C100.551 80.9573 100.434 80.8988 100.346 80.8069C97.9885 78.4342 96.7005 77.4701 97.5818 76.6792C97.9659 76.3327 98.335 76.6265 98.6363 76.8976C99.553 77.8156 100.418 78.7838 101.227 79.7976C101.291 79.8801 101.337 79.975 101.362 80.0761C101.387 80.1772 101.391 80.2824 101.373 80.385C101.355 80.4876 101.316 80.5855 101.259 80.6724C101.201 80.7593 101.127 80.8333 101.039 80.8898Z" fill="#A6EEF8"/>
<path d="M88.3089 71.9336C88.3089 71.2557 88.2261 70.6155 88.8965 70.5251C89.0693 70.505 89.2433 70.5515 89.3832 70.655C89.5231 70.7585 89.6183 70.9113 89.6497 71.0825C89.9424 72.292 90.1314 73.5242 90.2146 74.7658C90.3201 75.8957 88.9567 76.084 88.7684 74.9692C88.5484 73.9686 88.3949 72.9545 88.3089 71.9336Z" fill="#A6EEF8"/>
<path d="M55.6865 93.9834C55.6865 94.6764 55.8071 95.4221 55.1141 95.4899C54.9505 95.5237 54.7801 95.4923 54.6394 95.4022C54.4986 95.3121 54.3987 95.1706 54.3608 95.0078C54.1244 93.7387 53.9709 92.4554 53.9014 91.1663C53.9014 90.7445 53.9541 90.27 54.5266 90.2398C55.099 90.2097 55.2798 90.624 55.3476 91.0533C55.5418 92.0189 55.6552 92.999 55.6865 93.9834Z" fill="#A6EEF8"/>
<path d="M91.6079 81.6816C91.6079 81.1694 91.6983 80.838 92.0674 80.7777C92.5871 80.6949 92.5419 80.9736 94.1162 85.1691C94.3045 85.6738 94.312 86.1634 93.7471 86.3592C93.1822 86.5551 92.9035 86.0881 92.7453 85.606C92.5419 84.9432 91.7209 82.3746 91.6079 81.6816Z" fill="#A6EEF8"/>
<path d="M62.014 82.781C61.7127 83.4137 61.3888 84.0314 61.0649 84.6491C60.8163 85.1085 60.4397 85.4023 59.9124 85.1839C59.3852 84.9654 59.5358 84.4306 59.6865 84.0766C60.0404 83.0273 60.5023 82.0175 61.0649 81.0636C61.2381 80.7925 61.3888 80.461 61.7729 80.4912C61.9989 80.5364 62.7672 81.2595 62.014 82.781Z" fill="#A6EEF8"/>
<path d="M84.1807 81.4175C83.2768 81.753 82.3961 82.1481 81.5444 82.6001C80.4597 83.0294 79.94 81.9221 80.6932 81.425C81.6373 80.8174 82.5914 80.2349 83.5555 79.6775C84.8813 78.9242 85.2353 81.1463 84.1807 81.4175Z" fill="#A6EEF8"/>
<path d="M50.7906 101.801C51.22 101.801 51.4309 101.914 51.5439 102.162C51.62 102.295 51.6496 102.45 51.6277 102.601C51.6059 102.753 51.5339 102.893 51.4234 102.998C50.482 103.823 49.3862 104.453 48.1995 104.851C47.6948 105.047 47.2881 104.497 47.4462 103.97C47.8681 102.878 50.06 102.117 50.7906 101.801Z" fill="#A6EEF8"/>
<path d="M80.6487 66.7899C80.6487 68.5826 80.8069 69.2831 79.9859 69.2982C79.8887 69.304 79.7914 69.2879 79.7013 69.251C79.6112 69.2141 79.5306 69.1573 79.4654 69.0849C79.4003 69.0125 79.3523 68.9264 79.325 68.8329C79.2978 68.7394 79.2919 68.641 79.308 68.5449C79.3908 65.7128 78.728 64.2439 79.4812 63.9728C80.6261 63.566 80.6337 66.7146 80.6487 66.7899Z" fill="#A6EEF8"/>
<path d="M92.67 62.7141C93.2729 61.8896 93.9623 61.132 94.7264 60.4543C94.7893 60.3836 94.8664 60.327 94.9528 60.2883C95.0391 60.2495 95.1327 60.2295 95.2273 60.2295C95.3219 60.2295 95.4155 60.2495 95.5018 60.2883C95.5881 60.327 95.6653 60.3836 95.7282 60.4543C95.7945 60.5144 95.8474 60.5876 95.8837 60.6693C95.9199 60.7511 95.9386 60.8395 95.9386 60.9289C95.9386 61.0183 95.9199 61.1067 95.8837 61.1884C95.8474 61.2702 95.7945 61.3434 95.7282 61.4034C95.0427 62.2018 94.3272 62.9626 93.6041 63.7309C93.4927 63.8323 93.3535 63.8979 93.2045 63.9194C93.0555 63.9409 92.9034 63.9172 92.768 63.8514C92.4064 63.6782 92.4365 63.0304 92.67 62.7141Z" fill="#A6EEF8"/>
<path d="M56.2817 63.536C56.342 62.1651 58.6093 64.1762 58.5415 65.2232C58.5415 65.6752 58.2477 65.9162 57.7882 65.7881C57.0356 65.2392 56.5018 64.4412 56.2817 63.536Z" fill="#A6EEF8"/>
<path d="M100.587 72.4534C100.165 72.3781 99.4944 72.3705 99.4869 71.7981C99.4793 71.2256 100.534 71.0448 101.182 71.1653C101.498 71.2181 101.829 71.3311 101.829 71.7604C101.829 72.3781 101.197 72.3856 100.587 72.4534Z" fill="#A6EEF8"/>
<path d="M61.562 27.7952C61.0893 27.8874 60.5999 27.8403 60.1535 27.6596C57.8034 26.7256 57.939 25.3999 57.6904 25.1061C57.4626 24.8748 57.3331 24.5645 57.3288 24.2399C57.2083 22.4171 58.3758 21.3776 59.7015 20.5264C60.8239 19.7732 61.0649 19.6451 61.3135 21.1667C61.3135 21.242 61.3135 21.3173 61.3662 21.3926C61.7526 21.6967 62.0882 22.0603 62.3605 22.4698C62.5762 22.5352 62.8058 22.5395 63.0239 22.4823C63.2419 22.4252 63.4399 22.3087 63.5958 22.1459C63.1794 22.1136 62.7925 21.9188 62.5187 21.6036C62.4471 21.5417 62.398 21.458 62.379 21.3654C62.3599 21.2727 62.3719 21.1764 62.4132 21.0913C62.6392 20.7223 62.9555 21.1742 64.0628 21.4152C64.2834 20.8378 64.4744 20.2495 64.6353 19.6527C64.0153 19.4587 63.415 19.2065 62.8426 18.8994C62.7145 18.8316 62.5262 18.7714 62.594 18.5831C62.8651 17.7771 64.9968 19.954 68.9438 18.4776C69.8628 18.0861 70.7366 17.5961 71.55 17.0163C71.55 16.6096 70.7214 16.6096 70.3825 16.5794C69.9147 16.4761 69.4266 16.5173 68.9827 16.6976C68.5388 16.8778 68.1602 17.1886 67.8968 17.5888C67.7838 17.7545 67.6784 17.875 67.475 17.7545C67.2716 17.634 67.3243 17.4005 67.3846 17.2122C67.598 16.7864 67.9186 16.4236 68.3148 16.1595C68.7111 15.8953 69.1693 15.7389 69.6443 15.7057C71.4898 15.5776 71.9643 16.2857 72.4464 16.3459C74.4651 14.7792 74.7814 14.5457 76.9658 11.141C77.0678 11.0182 77.1355 10.8706 77.162 10.7132C77.1885 10.5557 77.1727 10.3941 77.1165 10.2447C76.9432 9.88313 76.5741 9.93585 76.2502 9.97351C75.497 10.0714 74.3897 11.2013 73.8549 11.3143C73.7495 11.3143 73.6666 11.3519 73.8022 11.2314C74.0658 10.9904 73.8474 11.0506 74.2692 10.4782C74.3964 10.3409 74.4822 10.1705 74.5168 9.98665C74.5515 9.80277 74.5335 9.61285 74.4651 9.43871C74.3144 9.05456 73.9453 9.0169 73.5762 9.03196C70.8796 9.13742 68.1604 10.7268 65.9685 12.2784C65.1085 13.0366 64.1446 13.6681 63.1062 14.154C63.0233 13.235 64.221 11.819 63.4903 11.2616C63.3393 11.167 63.1628 11.1214 62.9849 11.1308C62.8069 11.1402 62.6362 11.2043 62.4961 11.3143C59.4078 13.0693 59.7618 13.3254 59.2873 12.1654C59.0086 11.4725 58.6018 11.126 58.0971 11.141C57.6041 11.3391 57.1652 11.6515 56.8166 12.0525L56.312 12.6099C55.6575 13.2393 55.19 14.0376 54.9613 14.9164C54.7326 15.7952 54.7517 16.7202 55.0164 17.5888C55.2817 18.3743 55.3393 19.2151 55.1836 20.0295C55.0278 20.8439 54.664 21.6041 54.1276 22.2363C53.8645 22.6015 53.6351 22.9897 53.4421 23.3963C53.2258 23.7799 53.0913 24.2042 53.0472 24.6424C53.0032 25.0806 53.0504 25.5232 53.186 25.9422C53.3902 26.2708 53.6603 26.5536 53.9792 26.7727C54.2981 26.9918 54.659 27.1424 55.039 27.2152C56.3421 27.5918 57.1481 27.4638 58.1122 28.1492C58.3671 28.2004 58.6085 28.3039 58.8212 28.4533C59.0339 28.6027 59.2132 28.7947 59.3478 29.0171C59.4824 29.2395 59.5692 29.4875 59.6029 29.7452C59.6366 30.003 59.6163 30.2649 59.5434 30.5144C59.8748 31.3279 60.146 32.0209 61.0498 31.6819C61.4178 31.5308 61.7393 31.2852 61.9819 30.97C62.2245 30.6549 62.3796 30.2812 62.4316 29.8869C62.4836 29.4926 62.4305 29.0915 62.2779 28.7242C62.1252 28.3569 61.8783 28.0365 61.562 27.7952Z" fill="#A6EEF8"/>
<path d="M77.9075 12.6847C77.9075 13.6865 78.608 14.1911 79.3086 14.6657C81.9976 16.5036 85.2968 17.8293 85.1462 20.6464C85.1462 21.8516 84.7093 23.4635 83.9786 24.1339C82.9967 25.3279 82.497 26.846 82.5776 28.3897C82.5977 29.4266 82.2357 30.4346 81.5607 31.2219C81.0636 31.8245 80.2576 32.7284 80.8075 33.2406C81.5688 33.1047 82.3471 33.092 83.1124 33.2029C83.2877 33.1937 83.4585 33.144 83.6114 33.0578C83.7643 32.9715 83.8951 32.851 83.9937 32.7058C84.6779 31.9294 85.2718 31.0778 85.7638 30.1674C85.8617 29.9565 85.9747 29.723 86.2534 29.8284C86.5321 29.9339 86.5321 30.2201 86.4643 30.4762C86.3866 30.7528 86.2858 31.0224 86.163 31.2822C85.9295 31.7718 86.6075 33.5419 87.8352 32.5853C90.095 30.8528 92.2718 27.5988 90.095 25.8061C88.7542 24.7064 88.9274 23.1698 88.9425 21.3545C88.9425 19.2906 88.468 16.5563 86.9012 15.208C86.3363 14.7184 85.8843 14.8314 85.6433 15.5168C85.4023 16.2023 85.0859 15.9311 84.8223 15.5997C83.5405 14.1906 81.971 13.0732 80.22 12.3231C79.5345 11.9841 78.6231 12.2327 78.1109 11.4795C78.1109 11.4343 77.8397 11.4795 77.7719 11.5322C77.6698 11.6252 77.5974 11.7463 77.5639 11.8803C77.5304 12.0144 77.5372 12.1553 77.5836 12.2854L77.6288 12.406C77.7117 12.3156 77.9151 12.3909 77.9075 12.6847Z" fill="#A6EEF8"/>
<path d="M120.625 83.6103C120.301 83.6103 120.308 83.6856 119.969 83.8739C119.83 84.0869 119.648 84.269 119.435 84.4087C117.773 85.6997 116.219 87.1229 114.787 88.6645C113.703 90.6456 114.561 91.9035 113.341 93.1162C113.344 93.1714 113.344 93.2267 113.341 93.2819C113.469 94.0351 112.693 94.1331 112.091 94.4344C111.765 94.5533 111.476 94.7546 111.252 95.0187C111.027 95.2827 110.875 95.6004 110.81 95.9408C111.563 97.0406 113.032 97.0255 112.753 98.999C112.752 99.0166 112.752 99.0342 112.753 99.0517C112.904 99.8954 112.618 98.8785 113.092 104.882C113.123 105.268 113.222 105.646 113.386 105.997C114.04 106.698 114.937 107.124 115.894 107.187C117.319 107.453 118.762 107.614 120.21 107.669C121.167 107.669 121.634 107.91 121.935 108.543C122.188 108.903 122.313 109.338 122.289 109.778C122.43 110.615 122.518 111.46 122.553 112.309C122.72 112.401 122.91 112.441 123.099 112.423C123.289 112.406 123.468 112.332 123.615 112.211C128.978 108.927 130.394 109.687 130.259 108.121C129.988 104.588 129.86 104.558 129.965 103.985C129.841 103.892 129.696 103.83 129.543 103.805C129.487 103.793 129.434 103.768 129.388 103.733C129.342 103.698 129.305 103.654 129.278 103.603C129.252 103.552 129.237 103.495 129.234 103.438C129.232 103.38 129.242 103.323 129.264 103.27C129.475 102.712 130.055 103.225 131.208 103.195C133.189 102.306 134.703 98.6751 133.37 97.3193C132.801 97.2077 132.212 97.2516 131.666 97.4465C131.12 97.6414 130.636 97.9799 130.266 98.4265C130.168 98.5471 130.123 98.8032 129.882 98.66C129.408 98.3964 129.882 97.6808 130.296 97.3494C129.626 97.6959 129.332 97.9821 129.204 97.3042C128.79 95.0897 127.766 93.8393 125.235 88.6796C124.542 87.245 123.661 85.9099 122.613 84.71C122.172 84.1619 121.666 83.6688 121.107 83.2412C121.116 83.2961 121.116 83.3521 121.107 83.4069C121.069 83.7534 120.798 83.6103 120.625 83.6103ZM118.922 97.9219C117.085 97.9219 117.228 95.2253 119.035 95.2027C119.386 95.1814 119.732 95.2964 120 95.5238C120.268 95.7512 120.438 96.0733 120.474 96.4229C120.446 96.8186 120.268 97.1886 119.977 97.4584C119.686 97.7282 119.304 97.8777 118.907 97.8767L118.922 97.9219Z" fill="#A6EEF8"/>
<path d="M144.096 122.244C143.584 122.157 143.11 121.92 142.734 121.563C142.357 121.207 142.094 120.746 141.979 120.24C141.829 119.487 138.145 113.325 137.309 111.781C137.068 111.329 136.134 110.44 135.938 110.109C134.131 107.096 135.185 107.217 131.366 108.663C131.346 108.569 131.321 108.476 131.291 108.384C131.133 108 131.246 107.277 130.636 107.397C130.025 107.518 130.417 108.151 130.447 108.542C130.515 109.499 131.02 108.429 123.073 112.745C122.696 112.949 122.538 112.889 122.538 112.301C122.32 108.249 121.785 107.669 120.196 107.661C118.747 107.603 117.305 107.442 115.88 107.179C114.92 107.107 114.025 106.664 113.386 105.944C112.061 104.332 112.46 101.07 112.754 98.9988C112.754 98.9988 112.754 98.9611 112.754 98.9385C113.032 96.9801 111.609 97.0253 110.81 95.9256C110.275 95.1723 111.074 94.8635 113.07 93.3796C113.339 93.1776 113.565 92.9246 113.735 92.6351C113.906 92.3455 114.018 92.0252 114.064 91.6923C114.275 90.3139 114.064 89.99 114.818 88.6794C116.015 86.4197 118.034 84.9132 120.301 83.708C120.746 83.4669 121.092 83.8737 121.107 83.4444C121.122 83.015 120.354 82.9623 119.909 83.1732C117.724 84.0154 115.832 85.4759 114.463 87.3763C113.062 89.5305 113.469 89.8846 113.469 90.9466C113.469 92.9051 112.091 93.5378 110.976 94.3136C109.861 95.0895 109.816 95.8201 110.765 96.7692C110.914 96.9386 111.086 97.0858 111.277 97.2061C111.614 97.3847 111.876 97.6785 112.014 98.0339C112.152 98.3893 112.158 98.7825 112.031 99.1419C111.801 100.348 111.725 101.578 111.805 102.803C111.948 105.755 113.258 107.284 116.128 107.91C117.418 108.229 118.734 108.434 120.06 108.52C120.198 108.508 120.336 108.525 120.467 108.57C120.598 108.615 120.718 108.686 120.82 108.78C120.922 108.873 121.003 108.986 121.059 109.113C121.115 109.239 121.144 109.376 121.145 109.514C121.371 111.661 121.808 112.715 121.544 113.438C121.28 114.162 120.339 114.327 119.729 114.787C118.772 115.352 117.99 116.17 117.469 117.152C114.976 123.178 115.797 123.878 115.209 124.029C115.111 123.901 115.013 123.795 114.93 123.667C113.899 122.071 112.58 121.167 110.562 121.566C109.642 121.681 108.716 121.738 107.79 121.739C107.436 121.739 107.293 121.664 107.232 121.257C107.054 119.963 106.659 118.707 106.065 117.544C105.312 116.037 102.683 116.263 101.093 116.331C100.792 116.331 100.446 116.512 100.287 116.045C99.9787 115.133 99.6246 114.229 99.2782 113.303C100.355 113.408 100.34 113.401 100.611 112.369C101.237 110.056 101.892 107.759 102.502 105.447C102.535 105.294 102.61 105.154 102.717 105.041C102.825 104.928 102.962 104.847 103.112 104.806C107.594 103.051 107.805 98.5619 104.656 97.9593C105.342 95.6544 105.914 93.9671 105.5 92.4606C104.841 89.862 103.727 87.4009 102.208 85.1919C101.817 84.6495 101.538 84.6194 101.101 85.1165C101.101 82.7212 101.485 84.1223 102.201 69.9613C102.238 69.3964 101.922 68.6733 102.291 68.2967C102.66 67.9201 103.429 68.1385 104.024 68.1008C105.01 68.0331 105.319 67.6564 105.056 66.6847C104.513 64.6058 103.933 62.5269 103.391 60.4404C103.372 60.2855 103.321 60.1361 103.243 60.0012C103.164 59.8664 103.059 59.7489 102.934 59.6559C102.808 59.5629 102.665 59.4964 102.513 59.4603C102.361 59.4243 102.204 59.4194 102.05 59.4461C99.1275 59.6118 86.9853 60.1993 83.8894 60.3726C83.5957 60.3726 83.332 60.3726 83.317 59.9884C83.2219 59.1685 83.3413 58.338 83.6635 57.5781C84.6418 55.8115 85.3934 53.9286 85.9006 51.974C86.0061 51.4542 86.2772 51.5069 86.5936 51.6953C87.6215 52.2466 88.7079 52.6811 89.8325 52.9908C93.2974 54.1132 94.8039 54.9869 96.3104 54.8513C96.4987 54.8513 96.6795 54.7911 96.7021 54.5802C96.7247 54.3693 96.4234 54.3768 94.706 53.7064C92.1395 52.5887 89.5055 51.6327 86.8195 50.8441C86.2396 50.701 86.0663 50.4524 86.0663 49.9025C85.9694 48.7878 85.6217 47.7093 85.049 46.748C84.4764 45.7866 83.6937 44.9672 82.7596 44.3512C82.467 44.1125 82.1159 43.9565 81.7427 43.8992C81.5544 43.8992 81.3134 43.8314 81.2305 44.0875C81.1477 44.3436 81.351 44.4265 81.5393 44.5244C82.6027 45.1 83.4837 45.9616 84.0827 47.0119C84.6818 48.0622 84.9749 49.2592 84.9289 50.4675C84.9289 56.2674 81.803 57.0885 82.3905 60.011C82.4432 60.2596 82.3905 60.463 82.0741 60.4856L79.2043 60.6438C80.1986 59.0544 78.1949 58.5723 75.6113 56.0264C75.4572 55.9218 75.3473 55.7639 75.3028 55.5831C75.2582 55.4022 75.2823 55.2113 75.3703 55.0472C75.8976 53.6763 76.3796 52.2828 76.8768 50.9119C77.63 48.9158 77.63 48.8405 75.9352 47.5675C74.8656 46.7691 74.3685 46.6335 74.6472 46.1363C74.7828 45.8953 74.9485 46.1363 75.0916 46.1363C75.3703 46.2493 75.6264 46.4075 75.9126 46.5054C76.8466 46.8519 77.1329 46.6636 77.2007 45.6618C77.3664 43.4699 77.8861 35.7793 78.0669 34.1372C78.0669 33.9564 78.1949 33.7003 77.8861 33.6627C77.5773 33.625 77.5924 33.8133 77.5396 33.9866C77.035 35.493 76.9672 37.2255 76.357 45.2325C76.357 45.4283 76.357 45.6392 76.0407 45.6317C75.672 45.5849 75.3255 45.4296 75.0452 45.1855C74.7649 44.9414 74.5634 44.6195 74.4664 44.2608C74.0822 42.7543 74.1048 41.1273 73.3441 39.6961C73.1256 39.3195 73.8939 38.8224 73.7885 34.9582C73.7433 33.6476 74.4438 34.8754 78.8804 32.917C79.6418 32.6069 80.3221 32.1266 80.8691 31.513C81.4162 30.8993 81.8155 30.1686 82.0365 29.3767C82.8871 26.235 83.5064 23.0352 83.8894 19.803C83.9346 19.434 83.9422 19.0498 83.543 19.0498C83.1437 19.0498 83.0759 19.3285 83.0232 19.6449C83.0232 19.8407 82.9253 20.0365 82.8876 20.2249C80.9819 28.6913 81.5845 31.064 78.0744 32.2767C75.9352 33.03 73.7885 33.4668 71.5288 32.8341C71.0693 32.6985 70.6098 32.691 70.542 33.3689C70.505 33.4628 70.4355 33.5403 70.3462 33.5873C68.4103 34.9131 66.8285 35.2746 65.2392 33.0676C64.4117 32.0678 63.8035 30.9053 63.454 29.6554C63.3227 29.1743 63.1435 28.7074 62.9192 28.2619C62.8138 28.0058 62.6631 27.7045 62.3166 27.8477C61.9701 27.9908 62.166 28.3523 62.4522 29.3541C62.6149 29.9538 62.8085 30.5446 63.0322 31.1243C63.6574 32.7136 61.6236 31.3352 58.5128 33.7907C56.7652 35.1692 54.9273 36.4346 53.1422 37.7754C51.357 39.1161 50.1292 38.9128 47.9749 40.472C46.83 41.293 45.9487 42.2647 45.9487 43.7862C45.9487 44.6826 43.9752 45.0215 43.222 51.5069C43.0713 52.7875 42.9809 54.0454 41.9113 55.017C41.1991 55.7604 40.6297 56.6286 40.2316 57.5781C39.6423 58.659 39.3195 59.8649 39.2901 61.0957C39.2579 61.3089 39.3043 61.5266 39.4207 61.7082C39.5371 61.8897 39.7156 62.0227 39.9228 62.0824C39.9493 60.9602 40.2056 59.8553 40.676 58.836C41.1807 57.6383 41.5121 56.3126 42.5365 55.4087C44.3972 53.7391 46.644 52.5587 49.0747 51.974C49.1358 51.9582 49.1995 51.9554 49.2618 51.9658C49.3241 51.9762 49.3835 51.9995 49.4362 52.0342C49.5567 52.1698 49.4362 52.3129 49.3157 52.4108C48.4468 53.2421 47.4866 53.9724 46.4534 54.5877C46.2199 54.7459 45.9638 54.9267 46.1144 55.2505C46.2651 55.5744 46.5136 55.5368 46.7697 55.4916C48.1596 55.2987 49.5662 55.2558 50.9653 55.3635C51.4795 55.3283 51.9955 55.3962 52.4831 55.563C52.9708 55.7299 53.4202 55.9924 53.805 56.3352C53.9105 56.4407 54.0611 56.5311 54.0159 56.7043C53.9707 56.8776 53.7523 56.9077 53.579 56.9077C53.4318 56.9307 53.2819 56.9307 53.1346 56.9077C51.909 56.6512 50.6646 56.495 49.4136 56.4407C49.1048 56.4407 48.7508 56.4407 48.6604 56.7872C48.57 57.1337 48.9315 57.2391 49.2479 57.2918C50.4928 57.5307 51.7502 57.6992 53.0141 57.7965C53.7128 57.8086 54.3829 58.0766 54.8972 58.5497C54.8505 58.6242 54.7876 58.6872 54.7133 58.7341C54.639 58.781 54.5551 58.8107 54.4679 58.8209C51.6432 59.5064 50.1141 58.2183 49.9484 59.2352C49.7827 60.2521 51.5378 59.5139 53.3832 60.5609C53.5941 60.6814 53.9029 60.817 53.8201 61.0957C53.7372 61.3744 53.4284 61.2388 53.225 61.2313C50.8824 61.1258 49.9183 60.8245 48.9767 61.6004C49.2554 61.6757 50.2874 61.9695 50.5887 62.0448C50.4885 62.1033 50.3824 62.1513 50.2723 62.1879C47.4703 62.3762 44.6607 62.6398 41.8511 62.7227C39.7495 62.7905 37.6405 62.8282 35.5389 62.9261C34.5371 62.9713 34.3111 63.3856 34.7857 64.2668C35.0267 64.7565 36.0135 68.5528 36.1114 68.952C36.1486 69.191 36.275 69.4069 36.4651 69.5565C36.6551 69.706 36.8948 69.778 37.1358 69.758C37.6329 69.758 38.1376 69.758 38.6423 69.758C39.4558 69.758 38.8381 70.0668 40.0734 78.5935C40.6836 82.8041 40.1412 80.9662 42.19 95.5791C41.5062 95.2217 40.7229 95.1018 39.9634 95.2381C39.204 95.3745 38.5114 95.7594 37.9945 96.3323C37.7083 96.6261 37.6103 96.3775 37.4823 96.2193C36.596 95.1569 35.4947 94.2943 34.2509 93.6884C33.234 93.1687 33.9496 92.9352 32.5561 89.9749C32.1719 89.169 31.9761 88.1973 30.6579 88.3329C30.1081 88.4007 29.5281 87.9789 28.9179 87.9713C25.7332 87.9839 22.5814 88.6158 19.638 89.8318C17.6043 90.6378 15.9547 92.0539 14.1845 93.244C11.2587 95.177 8.81357 97.7534 7.03629 100.776C6.28188 101.999 5.65588 103.297 5.16826 104.648C2.84074 111.631 6.52409 115.246 8.1059 117.574C11.5783 122.673 15.7061 122.214 14.6892 124.451C14.0942 125.769 14.4331 126.281 15.7965 126.823C18.2295 127.788 20.8131 127.705 23.3289 127.848C26.2967 128.021 29.287 128.021 32.2473 128.398C34.1304 128.631 34.4392 129.151 38.8456 134.07C39.0792 134.333 39.2901 134.74 39.8475 134.657C38.4431 132.44 36.6907 130.464 34.6576 128.805C37.8664 128.805 38.1301 128.051 38.8908 126.01C39.4875 124.307 39.8671 122.535 40.0207 120.737C40.081 120.15 40.3747 119.065 39.7495 118.982C39.6479 118.964 39.5432 118.986 39.4576 119.044C39.3719 119.102 39.3119 119.19 39.2901 119.291C39.149 119.744 39.0457 120.207 38.9812 120.677C38.7957 122.695 38.3554 124.682 37.6706 126.59C36.5784 129.513 34.394 127.735 29.1364 127.343C27.6299 127.245 25.9577 126.424 24.4663 127.208C24.052 127.419 23.231 127.396 21.5286 126.959C20.7754 126.756 19.9544 126.266 19.2689 126.432C18.1391 126.71 17.2578 126.266 16.3012 125.957C15.3445 125.648 15.2843 125.581 15.7438 124.586C15.9795 124.237 16.0697 123.809 15.9952 123.394C15.9206 122.979 15.6872 122.61 15.3445 122.364C13.4464 120.504 9.80069 120.27 6.35838 113.054C4.32463 108.783 5.09293 102.983 10.4635 98.3585C12.5199 96.5884 14.5988 94.871 16.6401 93.0858C20.7603 89.4929 25.5735 88.3856 30.899 89.0183C31.083 89.0216 31.2618 89.0801 31.4122 89.1862C31.5627 89.2923 31.6777 89.4411 31.7426 89.6134C32.4294 91.1774 32.8787 92.8353 33.0758 94.5321C33.9722 102.667 32.1267 108.678 29.8972 116.037C29.8444 116.21 29.6787 116.384 29.9649 116.662C31.1099 114.809 31.5769 112.723 32.3301 110.636C33.3855 113.158 35.1924 115.294 37.5049 116.753C37.7986 116.933 38.2581 117.197 38.4615 116.911C38.6649 116.625 38.1527 116.376 37.9116 116.158C35.7915 114.626 34.0688 112.609 32.8875 110.275C32.7792 110.069 32.7127 109.844 32.692 109.613C32.6713 109.381 32.6968 109.148 32.767 108.926C34.0316 104.407 34.4554 99.6941 34.0174 95.0217C34.0174 94.8183 33.8743 94.5772 34.1078 94.3663C36.2489 95.621 37.8284 97.6479 38.5218 100.031C38.7327 100.633 39.275 101.326 39.1545 101.801C39.034 102.275 38.1903 102.675 37.648 103.081C36.2128 104.094 34.9251 105.3 33.8215 106.667C33.6675 106.801 33.5547 106.977 33.4961 107.173C33.4374 107.368 33.4354 107.577 33.4901 107.774C35.2156 105.903 37.1402 104.226 39.2298 102.773C39.4407 102.622 39.629 102.343 39.9228 102.667C40.5016 103.245 41.205 103.683 41.9791 103.948C42.6215 104.155 43.1757 104.572 43.5526 105.132C43.9296 105.692 44.1076 106.363 44.0581 107.036C44.0581 108.949 44.1183 109.966 41.4971 109.183C41.2033 109.122 40.9472 109.017 40.8493 109.303C40.7514 109.589 41.015 109.687 41.2108 109.793C41.5687 109.993 41.963 110.119 42.3705 110.164C42.778 110.21 43.1905 110.173 43.5835 110.056C43.5296 110.553 43.384 111.036 43.1542 111.48C42.4009 113.393 40.9773 114.877 39.7043 116.459C39.4069 116.862 38.9948 117.167 38.5218 117.333C38.2949 117.408 38.0892 117.536 37.9215 117.706C37.7539 117.876 37.6291 118.084 37.5576 118.312C37.0792 119.575 36.6668 120.862 36.3223 122.168C36.2545 122.462 36.0059 122.922 36.3223 123.042C36.6387 123.163 36.8496 122.658 36.9851 122.372C37.4879 121.225 37.8935 120.038 38.1979 118.824C38.2958 118.463 38.3786 118.071 38.7628 117.89C39.4769 117.48 40.1309 116.973 40.7062 116.384C42.8811 114.642 44.298 112.126 44.6607 109.363C45.09 106.139 44.2539 104.03 41.5121 103.021C41.1599 102.876 40.8475 102.649 40.6007 102.358C40.3973 102.147 40.322 101.967 40.6007 101.763C41.4293 101.191 42.2578 100.596 43.1467 99.9705C43.3275 100.832 43.3275 101.722 43.1467 102.584C43.1467 102.705 42.9583 102.878 43.1467 102.968C43.5007 103.111 43.6212 102.531 43.6815 102.14C43.8898 100.545 43.7142 98.9229 43.1693 97.4094C43.1165 97.2287 42.9056 97.0253 43.0864 96.8596C43.689 96.3022 43.2747 95.9331 42.9809 92.8523C42.7098 90.1331 41.9942 87.4817 42.0319 84.7173C41.9752 83.5665 41.8215 82.4226 41.5724 81.2976C41.03 77.7122 40.6007 74.1042 39.9077 70.5413C39.7872 69.9011 39.8475 69.6826 40.5781 69.6676C47.2669 69.532 87.1359 68.5377 100.385 68.2063C101.327 68.2063 101.327 68.2063 101.199 69.0876C100.913 71.2193 100.98 72.8538 100.875 74.541C100.807 75.7538 99.9636 84.8981 99.8506 86.1033C99.5823 85.8195 99.3905 85.4722 99.2932 85.0939C98.8262 84.1298 98.1634 84.0469 97.508 84.8605C97.2595 85.1617 96.9883 85.4555 96.6569 85.8246C96.22 84.1675 96.1974 83.5649 95.5948 83.5649C94.9922 83.5649 94.9545 84.2428 94.5779 85.6212C94.141 84.868 93.8247 84.2202 93.3577 83.6101C92.2354 82.0057 91.7683 83.8285 90.3447 86.4799C90.2167 86.7134 90.1489 87.0448 89.7873 87.1277C89.6291 85.9903 89.6367 85.1316 89.0341 85.0111C88.6349 84.9282 88.4315 85.1994 88.2808 85.4932C88.0097 86.0129 87.7536 86.5477 87.4749 87.1126C87.2941 86.8565 87.3995 86.623 87.3619 86.4197C87.2941 86.0807 87.3016 85.6664 86.925 85.5158C86.5484 85.3651 86.345 85.7342 86.1266 85.9451C84.0476 87.9261 84.01 89.5908 83.2868 88.5513C82.963 88.0768 82.5939 87.6248 82.2398 87.1804C82.0515 86.9319 81.8256 86.7134 81.4866 86.8264C81.3481 86.885 81.2303 86.9838 81.1484 87.11C81.0665 87.2362 81.0243 87.384 81.0271 87.5344C80.9141 88.7848 80.7635 90.0201 80.6806 91.3007C80.6477 92.4079 80.5293 93.5109 80.3266 94.5998C79.9425 96.2494 79.4227 97.9442 79.6713 99.6993C79.724 100.114 79.611 100.189 79.1892 100.151C78.9521 100.11 78.7093 100.117 78.4748 100.171C78.2403 100.225 78.0188 100.325 77.8232 100.465C77.6277 100.605 77.462 100.783 77.3357 100.987C77.2094 101.192 77.1251 101.42 77.0877 101.658C76.9399 102.125 76.8977 102.62 76.9641 103.106C77.0305 103.592 77.2039 104.057 77.4718 104.467C78.2051 105.763 79.3583 106.77 80.7409 107.322C81.3134 107.541 81.0121 107.322 85.2603 114.297C85.3357 114.44 85.4185 114.689 85.6294 114.583C86.3827 114.229 86.5258 114.824 86.7292 115.276C87.2934 116.579 87.953 117.837 88.7027 119.043C88.1699 119.281 87.6242 119.49 87.0681 119.668C86.8159 119.699 86.5726 119.781 86.3531 119.909C86.1336 120.037 85.9426 120.208 85.7917 120.413C85.6408 120.617 85.5332 120.85 85.4756 121.098C85.4179 121.345 85.4113 121.602 85.4562 121.852C85.4562 122.304 85.4562 122.764 85.539 123.215C85.539 123.524 85.539 124.172 85.8177 124.119C86.0964 124.067 86.0136 123.509 86.0512 123.2C86.1069 122.539 86.1069 121.874 86.0512 121.212C86.4503 121.541 86.8324 121.891 87.1962 122.259C87.3995 122.485 87.9042 122.598 87.7008 123.012C87.4975 123.426 87.4673 124.202 86.6237 124.36C85.3592 124.553 84.1351 124.952 83.0006 125.543C82.8198 125.641 82.5035 125.754 82.6466 126.025C82.7897 126.296 83.0232 126.078 83.1965 126.025C90.0938 124.008 97.2179 122.869 104.4 122.635C106.864 122.648 109.326 122.518 111.774 122.244C112.297 122.284 112.79 122.505 113.168 122.869C113.371 123.057 113.544 123.276 113.68 123.517C117.266 129.098 118.456 131.275 120.181 132.556C120.776 132.993 120.399 132.895 121.687 138.295C121.975 139.628 122.337 140.943 122.772 142.235C123.185 143.011 123.816 143.65 124.587 144.073C124.745 143.794 124.587 143.651 124.459 143.485C123.585 141.979 123.706 142.129 121.363 133.497C121.197 132.895 121.228 133.279 118.704 129.287C118.561 129.038 118.764 128.684 118.365 124.345C118.282 124.004 118.3 123.645 118.418 123.313C119.021 122.387 119.036 121.272 119.45 120.3C119.57 119.992 119.57 119.623 119.879 119.329C120.633 122.447 120.452 122.485 121.491 121.86C123.962 120.353 126.417 118.884 128.888 117.4C129.543 117.009 130.274 116.143 130.854 116.376C131.434 116.61 131.607 117.649 131.878 118.365C135.524 127.343 135.147 127.034 135.773 127.132C134.66 123.47 133.236 119.909 131.517 116.489C131.306 116.06 131.336 115.886 131.75 115.63C133.392 114.606 135.2 113.823 136.624 112.414C137.995 115.352 139.697 118.093 141.106 120.993C141.285 121.394 141.553 121.749 141.89 122.03C142.227 122.312 142.623 122.514 143.049 122.62C145.166 123.14 145.618 124.88 146.906 128.556C147.019 128.88 147.019 129.309 147.508 129.392V127.132C146.717 124.971 146.152 122.779 144.096 122.244ZM104.174 99.2624C104.226 99.0928 104.336 98.947 104.485 98.8505C104.634 98.7541 104.812 98.7132 104.988 98.7351C105.189 98.7261 105.387 98.7873 105.547 98.9082C105.708 99.0292 105.822 99.2023 105.869 99.398C106.021 99.824 106.064 100.281 105.996 100.728C105.927 101.175 105.749 101.598 105.477 101.959C104.819 102.832 103.947 103.522 102.946 103.963C103.254 102.374 103.654 100.804 104.144 99.2624H104.174ZM41.6552 100.302C41.4681 100.43 41.2745 100.548 41.0752 100.656C40.7288 100.822 40.3973 101.364 40.0734 101.138C39.7495 100.912 39.6667 100.257 39.501 99.7897C39.4106 99.5411 39.6441 99.4432 39.7797 99.3076C40.2272 98.7976 40.5632 98.1999 40.7664 97.5525C40.8568 97.319 40.9698 96.9952 40.7212 96.8671C40.1638 96.5959 39.968 98.0798 39.2147 98.9234C38.3937 97.3115 37.9945 96.9123 38.6197 96.3775C38.8983 96.0969 39.2422 95.89 39.6206 95.7751C39.9989 95.6603 40.3999 95.6413 40.7874 95.7197C41.175 95.7981 41.537 95.9715 41.841 96.2243C42.1449 96.4772 42.3813 96.8016 42.529 97.1684C43.3726 99.0741 43.3274 99.2172 41.6176 100.302H41.6552ZM78.2175 60.5006L78.1497 60.7115C74.1425 60.9074 74.0898 61.0204 74.0371 60.6513C74.0371 60.478 73.9617 60.237 74.1576 60.1843C75.2272 59.898 74.7752 58.9188 75.0539 58.271C75.087 58.0846 75.1022 57.8954 75.0991 57.7061C75.9831 58.784 77.0212 59.7256 78.1799 60.5006H78.2175ZM74.1651 47.2662C74.376 47.0854 74.4965 47.2662 74.7376 47.4394C75.4337 47.8376 76.0371 48.3794 76.5077 49.0288C76.9295 49.782 76.0783 50.4147 75.8599 51.1228C75.5887 51.9966 75.2196 52.8477 74.8807 53.7064C74.8807 53.7064 74.8129 53.7667 74.6924 53.8797C74.3835 51.8308 74.3308 49.8348 73.8487 47.8537C73.781 47.5976 73.9693 47.4545 74.1651 47.2662ZM73.7132 45.4057C74.0597 47.4168 72.0485 45.707 69.1937 47.1457C68.7411 45.4168 68.4337 43.6531 68.2748 41.873C68.2748 41.6169 68.2748 41.4211 68.5535 41.2704C69.6002 40.7263 70.7634 40.4445 71.943 40.4494C72.1548 40.4216 72.3689 40.4789 72.5384 40.6089C72.7078 40.7388 72.8188 40.9307 72.8469 41.1424C73.1708 42.566 73.4872 43.9821 73.7132 45.4057ZM72.6285 60.6739C72.6285 61.1108 72.2745 61.0053 72.0259 61.0204L68.5836 61.2087C69.3368 59.8905 70.0901 58.7305 70.7906 57.563L70.9714 57.6082C71.0542 58.0451 71.1371 58.4669 71.1898 58.8962C71.3932 60.5308 72.6812 59.5064 72.6285 60.6739ZM63.5067 32.6609C64.1319 32.4048 64.034 32.8868 64.5537 33.738C64.8541 34.3147 65.2953 34.8061 65.8364 35.1665C66.3776 35.527 67.001 35.7447 67.6489 35.7996C68.2968 35.8545 68.948 35.7446 69.5421 35.4803C70.1361 35.216 70.6537 34.8058 71.0467 34.2879C71.1898 34.1222 71.3781 33.6702 71.6568 33.9338C71.8075 34.077 71.6568 34.1372 71.5514 34.2125C69.1184 36.1559 67.8605 38.9956 65.9774 37.5343C64.4709 36.4195 63.921 34.7473 63.213 33.1505C63.0774 32.8567 63.2883 32.7513 63.5067 32.6609ZM61.7818 33.1429C62.4748 32.9622 62.2488 33.4066 63.3561 35.9224C63.7788 36.926 64.4758 37.7901 65.3673 38.4156C65.8187 38.8076 66.399 39.019 66.9968 39.0092C67.5946 38.9995 68.1677 38.7693 68.6062 38.3629C72.2519 35.3499 71.6869 34.0167 72.7339 34.1673C73.3215 34.2502 73.1181 34.2427 72.9675 39.0333C72.9675 39.3572 72.8469 39.4852 72.523 39.44C70.7002 39.1689 69.1937 39.8694 67.6872 40.6753C67.4161 40.826 67.4236 41.0896 67.4387 41.3307C67.4932 43.0779 67.6846 44.8182 68.0111 46.5356C68.1844 47.2888 68.4179 48.1249 69.4799 48.1475C69.7662 48.1475 69.7285 48.4337 69.7436 48.607C69.9018 49.895 70.1353 52.8176 70.4516 54.4069C70.5261 54.6797 70.5377 54.9659 70.4855 55.2438C70.4333 55.5217 70.3187 55.7841 70.1503 56.0113C69.6306 56.7646 69.1862 57.5178 68.6438 58.3539C65.7589 49.5335 63.6875 43.6883 61.5333 34.1372C61.5204 33.9873 61.4952 33.8386 61.4579 33.6928C61.36 33.3764 61.5031 33.2183 61.7818 33.1429ZM68.2371 59.0996C68.0563 59.4536 67.8605 59.8001 67.642 60.1918C65.9021 57.2692 62.2413 53.4126 61.1265 52.7046C60.8855 52.5464 60.8252 52.4259 60.9909 52.1773C62.0003 50.6708 63.0171 49.089 64.1922 47.5148C67.401 57.8643 67.5818 58.482 68.2145 58.6778C68.5007 58.7531 68.3049 58.964 68.2371 59.0996ZM57.6917 35.9525C58.7086 35.1993 59.6728 34.3632 60.7047 33.5271C61.2621 35.9827 61.7818 38.3328 62.3543 40.6753C63.6273 45.8426 64.2525 46.1288 63.2205 46.3397C61.8302 46.6613 60.4951 47.1868 59.2585 47.8989C58.7312 48.1852 58.6333 48.0646 58.5655 47.4922C58.1587 44.0423 57.8574 40.5925 57.2473 37.1652C57.1791 36.9423 57.1856 36.7032 57.2658 36.4842C57.346 36.2653 57.4956 36.0786 57.6917 35.9525ZM55.0705 59.544C56.0572 59.1147 56.1777 58.384 55.319 57.7362C54.9876 57.4877 54.5658 57.3446 54.8821 56.7796C55.0253 56.5009 54.7692 56.2072 54.5884 55.9737C53.3003 54.2563 50.5284 54.3994 48.3967 54.3693C48.9089 53.7516 49.5341 53.4804 49.9032 52.9456C50.2723 52.4108 50.6037 52.0719 50.2648 51.522C49.9258 50.9721 49.3609 51.1002 48.8562 51.2207C47.4272 51.4887 46.0542 51.9982 44.7963 52.7272C44.6004 52.8326 44.397 53.0662 44.043 52.9833C43.934 50.2831 44.6628 47.6152 46.1295 45.3454C46.5596 44.7938 46.7977 44.1166 46.8074 43.4171C46.8146 43.0529 46.8996 42.6943 47.0568 42.3656C47.214 42.0369 47.4397 41.7457 47.7188 41.5114C50.3476 38.9354 52.3362 40.1933 55.8538 37.3837C56.946 36.5099 56.3886 36.3291 57.7972 48.3885C57.88 49.1418 58.219 49.2924 58.8818 48.9535C61.1416 47.7935 61.3073 47.5901 63.5218 47.0327C62.2931 48.6389 61.1685 50.322 60.1548 52.0719C59.9665 52.4108 59.8008 52.7724 60.2452 53.0586C62.3317 54.4069 64.7647 57.6986 66.467 59.8378C66.6252 60.0261 66.8285 60.1767 66.9867 60.3651C67.1449 60.5534 67.5517 60.3651 67.401 60.8245C67.3636 60.9819 67.2705 61.1204 67.139 61.2145C67.0075 61.3086 66.8464 61.352 66.6854 61.3367C65.7589 61.3367 58.2642 61.751 55.4395 61.9092C54.965 61.9092 54.6863 61.9092 54.8445 61.2991C55.0027 60.6889 54.5959 60.3199 54.1741 59.9432C54.385 59.6344 54.7692 59.6796 55.0705 59.544ZM37.987 68.5452C37.8712 68.5705 37.7513 68.5703 37.6355 68.5448C37.5198 68.5193 37.4109 68.469 37.3165 68.3975C37.222 68.3259 37.1441 68.2347 37.0882 68.1302C37.0324 68.0257 36.9997 67.9103 36.9927 67.792C36.1867 64.779 35.4335 64.2819 36.4654 64.2292C37.2864 64.2292 100.935 60.8848 101.161 60.8396C101.854 60.704 102.178 60.945 102.336 61.6757C103.293 66.1951 104.091 66.6697 102.826 66.6847C102.736 66.7224 40.4952 68.4323 37.987 68.5452ZM78.7222 100.844C79.4755 100.611 79.7993 100.791 79.9349 101.597C80.2287 103.368 80.6505 105.1 81.125 106.87C78.3832 105.748 76.5981 101.484 78.7222 100.829V100.844ZM105.703 118.591C105.892 119.397 106.396 120.044 106.261 120.85C106.313 119.946 104.686 119.977 105.703 118.576V118.591ZM87.0531 114.297C87.0531 114.003 87.2941 114.056 87.3995 114.033C88.5267 113.818 89.6664 113.675 90.8117 113.604C88.3486 114.229 88.2507 114.162 88.3562 114.516C88.4616 114.87 88.1829 114.357 96.1145 113.695C96.3706 113.695 96.7021 113.649 96.687 113.356C96.6719 113.062 96.333 113.062 96.0844 113.062H94.5779C95.8735 112.896 97.1314 112.55 98.3969 112.949C98.7132 113.047 98.7057 113.182 98.6756 113.469C98.5626 114.463 98.4195 112.715 88.5445 115.322C88.378 115.354 88.2068 115.353 88.0408 115.318C87.8749 115.283 87.7177 115.215 87.5786 115.118C87.4395 115.021 87.3213 114.897 87.231 114.753C87.1407 114.61 87.0802 114.449 87.0531 114.282V114.297ZM88.0398 116.195C99.3384 113.853 93.1769 115.186 98.2161 114.327C98.6756 114.252 98.8639 114.403 98.9693 114.802C99.1275 115.352 99.5568 115.992 99.3911 116.406C99.2254 116.82 98.4044 116.64 97.8847 116.738C95.2106 117.25 92.5517 117.83 89.9304 118.598C88.6951 118.945 89.5312 117.717 88.0247 116.18L88.0398 116.195ZM86.5785 120.519C87.6556 120.157 88.6499 119.826 89.7948 119.457C89.2149 120.361 88.7253 121.121 88.198 121.927L86.5785 120.519ZM89.9756 123.472C89.6593 123.547 89.4107 123.547 89.2902 123.238C89.1697 122.929 88.5369 122.651 88.8533 122.086C89.1697 121.521 89.5312 120.933 89.8626 120.353C90.0058 120.105 90.1413 120.029 90.3598 120.285C91.113 121.144 91.7985 121.988 92.6195 122.929C91.6252 123.125 90.7891 123.276 89.9756 123.479V123.472ZM90.4426 119.261C91.452 119.02 92.3935 118.817 93.32 118.56C93.8172 118.425 93.8774 118.884 94.1335 119.065C94.3896 119.246 94.2465 119.457 94.1335 119.653C93.7268 120.406 93.32 121.25 92.9057 122.063C92.0998 121.152 91.3089 120.255 90.4426 119.268V119.261ZM96.4083 122.349C95.4969 122.485 94.5855 122.598 93.5686 122.726C94.013 121.754 94.4122 120.888 94.8491 119.909C95.4517 120.617 95.994 121.272 96.5439 121.912C96.7623 122.161 96.7473 122.312 96.4083 122.357V122.349ZM98.7885 121.106C98.741 121.22 98.7057 121.339 98.6831 121.46C98.6002 121.694 98.8563 122.048 98.4119 122.138C98.2517 122.166 98.087 122.145 97.9384 122.079C97.7897 122.014 97.6636 121.906 97.5758 121.769C96.8753 120.963 96.1447 120.165 95.4442 119.351C95.3721 119.241 95.3252 119.116 95.3069 118.986C95.2886 118.855 95.2992 118.723 95.338 118.597C95.3769 118.471 95.4429 118.355 95.5316 118.258C95.6202 118.16 95.7293 118.084 95.8509 118.033C96.333 117.898 96.8226 117.83 97.3574 117.732C97.7039 117.626 97.8847 118.018 98.1106 118.214C99.0974 119.012 99.602 119.916 98.7885 121.114V121.106ZM98.5249 117.559C99.1781 117.345 99.8645 117.251 100.551 117.28C100.551 117.348 100.589 117.378 100.551 117.4C99.8732 119.012 99.6472 119.012 98.5249 117.566V117.559ZM99.3836 122.078C99.3836 121.995 99.3158 121.935 99.3309 121.912C99.6171 121.445 99.7301 120.504 100.084 120.557C100.649 120.647 101.033 121.31 101.508 121.958L99.3836 122.078ZM103.85 121.325C103.76 121.822 103.511 122.025 103.097 121.942C102.502 122.048 102.502 121.777 100.664 119.818C100.498 119.645 100.378 119.502 100.498 119.238C100.747 118.673 100.973 118.093 101.252 117.521C101.719 116.436 102.246 117.95 104.167 119.645C104.506 119.916 103.993 120.519 103.843 121.272L103.85 121.325ZM102.758 117.114C104.016 116.986 105.62 116.866 105.018 118.011C104.875 118.289 104.777 118.606 104.641 118.952C103.963 118.371 103.334 117.736 102.758 117.054V117.114ZM106.622 121.701C106.539 121.958 106.185 121.807 105.952 121.845C105.73 121.876 105.506 121.896 105.281 121.905C104.483 121.958 104.528 121.95 104.732 121.152C104.897 120.579 105.063 120.398 105.553 120.918C105.688 121.061 106.057 121.671 106.261 120.918C106.391 120.984 106.496 121.09 106.561 121.22C106.626 121.35 106.648 121.498 106.622 121.641V121.701ZM133.972 112.813C129.792 115.427 121.31 120.805 121.167 120.865C120.843 119.171 120.55 117.513 120.226 115.864C120.166 115.563 120.316 115.465 120.52 115.344C124.698 112.883 129.077 110.782 133.611 109.062C134.108 108.844 134.439 108.829 134.567 109.469C134.62 109.755 134.809 110.019 134.891 110.305C135.068 110.827 135.322 111.319 135.645 111.766C135.137 112.188 134.574 112.541 133.972 112.813Z" fill="#471280"/>
<path d="M88.8304 38.3467C85.9304 35.281 86.2694 34.2265 84.8834 33.7068C83.6782 33.2548 85.7873 32.9535 86.4351 30.4754C86.5104 30.2193 86.5104 29.9481 86.2242 29.8351C85.9379 29.7221 85.8325 29.9556 85.7421 30.1665C85.2649 31.0733 84.6889 31.9247 84.0247 32.705C83.1735 33.8047 83.0681 32.592 79.7011 33.5034C79.4525 33.5712 79.1512 33.6691 79.1964 33.9553C79.2793 34.445 80.0099 34.0307 81.1021 34.0608C82.7668 34.0608 84.5143 33.9252 85.6668 35.5673C86.4633 36.5973 87.3184 37.5806 88.2278 38.5125C88.9537 39.3508 89.9663 39.888 91.0675 40.0189C91.6492 40.0388 92.2077 40.2516 92.655 40.624C93.1023 40.9963 93.413 41.5069 93.5381 42.0753C93.702 42.6845 93.9559 43.2659 94.2914 43.8002C94.442 44.0412 94.5776 44.4781 94.894 44.3501C95.2103 44.222 95.1124 43.8002 95.0672 43.4763C95.0692 43.401 95.0537 43.3262 95.022 43.2579C94.7132 42.7532 94.9542 42.4142 95.3384 42.0979C96.0916 41.4652 96.8449 40.8023 97.5604 40.1846C100.83 37.5106 104.535 35.492 108.106 33.3151C108.633 32.9912 108.392 33.2398 111.872 37.3223C112.256 37.7743 112.934 38.8288 113.198 38.7686C113.419 38.7171 113.634 38.6413 113.838 38.5426C115.191 37.9341 116.675 37.675 118.154 37.7893C119.676 37.8808 121.203 37.7204 122.673 37.3148C123.6 36.9457 123.69 36.2377 122.937 35.6049C122.824 35.507 122.591 35.4844 122.628 35.2133C123.395 35.211 124.157 35.0916 124.888 34.8592C125.087 34.818 125.268 34.7138 125.404 34.5619C125.54 34.41 125.623 34.2184 125.641 34.0156C125.679 33.2624 124.745 33.0515 123.555 32.592C124.308 32.2455 124.865 32.0647 124.828 31.4847C124.79 30.9047 124.3 30.8219 121.815 30.2494L122.485 29.933C122.869 29.7673 123.238 29.564 123.238 29.0894C123.238 28.6149 122.749 28.5019 122.365 28.404C119.314 27.6507 116.919 28.7956 115.698 29.1572C116.271 28.404 117.032 27.6507 116.512 26.8975C116.173 26.438 115.661 26.5585 115.201 26.7468C112.377 27.8842 110.034 29.3832 108.422 31.9517C108.143 32.3961 108.422 31.8613 105.018 33.7972C99.5415 36.8855 96.8825 39.1678 94.4119 41.7966C94.1775 41.0931 93.7226 40.4839 93.1148 40.0593C92.507 39.6346 91.7785 39.4171 91.0374 39.4389C90.191 39.3637 89.4036 38.974 88.8304 38.3467ZM109.168 32.3208C109.302 32.0466 109.474 31.793 109.68 31.5676C111.114 30.1675 112.749 28.9895 114.531 28.0725C114.85 27.8734 115.211 27.7521 115.585 27.7185C115.194 28.7429 112.573 30.2871 113.544 30.9725C113.661 31.0775 113.812 31.1343 113.969 31.1315C114.126 31.1287 114.275 31.0665 114.388 30.9574C115.702 29.9894 117.248 29.3841 118.87 29.2024C119.68 29.0064 120.528 29.0324 121.325 29.2777C120.093 29.7601 118.835 30.1774 117.559 30.5281C117.25 30.6336 116.61 30.7089 116.738 31.206C117.009 32.2982 119.555 30.2343 123.788 31.4998C122.698 31.8096 121.581 32.0114 120.451 32.1024C118.998 32.3585 118.109 32.1852 118.139 32.8556C118.139 33.3377 118.583 33.3302 118.937 33.3C120.659 33.1194 122.398 33.2315 124.082 33.6315C124.307 33.6723 124.514 33.7799 124.677 33.9403C123.946 34.1677 123.183 34.2746 122.417 34.2566C119.939 34.4148 119.043 33.9478 118.952 34.6709C118.847 35.5748 119.811 34.9346 122.432 36.2979C121.643 36.5501 120.82 36.6796 119.992 36.6821C118.794 36.7197 117.589 36.7348 116.384 36.6821C113.687 36.5616 113.529 38.1283 112.851 37.006C111.889 35.4788 110.686 34.1179 109.288 32.9761C108.965 32.7502 108.98 32.5995 109.115 32.3283L109.168 32.3208Z" fill="#471280"/>
<path d="M54.6788 105.04C54.3398 105.311 54.2193 105.793 53.7975 105.914C52.7824 106.298 51.9256 107.011 51.3645 107.94C49.1575 111.026 47.5409 114.494 46.5965 118.169C45.6926 121.574 45.6399 124.835 47.8619 127.841C48.7056 128.971 48.5022 130.206 48.0728 131.486C47.9843 131.89 47.7783 132.259 47.4807 132.545C47.1831 132.832 46.8073 133.025 46.4006 133.098C43.0788 134.079 40.1054 135.987 37.8288 138.597C37.4049 139.038 37.0586 139.547 36.8044 140.103C36.5527 140.499 36.4611 140.976 36.5483 141.437C37.3921 139.896 38.5773 138.569 40.0132 137.558C41.9832 135.917 44.2305 134.641 46.6492 133.791C46.9279 133.693 47.4025 133.332 47.4025 134.115C47.3208 135.294 47.7039 136.458 48.4698 137.357C49.2357 138.257 50.3235 138.821 51.5001 138.928C51.8616 138.981 52.1855 138.996 52.4266 138.582C50.5435 137.723 48.7583 137.249 48.3214 134.996C48.1136 134.083 48.2061 133.127 48.585 132.27C49.0041 131.367 49.1559 130.363 49.0224 129.376C48.8889 128.39 48.4758 127.462 47.8318 126.703C47.698 126.492 47.5772 126.274 47.4702 126.048C46.6967 124.655 46.4304 123.036 46.717 121.468C47.5154 116.737 49.3549 112.242 52.1027 108.309C52.5885 107.527 53.2929 106.903 54.1289 106.516C54.4076 106.426 55.1834 106.818 54.5733 105.974C54.4528 105.816 54.7089 105.763 54.8143 105.695C57.9704 103.601 61.3374 104.106 62.9644 103.79C64.4182 103.511 62.9644 103.278 61.5709 103.247C59.1078 103.195 56.7125 103.398 54.6788 105.04Z" fill="#471280"/>
<path d="M53.7376 27.8169C55.1988 28.9242 55.8165 28.6605 57.6544 28.8564C57.833 28.8459 58.0111 28.8821 58.1715 28.9613C58.3319 29.0405 58.4689 29.16 58.5692 29.3081C58.6694 29.4562 58.7295 29.6278 58.7434 29.8061C58.7574 29.9844 58.7247 30.1633 58.6487 30.3252C58.5129 30.8659 58.1762 31.3346 57.7071 31.6358C57.6381 31.6902 57.5877 31.7648 57.5631 31.8492C57.5385 31.9336 57.5409 32.0236 57.5699 32.1066C57.599 32.1896 57.6532 32.2614 57.7251 32.3121C57.797 32.3627 57.8829 32.3896 57.9708 32.3891C58.8153 32.1731 59.6734 32.0145 60.5393 31.9145C60.4323 31.8115 60.304 31.7331 60.1635 31.685C60.0229 31.6368 59.8735 31.62 59.7258 31.6358C58.9123 31.681 59.3492 31.1764 59.5224 30.5361C59.8991 29.0296 58.724 28.0655 57.1949 28.0429C56.6203 28.0491 56.0468 27.991 55.4851 27.8696C55.0066 27.7932 54.5542 27.6003 54.1679 27.3077C53.7816 27.0151 53.4732 26.632 53.27 26.1921C53.0668 25.7521 52.975 25.269 53.0027 24.7852C53.0303 24.3014 53.1767 23.8319 53.4287 23.418C53.6201 22.9979 53.8549 22.5991 54.1292 22.2279C54.6703 21.5982 55.0381 20.8387 55.1966 20.0238C55.355 19.2089 55.2987 18.3669 55.0331 17.5804C54.7728 16.7108 54.7567 15.7863 54.9865 14.9082C55.2164 14.03 55.6833 13.232 56.3362 12.6014C56.7838 11.9612 57.3846 11.4433 58.0838 11.095C58.6072 10.8916 59.1807 10.8547 59.7258 10.9895C60.2533 11.1246 60.8108 11.0811 61.3109 10.8658C61.8111 10.6504 62.2258 10.2754 62.4902 9.79939C63.4619 8.34563 64.0795 7.04253 66.4372 6.20643C68.4597 5.51397 70.6158 5.30249 72.7343 5.58877C77.3742 6.1537 77.9618 7.62252 78.5794 7.8485C78.7527 7.91629 78.941 8.13473 79.1067 7.93135C79.2724 7.72798 79.1594 7.502 79.0012 7.32876C77.6078 5.82228 76.7415 4.98618 73.1184 4.60203C68.7496 4.11995 64.8931 5.02384 62.1965 8.85784C61.9733 9.26712 61.6177 9.58843 61.1879 9.76908C60.7582 9.94973 60.2798 9.97901 59.8313 9.85212C59.1555 9.68783 58.4467 9.72276 57.7904 9.95267C57.1341 10.1826 56.5584 10.5976 56.1329 11.1477C51.1464 16.6614 56.6526 18.0097 53.8731 21.6931C53.4727 22.237 53.1151 22.8112 52.8035 23.4104C52.5707 23.7596 52.41 24.1517 52.3309 24.5639C52.2518 24.976 52.2558 25.3998 52.3428 25.8103C52.4299 26.2209 52.5981 26.6098 52.8376 26.9544C53.0771 27.299 53.3831 27.5923 53.7376 27.8169Z" fill="#471280"/>
<path d="M80.8996 141.112C80.2293 139.972 79.4739 138.884 78.6398 137.858C76.6588 135.44 76.2747 135.598 76.5534 134.988C77.735 132.467 78.0143 129.616 77.3443 126.914C76.8951 125.056 77.04 123.103 77.7585 121.332C78.6926 118.914 79.0089 117.498 77.6682 113.318C76.2445 108.904 73.6383 105.574 69.1415 103.977C68.8604 103.884 68.5736 103.808 68.2828 103.751C68.218 103.733 68.1486 103.74 68.0887 103.771C68.0289 103.802 67.9832 103.854 67.961 103.918C67.9388 103.982 67.9418 104.051 67.9695 104.113C67.9971 104.174 68.0472 104.223 68.1095 104.249C69.2921 105.055 75.2502 106.508 77.7661 115.668C78.2632 117.46 78.3913 118.643 76.8019 122.078C75.1222 125.716 77.1785 127.652 76.3424 131.87C75.431 136.51 72.0188 138.883 71.1752 140.344C71.0924 140.495 70.9342 140.668 71.0698 140.818C71.2053 140.969 71.4389 140.879 71.6121 140.773C73.1069 139.674 74.4252 138.353 75.5214 136.856C76.1165 135.99 76.124 135.975 76.7567 136.856C78.3011 138.828 79.7104 140.901 80.9749 143.063C81.0502 143.199 81.0803 143.447 81.3138 143.387C81.5473 143.327 81.457 143.101 81.4645 142.935C81.4678 142.284 81.2706 141.647 80.8996 141.112Z" fill="#471280"/>
<path d="M129.22 95.7448C129.461 95.6394 129.34 95.4059 129.28 95.2251C128.853 93.7599 128.291 92.3377 127.6 90.9768C126.047 88.0618 124.139 85.3497 121.921 82.9021C121.514 82.4577 121.514 82.3221 122.132 82.1489C124.527 81.614 126.93 81.1395 129.355 80.8156C130.895 80.6648 132.447 80.8977 133.875 81.4935C135.109 82.0594 136.262 82.7891 137.302 83.6629C140.203 85.6389 142.317 88.5717 143.275 91.9485C144.172 94.9615 143.976 97.7409 142.266 100.385C139.584 104.565 137.746 105.537 137.264 106.863C137.82 106.759 138.339 106.512 138.771 106.147C140.987 104.346 142.713 102.014 143.787 99.3679C145.429 95.5339 143.464 91.3007 142.514 88.461C142.199 87.6355 141.743 86.8709 141.166 86.2013C139.14 83.6101 136.421 82.066 133.415 80.9286C132.114 80.342 130.689 80.0834 129.265 80.1754C126.689 80.4541 122.373 80.9286 120.038 82.0509C119.834 82.1413 119.556 82.2091 119.639 82.5029C119.721 82.7966 119.985 82.7665 120.203 82.6912C120.889 82.4803 121.137 82.8418 122.599 84.7023C128.376 92.0389 128.399 96.0612 129.22 95.7448Z" fill="#471280"/>
<path d="M83.4298 10.4398C85.5593 11.2449 87.32 12.8023 88.379 14.8176C89.4381 16.8329 89.7219 19.1664 89.177 21.3769C87.9191 26.3031 92.3331 25.1431 91.2785 28.9093C90.6533 31.1163 89.6063 32.8939 87.083 33.2555C87.0106 33.2675 86.9399 33.2878 86.8721 33.3157C86.6536 33.3835 86.3749 33.4061 86.3749 33.6848C86.3749 33.9635 86.6536 33.9409 86.8269 34.0087C90.1185 35.2516 93.1164 30.2425 92.559 27.3802C92.4133 26.8342 92.1604 26.3226 91.8152 25.8752C91.4699 25.4277 91.0391 25.0534 90.5479 24.774C90.104 24.5106 89.7704 24.0957 89.6084 23.6056C89.4465 23.1156 89.4671 22.5835 89.6666 22.1075C90.3326 20.1777 90.4112 18.0938 89.8926 16.1193C88.7778 11.1403 84.2583 9.0388 81.1474 8.85802C80.929 8.85802 80.59 8.70737 80.5147 9.06139C80.3942 9.61879 81.042 9.49074 83.4298 10.4398Z" fill="#471280"/>
<path d="M111.458 39.1675C109.055 41.5854 106.404 43.7397 103.926 46.0973C101.447 48.455 99.4062 51.0537 97.2142 53.5845C97.0259 53.7955 96.7096 54.1194 96.9657 54.3378C97.2218 54.5562 97.4929 54.2173 97.7189 54.044C100.988 51.3248 100.679 50.4812 106.426 45.1407C108.414 43.4213 110.296 41.5825 112.061 39.6345C112.882 38.7005 112.211 38.4143 111.458 39.1675Z" fill="#471280"/>
<path d="M72.0252 17.9044C72.1273 17.8279 72.2386 17.7646 72.3567 17.7161C72.6128 18.0099 73.0421 18.394 73.2756 18.2283C73.5091 18.0626 73.4112 17.5655 73.2304 17.2341C73.4005 16.9736 73.627 16.7547 73.8933 16.5938C75.1215 15.7983 76.0882 14.6587 76.6727 13.3172C76.733 13.1364 76.8234 12.8879 76.6125 12.7749C76.4016 12.6619 76.281 12.933 76.1831 13.0837C75.1724 14.4519 73.8707 15.5787 72.3717 16.3829C72.1231 16.1569 71.4829 15.5468 69.6299 15.6748C67.9879 15.818 66.9333 17.3696 67.4681 17.7161C68.0029 18.0626 67.7845 16.3151 70.3756 16.5411C70.7984 16.5344 71.2096 16.6786 71.5356 16.9478C71.2787 17.2212 70.9784 17.4503 70.6468 17.6257C66.519 20.0436 64.0183 18.5221 63.0315 18.379C62.6097 18.3112 62.3687 18.6275 62.8357 18.8836C65.57 20.3374 68.2364 20.473 72.0252 17.9044Z" fill="#471280"/>
<path d="M129.723 98.0646C129.633 98.283 129.588 98.509 129.851 98.6521C130.115 98.7952 130.138 98.5391 130.236 98.4261C130.603 97.9763 131.086 97.6354 131.633 97.4402C132.18 97.2451 132.77 97.2031 133.339 97.3189C134.235 97.4921 134.619 98.1324 134.416 99.1869C134.25 99.9874 133.944 100.752 133.512 101.447C132.503 103.089 131.742 103.42 129.859 103.013C129.03 102.833 129.106 103.706 129.512 103.767C130.492 103.947 129.995 104.686 130.115 105.74C130.153 106.079 130.19 106.546 130.62 106.493C131.049 106.441 130.778 105.205 130.861 104.671C130.944 104.136 131.177 103.834 131.976 103.782C132.267 103.707 132.529 103.547 132.729 103.322C134.116 102.104 134.991 100.406 135.177 98.5693C135.243 98.0785 135.117 97.5812 134.825 97.1812C134.533 96.7812 134.098 96.5094 133.61 96.4225C132.961 96.2723 132.286 96.2723 131.637 96.4225C131.742 95.722 131.84 95.1044 131.923 94.4942C131.933 94.4575 131.935 94.4192 131.929 94.3816C131.923 94.344 131.91 94.3081 131.889 94.2761C131.869 94.2441 131.841 94.2168 131.81 94.196C131.778 94.1752 131.742 94.1613 131.704 94.1553C131.509 94.1553 131.471 94.2683 131.433 94.4264C130.996 96.0911 131.591 96.4075 130.921 96.7765C130.385 97.0552 129.962 97.5101 129.723 98.0646Z" fill="#471280"/>
<path d="M72.4931 32.0872C72.9308 32.4087 73.477 32.5461 74.0147 32.4701C74.5524 32.3941 75.039 32.1106 75.3705 31.6805C75.6542 31.3005 75.9638 30.9406 76.297 30.6033C76.8167 30.0459 76.8017 30.0007 76.1162 29.7145C74.8432 29.1872 73.4648 28.9613 72.222 28.3662C71.8053 28.142 71.355 27.9868 70.8887 27.9067C70.1355 27.8088 69.8116 28.193 70.0526 28.8709C70.4491 30.2035 71.3165 31.3465 72.4931 32.0872ZM75.0165 30.2794C75.2349 30.3322 75.3253 30.4301 75.1822 30.7012C75.1057 30.8979 74.9843 31.0739 74.8278 31.2154C74.6713 31.3569 74.4839 31.4598 74.2806 31.5162C74.0773 31.5725 73.8636 31.5806 73.6566 31.5398C73.4496 31.499 73.255 31.4105 73.0882 31.2812C72.1725 30.7385 71.4848 29.8821 71.1524 28.8709C72.4012 29.4416 73.6933 29.9126 75.0165 30.2794Z" fill="#471280"/>
<path d="M63.1233 24.1039C63.2589 23.9683 63.1685 23.8327 63.1233 23.6896C62.129 21.7689 60.6301 19.9234 59.0332 21.4299C58.499 21.8823 58.0998 22.4731 57.8792 23.1374C57.6586 23.8018 57.6253 24.514 57.7828 25.1961C57.9275 25.777 58.2232 26.3094 58.6399 26.7393C59.0565 27.1692 59.5794 27.4813 60.1555 27.6441C60.7489 27.8894 61.4152 27.8894 62.0085 27.6441C61.4938 27.4415 60.9908 27.2101 60.502 26.9511C58.9955 26.0322 58.4306 24.9249 58.8449 23.4712C58.9061 23.127 59.0586 22.8057 59.2865 22.5406C59.5144 22.2756 59.8094 22.0767 60.1405 21.9647C60.7807 21.799 61.1122 22.4618 61.5114 22.846C61.9106 23.2301 62.7316 24.5257 63.1233 24.1039Z" fill="#471280"/>
<path d="M16.1735 127.185C15.4203 127.094 14.1774 128.277 13.718 128.879C11.328 132.026 9.45882 135.535 8.18164 139.274C8.18164 139.56 8.18164 139.794 8.43021 139.831C8.67878 139.869 8.64112 139.621 8.70891 139.47C9.86137 137.029 13.6803 128.638 16.2413 127.667C16.3769 127.614 16.5727 127.667 16.5275 127.433C16.4824 127.2 16.3317 127.207 16.1735 127.185Z" fill="#471280"/>
<path d="M77.9093 12.6844C77.9093 12.2551 77.4573 12.2626 77.4197 12.6844C77.0807 16.1041 84.711 16.7821 84.3871 20.8872C84.2948 21.9128 84.0246 22.9145 83.5887 23.8475C83.5209 23.983 83.2874 24.1337 83.4833 24.2994C83.6791 24.4651 83.8599 24.2467 83.9879 24.1262C84.7831 23.1415 85.1975 21.9036 85.1554 20.6386C85.3136 17.8291 82.022 16.5109 79.3254 14.6579C78.6098 14.1834 77.9017 13.6862 77.9093 12.6844Z" fill="#471280"/>
<path d="M82.7524 126.332C82.4812 126.234 82.3682 126.49 82.2326 126.746C80.5043 129.544 79.3972 132.68 78.9862 135.943C78.9284 136.233 78.9466 136.534 79.039 136.815C79.1314 137.096 79.2948 137.348 79.5134 137.548C79.4682 134.12 81.3965 129.895 82.662 127.002C82.7524 126.791 83.0311 126.475 82.7524 126.332Z" fill="#471280"/>
<path d="M117.521 86.9392C117.439 87.0747 117.273 87.2254 117.446 87.4062C117.619 87.5869 117.665 87.4589 117.8 87.3459C120.06 85.4477 121.951 87.4589 122.259 90.5321C122.448 92.4453 122.402 92.7918 122.704 92.7918C123.005 92.7918 123.065 92.2118 123.148 90.9389C123.148 90.615 123.148 90.2911 123.088 89.9672C122.854 88.408 122.335 86.9542 120.828 86.201C120.273 85.941 119.647 85.8725 119.049 86.006C118.451 86.1396 117.913 86.4678 117.521 86.9392Z" fill="#471280"/>
<path d="M130.454 95.9094C130.417 93.0245 129.083 90.5765 127.66 88.1736C127.603 88.0932 127.54 88.0176 127.471 87.9477C127.343 87.797 127.178 87.7217 127.012 87.8347C126.665 88.0531 127.155 88.4674 127.66 89.4692C130.356 94.8021 129.422 96.8208 130.176 96.7832C130.643 96.7832 130.386 96.2785 130.454 95.9923C130.458 95.9648 130.458 95.9369 130.454 95.9094Z" fill="#471280"/>
<path d="M141.89 125.248C139.547 125.836 133.438 129.263 132.241 130.25C132.105 130.37 131.984 130.514 132.165 130.694C132.466 130.981 132.218 130.288 141.957 125.7C142.085 125.633 142.259 125.655 142.274 125.429C142.289 125.203 142.033 125.218 141.89 125.248Z" fill="#471280"/>
<path d="M139.042 133.271C138.507 133.203 138.643 134.024 137.837 134.777C136.054 136.529 134.181 138.186 132.225 139.741C132.075 139.876 131.803 140.042 132.022 140.283C132.24 140.524 132.383 140.283 132.542 140.178C134.184 138.867 137.505 136.412 138.899 134.295C139.077 134.079 139.192 133.819 139.23 133.542C139.245 133.414 139.2 133.323 139.042 133.271Z" fill="#471280"/>
<path d="M33.0381 123.418C32.1116 123.29 31.1851 123.185 30.2586 123.079C26.9519 122.71 23.5322 122.326 20.3234 121.106C20.2794 121.088 20.2303 121.089 20.1866 121.107C20.143 121.125 20.1082 121.16 20.0899 121.204C20.069 121.246 20.0661 121.296 20.0816 121.341C20.0971 121.386 20.1299 121.423 20.1727 121.445C23.9992 123.388 28.0366 123.787 32.91 123.787H33.0381C33.0855 123.787 33.1313 123.77 33.1662 123.737C33.2011 123.705 33.2226 123.661 33.2264 123.614C33.2286 123.588 33.2252 123.562 33.2166 123.538C33.2081 123.514 33.1944 123.492 33.1766 123.473C33.1587 123.455 33.1372 123.44 33.1133 123.431C33.0894 123.421 33.0638 123.417 33.0381 123.418Z" fill="#471280"/>
<path d="M69.8044 23.0795C70.3919 23.1699 70.5576 22.6728 70.6857 22.251C70.9272 21.4615 71.0016 20.6303 70.9041 19.8105C70.8363 19.3209 70.6405 19.1853 70.2187 19.5092C69.868 19.7832 69.5909 20.14 69.4121 20.5476C69.2333 20.9551 69.1585 21.4006 69.1943 21.8442C69.1943 22.4091 69.1943 22.9891 69.8044 23.0795Z" fill="#471280"/>
<path d="M78.0817 27.3046C78.0639 26.9305 77.9534 26.5667 77.7601 26.2459C77.5668 25.9251 77.2968 25.6573 76.9744 25.4667C76.7936 25.4215 76.6053 25.4065 76.4999 25.5722C76.3944 25.7379 76.5451 25.9036 76.7108 26.0241C76.8793 26.152 77.016 26.3171 77.1101 26.5066C77.2042 26.6961 77.2531 26.9048 77.2531 27.1163C77.2983 28.2537 76.4999 28.1106 75.4453 27.749C75.2495 27.6888 75.0461 27.5607 74.9105 27.749C74.7749 27.9374 74.9783 28.0805 75.0687 28.2236C75.2904 28.513 75.596 28.727 75.9438 28.8362C76.2917 28.9454 76.6647 28.9445 77.0121 28.8337C77.3282 28.7232 77.6015 28.5161 77.7935 28.2417C77.9854 27.9673 78.0862 27.6395 78.0817 27.3046Z" fill="#471280"/>
<path d="M117.703 100.234C116.121 101.235 115.029 102.493 114.313 101.1C114.216 100.911 114.17 100.685 113.922 100.761C113.673 100.836 113.673 101.1 113.696 101.318C113.77 101.598 113.915 101.853 114.116 102.062C114.317 102.27 114.567 102.423 114.844 102.508C115.12 102.592 115.414 102.605 115.697 102.544C115.98 102.484 116.242 102.352 116.46 102.162C117.092 101.754 117.652 101.245 118.117 100.655C118.26 100.475 118.614 100.279 118.434 100.06C118.253 99.8418 117.921 100.105 117.703 100.234Z" fill="#471280"/>
<path d="M81.6753 19.8019C81.7514 20.0871 81.8118 20.3763 81.8561 20.6681C81.8561 20.7434 81.9013 21.4665 82.3607 20.751C82.5539 20.3797 82.623 19.9562 82.5579 19.5428C82.4928 19.1294 82.297 18.7476 81.9992 18.4536C81.6644 18.115 81.2166 17.9117 80.7413 17.8825C80.2661 17.8534 79.7968 18.0004 79.4231 18.2954C79.167 18.559 78.9862 18.8679 79.2348 19.2294C79.3402 19.3876 79.4306 19.478 79.634 19.2294C80.4023 18.4385 81.3665 18.6946 81.6753 19.8019Z" fill="#471280"/>
<path d="M71.5138 134.898C71.3481 134.341 70.9414 134.943 70.851 135.35C70.566 137.133 69.6058 138.738 68.1694 139.832C68.3475 139.845 68.5262 139.845 68.7042 139.832C70.4367 139.418 72.0336 136.608 71.5138 134.898Z" fill="#471280"/>
<path d="M134.621 105.965C133.795 105.919 132.967 105.98 132.158 106.146C131.849 106.214 131.404 106.221 131.472 106.666C131.54 107.11 131.939 107.02 132.226 106.997C132.798 106.96 135.592 106.764 136.414 106.688C136.557 106.688 136.805 106.688 136.813 106.447C136.82 106.206 136.609 106.199 136.444 106.146C135.85 105.987 135.234 105.926 134.621 105.965Z" fill="#471280"/>
<path d="M118.026 93.3342C118.425 92.4605 119.02 91.6018 118.403 90.5698C118.32 90.4192 118.335 90.2309 118.101 90.2158C118.027 90.2172 117.955 90.2399 117.894 90.2814C117.832 90.3228 117.784 90.3811 117.755 90.4493C117.363 91.2397 117.067 92.0742 116.874 92.935C116.874 93.2815 116.964 93.5451 117.265 93.6883C117.338 93.718 117.416 93.7323 117.495 93.7304C117.574 93.7285 117.651 93.7104 117.723 93.6772C117.794 93.6439 117.858 93.5963 117.91 93.5373C117.962 93.4783 118.002 93.4092 118.026 93.3342Z" fill="#471280"/>
<path d="M80.3872 22.3791C79.8599 22.2435 79.5737 22.6503 79.3627 23.0646C79.1559 23.54 79.0483 24.0526 79.0464 24.571C79.0464 24.9025 79.0916 25.2414 79.4757 25.3243C79.8599 25.4071 80.0859 25.1962 80.2817 24.9251C80.6121 24.42 80.7535 23.8144 80.6809 23.2152C80.6056 23.0043 80.9144 22.5072 80.3872 22.3791Z" fill="#471280"/>
<path d="M139.185 102.154C139.321 101.913 139.675 101.656 139.26 101.4C138.846 101.144 138.711 101.513 138.507 101.747C138.108 102.304 137.972 102.666 136.534 105.686C137.415 105.626 137.498 105.182 139.185 102.154Z" fill="#471280"/>
<path d="M52.0722 134.717C52.0119 134.513 52.2228 134.137 51.8085 134.152C51.3942 134.167 51.4394 134.498 51.4394 134.777C51.4394 136.592 54.1436 138.799 55.1529 137.926C53.4129 137.519 52.5768 136.283 52.0722 134.717Z" fill="#471280"/>
<path d="M60.8402 24.8573C60.8061 24.8712 60.775 24.8916 60.7488 24.9175C60.7226 24.9433 60.7017 24.9741 60.6873 25.008C60.673 25.0419 60.6655 25.0784 60.6652 25.1152C60.665 25.152 60.6719 25.1885 60.6858 25.2227C60.6996 25.2568 60.7201 25.2879 60.7459 25.3141C60.7718 25.3403 60.8026 25.3612 60.8365 25.3755C60.8704 25.3899 60.9068 25.3974 60.9436 25.3977C60.9805 25.3979 61.017 25.3909 61.0511 25.3771C61.5181 25.2566 61.9701 25.136 62.3241 25.6181C62.3404 25.6372 62.3606 25.6525 62.3833 25.663C62.4061 25.6735 62.4308 25.6789 62.4559 25.6789C62.481 25.6789 62.5057 25.6735 62.5285 25.663C62.5513 25.6525 62.5715 25.6372 62.5877 25.6181C63.0924 25.0682 61.0813 23.14 60.328 23.1475C60.0644 23.1475 59.8158 23.2002 59.7706 23.5166C59.7254 23.8329 59.9966 23.8329 60.2226 23.8405C60.4459 23.8779 60.6502 23.9893 60.8025 24.1568C61.021 24.3979 61.5031 24.6088 60.8402 24.8573Z" fill="#471280"/>
<path d="M139.486 137.843C139.461 137.809 139.425 137.785 139.384 137.774C139.343 137.763 139.299 137.766 139.26 137.783C137.486 138.517 135.854 139.558 134.44 140.856C134.411 140.89 134.396 140.933 134.396 140.977C134.396 141.021 134.411 141.064 134.44 141.097C134.458 141.123 134.481 141.143 134.509 141.158C134.536 141.172 134.567 141.18 134.598 141.18C134.625 141.188 134.654 141.188 134.681 141.18L135.336 140.856C136.884 140.209 138.297 139.276 139.501 138.107C139.532 138.069 139.548 138.021 139.545 137.972C139.542 137.924 139.521 137.878 139.486 137.843Z" fill="#471280"/>
<path d="M63.8005 22.1602C64.0566 22.0698 64.5537 22.1602 64.5537 21.746C64.5537 21.4748 64.3202 21.4221 64.0867 21.3769C63.0322 21.166 62.6706 20.6839 62.4371 21.053C62.3887 21.1409 62.3719 21.2428 62.3898 21.3415C62.4076 21.4403 62.4589 21.5299 62.535 21.5953C62.6974 21.7694 62.8931 21.9091 63.1104 22.0062C63.3278 22.1032 63.5625 22.1556 63.8005 22.1602Z" fill="#471280"/>
<path d="M96.5966 44.6587C96.4535 43.9055 97.0862 44.0034 97.2444 44.4855C97.3963 44.9517 97.4899 45.4349 97.5231 45.9241C97.5683 46.4514 96.9356 46.3535 96.8979 46.0371C96.8602 45.7208 96.6719 45.0579 96.5966 44.6587Z" fill="#471280"/>
</svg>
