<svg width="152" height="152" viewBox="0 0 152 152" fill="none" xmlns="http://www.w3.org/2000/svg">
<path d="M50.0449 101.082L52.493 108.373L55.6942 106.731L52.3724 99.8389C52.3724 99.8389 50.2031 100.961 50.0449 101.082Z" fill="#79E1CF"/>
<path d="M65.8917 80.3961C70.0011 79.2363 73.9774 77.6483 77.7552 75.6582L96.4506 78.5958C96.4506 78.5958 99.8704 80.5769 100.285 80.6371C101.455 80.5419 102.627 80.8046 103.644 81.3904C105.023 82.347 107.779 82.347 108.495 82.4675C109.528 82.8016 110.515 83.2647 111.433 83.8459C112.148 84.2677 115.327 85.2846 115.869 85.6462C116.412 86.0077 117.662 86.3994 117.963 87.9059C118.384 89.7573 118.637 91.6431 118.716 93.5401C118.656 94.9186 118.302 98.632 117.76 100.071C117.217 101.509 114.882 108.997 114.747 109.863C114.611 110.729 114.333 116.574 113.994 117.779C113.655 118.985 112.02 125.312 111.734 126.464C111.448 127.617 109.278 133.356 108.917 134.373C108.555 135.39 108.013 137.251 108.164 138.027C108.381 138.867 108.442 139.74 108.344 140.603C108.224 141.567 109.007 146.297 108.766 146.629C108.525 146.96 100.134 147.344 97.2039 146.448C94.2738 145.551 82.5835 146.809 77.8456 146.568C73.1077 146.327 60.5889 146.207 58.7962 145.815C57.0034 145.423 54.7814 145.34 55.8585 144.143C56.9357 142.945 57.0562 141.265 57.1164 139.623C57.2742 138.139 57.5743 136.674 58.0128 135.247L54.2466 109.449L59.7754 98.15L65.8917 80.3961Z" fill="#BED4FC"/>
<path d="M117.903 73.0148C118.845 73.6776 118.724 73.5345 117.903 73.64C117.082 73.7454 116.653 73.7756 116.555 74.3104C116.474 74.7459 116.351 75.1723 116.186 75.5833C116.147 75.5547 116.112 75.5219 116.08 75.4854C114.574 73.2709 115.741 73.8434 112.977 73.6174C112.427 73.6174 113.941 73.1052 114.386 72.1109C114.551 71.7418 113.776 70.3634 114.212 70.6044C115.538 71.3049 115.109 71.0488 115.274 71.1467C115.772 71.4556 117.248 70.2429 117.813 70.0771C117.986 71.2974 116.593 72.0506 117.903 73.0148Z" fill="#FFEAB6"/>
<path d="M129.051 49.6649C129.42 49.8005 128.297 50.1244 127.838 50.4709C127.085 51.0282 127.793 51.4953 127.732 52.2786C127.145 52.0301 126.482 50.7721 125.608 50.7721C124.034 51.2994 123.936 51.5254 123.657 51.5254C123.748 50.9605 125.073 49.8155 124.32 49.2054C124.026 48.9794 123.296 47.9023 123.665 47.9852C125.126 48.3241 125.119 48.3919 125.397 48.1961C126.866 47.1867 126.904 45.635 127.175 47.7592C127.408 49.6649 126.934 48.9116 129.051 49.6649Z" fill="#FFEAB6"/>
<path d="M127.221 24.8532C127.183 24.9059 127.153 24.9737 127.1 24.9963C125.202 25.9755 125.074 25.855 125.187 26.5028C125.473 28.288 125.405 28.0093 125.36 28.3181C123.349 26.4952 124.147 26.7287 123.854 26.676C123.296 26.5932 122.257 27.2184 121.255 27.4293C120.908 27.4293 121.044 27.3539 121.91 25.9228C122.867 24.3636 118.212 22.5181 122.249 23.6631C123.002 23.8815 122.867 23.776 124.238 21.9306C124.675 21.3355 124.396 24.0246 125.413 24.115C125.767 24.115 126.256 24.5368 127.062 24.7176C127.122 24.7546 127.175 24.8003 127.221 24.8532Z" fill="#FFEAB6"/>
<path d="M49.3052 57.6486C53.1316 56.7899 49.3052 57.9951 50.1563 59.4263C50.8569 60.6616 51.1431 60.5486 49.7797 60.2473C48.1979 59.8933 48.9135 59.7878 47.2714 61.4525C47.0756 61.6559 47.3091 60.8273 47.3693 60.0439C47.4371 59.1099 45.6294 58.8086 45.3657 58.319C45.4938 58.319 45.2678 58.319 46.4278 58.206C47.8589 58.0855 47.181 57.2795 47.8062 55.999C48.3184 56.4434 48.8457 57.7465 49.3052 57.6486Z" fill="#FFEAB6"/>
<path d="M57.0037 40.7161C57.1921 41.0324 56.2505 40.7161 54.9173 40.2189C54.164 39.9403 54.3373 39.3753 52.5596 41.861C51.8742 42.8327 52.876 39.7218 51.7386 39.3C49.1625 38.3359 49.1625 38.5468 51.9947 37.5224C52.6123 37.2964 52.3186 35.9481 52.7479 34.7881C55.437 37.3039 53.1697 37.093 57.1017 36.1891C56.5217 37.7408 55.3165 38.1852 56.0095 38.9912C56.3942 39.5337 56.7271 40.1112 57.0037 40.7161Z" fill="#FFEAB6"/>
<path d="M77.5438 84.9237C77.8978 86.5959 78.2443 86.7918 77.8526 86.7315C74.4404 86.1967 71.1111 82.8222 70.4257 79.99C70.2976 79.4552 70.2072 79.5079 70.7797 79.3121C72.4594 78.717 73.3256 78.0768 73.1147 78.4534C72.6929 79.2066 72.9942 80.1783 72.9415 80.5248C72.7456 81.8279 73.6495 82.9277 74.9526 83.6206C75.1259 83.711 75.0656 83.696 76.2181 83.7713C76.9713 83.5905 77.0692 83.5152 77.1596 83.7713C77.3281 84.1407 77.4569 84.5271 77.5438 84.9237Z" fill="#FFC6A6"/>
<path d="M104.39 27.5797C106.454 28.446 107.034 28.5816 105.641 28.928C104.767 28.7171 104.661 28.7021 104.134 27.6325C104.081 27.4969 104.247 27.5195 104.39 27.5797Z" fill="#E6FCFF"/>
<path d="M108.519 27.248C108.647 27.248 108.639 27.3384 108.586 27.4062C108.277 27.8205 107.923 28.4306 107.343 28.0615C105.837 27.0899 102.899 26.6454 103.705 25.3875C104.037 24.8753 103.766 25.4629 105.483 26.201C107.343 26.9995 108.014 27.3083 108.519 27.248Z" fill="#E6FCFF"/>
<path d="M109.135 25.62C109.595 25.6652 109.03 26.4863 108.299 26.4712C107.087 26.0494 103.433 24.7086 104.443 23.9102C104.563 23.8198 104.503 23.5637 104.676 23.5788C104.978 23.5788 104.578 23.8951 106.574 24.6936C108.571 25.492 108.744 25.5598 109.135 25.62Z" fill="#E6FCFF"/>
<path d="M105.36 21.9678C109.352 24.9807 110.934 23.4291 109.729 24.8301C109.503 25.0937 108.629 24.6493 108.298 24.5288C106.686 23.9337 103.997 23.075 105.36 21.9678Z" fill="#E6FCFF"/>
<path d="M115.921 16.613C116.154 16.6807 115.981 17.2298 115.771 17.117C114.974 16.7108 115.643 16.5228 115.921 16.613Z" fill="#FFD152"/>
<path d="M107.959 14.5486C107.545 14.8871 107.357 14.2327 107.628 14.1575C107.718 14.1349 107.876 14.4208 107.959 14.5486Z" fill="#FFD152"/>
<path d="M110.801 8.38737C120.134 8.33465 122.145 20.6125 112.443 21.7197C111.178 21.8704 110.937 21.5088 110.545 22.0135C109.837 23.0153 110.296 23.4673 109.716 23.3166C108.532 23.0141 107.403 22.526 106.372 21.8704C105.415 21.2904 107.125 21.1171 106.628 20.04C106.131 18.9629 106.108 19.7839 105.325 18.5335C101.702 12.7562 106.839 8.16893 110.801 8.38737ZM115.456 17.9837C115.931 19.1587 117.407 16.3793 116.27 16.0102C115.132 15.6411 114.831 16.4395 114.65 16.3943C112.903 16.0026 113.987 16.2286 112.978 15.7089C112.511 15.4678 112.142 16.0328 111.765 15.498C111.17 14.6393 111.599 15.498 108.805 14.3832C108.609 14.3078 108.504 14.0367 108.353 13.8559C108.202 13.6751 107.969 13.6751 107.69 13.5998C106.877 13.3814 106.41 15.046 107.69 15.2645C107.826 15.2645 107.924 15.2645 107.878 15.498C107.592 16.7257 109.257 17.7577 108.925 18.3527C108.475 19.2139 108.157 20.1383 107.984 21.0945C107.946 21.3205 108.15 21.2 108.233 21.2678C108.549 21.539 108.7 20.1229 109.513 18.5938C110.063 17.5769 108.466 16.56 108.504 15.6863C108.549 14.5639 108.986 15.2042 110.01 15.5281C110.583 15.7089 111.019 15.5281 111.178 15.9047C111.28 16.1059 111.451 16.2638 111.66 16.3495C111.868 16.4352 112.101 16.4431 112.315 16.3717C113.008 16.1909 112.827 16.7257 113.641 16.899C114.454 17.0722 114.447 17.0346 114.447 17.3359C114.447 17.4413 114.447 17.5543 114.319 17.5844C113.931 17.7166 113.562 17.8962 113.219 18.1192C112.79 18.3226 112.978 17.9761 112.262 18.4431C111.185 19.1436 111.366 18.6992 110.914 19.0533C110.161 19.6634 108.511 21.4034 109.038 21.8177C109.566 22.2319 109.626 21.1473 110.696 20.1681C111.765 19.1888 111.599 19.6634 111.961 19.4148C112.714 18.9478 112.82 18.88 112.933 18.8725C113.581 18.8198 114.078 18.2774 114.567 18.2322C115.23 18.172 115.057 17.592 115.2 17.6372C115.343 17.6824 115.403 17.8556 115.456 17.9837Z" fill="#FFD152"/>
<path d="M50.8953 15.3541C51.0136 15.7455 51.0104 16.1636 50.8859 16.5531C50.7614 16.9425 50.5216 17.285 50.1982 17.5352C49.8748 17.7854 49.4831 17.9315 49.0748 17.9541C48.6666 17.9767 48.2611 17.8749 47.912 17.662C47.5629 17.4491 47.2867 17.1352 47.1199 16.7619C46.9531 16.3886 46.9036 15.9735 46.978 15.5714C47.0524 15.1693 47.247 14.7993 47.5363 14.5104C47.8256 14.2214 48.1958 14.0271 48.5979 13.9531C49.0859 13.865 49.5893 13.959 50.0127 14.2172C50.4361 14.4754 50.7501 14.8799 50.8953 15.3541Z" fill="#9EDEFF"/>
<path d="M43.43 21.8401C43.7615 21.4634 44.1833 21.0868 44.3867 21.5915C44.3867 21.5915 37.5397 29.2444 37.5246 29.2595C36.9672 28.8753 36.7488 29.6587 43.43 21.8401Z" fill="#9EDEFF"/>
<path d="M47.9714 28.499C48.107 28.8229 48.0468 28.7024 43.3014 33.4026C43.0603 33.6512 43.1733 33.6436 42.9097 29.8699C42.9097 29.5159 45.9226 27.1582 46.8943 25.9982C47.866 24.8383 47.6099 25.0341 47.9714 28.499Z" fill="#9EDEFF"/>
<path d="M39.7174 18.7814C40.2974 18.706 38.6553 20.0393 37.4576 21.847C37.1865 22.2387 36.1621 23.6096 35.7629 23.6624C35.7629 23.6624 31.9967 23.7753 31.9967 23.7527C31.8912 23.6096 33.9024 21.6889 35.7629 19.5572C35.9964 19.2032 35.9964 19.2634 39.7174 18.7814Z" fill="#9EDEFF"/>
<path d="M58.0275 7.85245C57.9535 8.91825 57.7199 9.9669 57.3346 10.9633C55.5193 15.3924 55.6774 14.9932 55.1803 14.1044C52.8754 9.99919 49.6816 9.58491 50.2842 9.21582C51.8119 8.09094 53.5288 7.24905 55.3535 6.73012C58.2083 5.97688 57.892 6.73012 58.0275 7.85245Z" fill="#FF8E92"/>
<path d="M103.727 63.0049C103.147 61.0239 104.578 56.0299 105.007 54.9227C105.589 52.9265 105.759 50.8325 105.504 48.7687C105.203 46.411 103.546 42.4189 102.672 40.483C101.798 38.5472 98.0019 34.9618 96.7967 34.0278C95.5916 33.0937 89.8142 30.6683 87.7578 29.7644C85.7015 28.8605 82.0031 28.6572 82.0031 28.6572C81.4511 27.9666 80.681 27.4839 79.8189 27.2882C78.9567 27.0925 78.0537 27.1954 77.2577 27.58C74.998 28.5818 74.6213 30.9922 74.4255 31.0449C69.7554 30.9922 69.1001 34.7584 69.1001 34.7584C67.3676 36.5135 67.8497 37.6207 68.5728 38.7732C69.2959 39.9256 71.6385 39.9558 71.6385 39.9558C71.6385 39.9558 85.8823 36.86 90.2285 43.6391C94.5747 50.4183 92.8648 61.4759 92.8648 61.4759L92.9853 72.4581C93.6755 73.1131 94.5379 73.5581 95.4716 73.7408C96.4054 73.9236 97.3719 73.8366 98.258 73.49C95.5539 71.4262 96.0736 70.2511 96.0736 70.2511C100.171 72.782 101.979 70.2511 101.979 70.2511C101.283 70.1149 100.63 69.8103 100.079 69.3638C99.5274 68.9174 99.0936 68.3428 98.8154 67.6901C100.023 68.0558 101.269 68.2758 102.529 68.3454C105.896 68.6693 106.649 66.8389 106.649 66.8389C106.649 66.8389 104.299 64.986 103.727 63.0049Z" fill="#FFB564"/>
<path d="M74.8784 68.4951C74.6677 68.2602 74.5512 67.9558 74.5512 67.6402C74.5512 67.3247 74.6677 67.0202 74.8784 66.7853C70.2459 63.9305 71.2402 61.5729 70.2459 62.0474C69.1797 62.518 68.0411 62.8033 66.8789 62.891C66.5776 62.9814 67.715 64.9248 70.2233 65.7609C72.3475 66.4689 67.9636 68.4951 67.2932 68.5479C66.201 68.6307 70.8109 71.3951 73.4246 69.6325C73.486 69.5827 73.5615 69.5535 73.6404 69.549C73.7194 69.5445 73.7977 69.5649 73.8644 69.6074C73.931 69.6499 73.9826 69.7123 74.0119 69.7858C74.0411 69.8592 74.0464 69.94 74.0272 70.0167C73.8152 71.0694 73.4363 72.0815 72.9049 73.0146C74.208 73.2481 75.6994 72.3894 76.7841 71.6512C77.0703 71.4629 76.9648 71.1315 77.0778 70.898C77.123 70.7925 76.1739 70.092 74.8784 68.4951Z" fill="#FFB564"/>
<path d="M63.0138 77.7753C64.3922 80.6376 64.4525 80.4945 64.1135 80.615L48.8002 85.6693C48.6194 85.6693 48.8679 86.0986 45.4633 79.3647C45.2901 79.0257 44.3786 79.4852 55.1274 75.8847C56.9954 75.2595 58.7731 74.6343 60.7691 73.979C61.2814 73.8133 60.852 73.3011 63.0138 77.7753ZM60.9575 80.2234C60.6336 79.666 60.3775 80.0501 59.9782 80.0652C59.8803 80.0652 50.1259 83.0781 49.4329 83.4096C49.0939 83.5527 48.7851 84.0046 49.1994 84.1101C49.3576 84.1477 60.3775 80.8937 60.9575 80.2234ZM58.5923 77.0447C58.8333 76.9242 58.999 76.5024 58.4868 76.3969C58.3964 76.3969 57.8164 76.5701 56.9804 76.7811C54.005 77.5343 53.5908 78.0917 52.8225 78.0766C51.9336 78.0766 51.9713 78.4382 50.6456 78.7319C47.6326 79.4023 48.1222 79.6886 47.3163 79.7262C47.2184 79.7262 47.0602 79.9597 47.03 80.0501C46.9623 80.3213 47.7833 80.4795 48.175 80.261C49.0126 79.8109 49.9273 79.5222 50.8716 79.4099C52.1144 79.1914 52.0692 78.7922 52.7999 78.8299C54.1934 78.6416 54.7206 78.0766 55.9861 77.7603C57.2515 77.4439 57.6281 77.5343 58.5923 77.0447ZM56.6113 79.794C56.7374 79.8023 56.8622 79.765 56.9631 79.689C57.0641 79.613 57.1343 79.5032 57.1611 79.3797C57.1611 78.5135 54.1482 79.8919 52.7245 80.133C51.429 80.3514 48.4838 81.2101 48.0544 81.6771C47.7532 82.0085 47.9189 82.1969 48.3256 82.2194C49.8321 81.7072 49.6287 81.6395 50.1711 81.4662C53.3045 80.5849 51.1503 81.308 54.4721 80.3514C55.9785 79.9447 56.0765 79.794 56.6113 79.794Z" fill="#FFF5DB"/>
<path d="M51.06 98.1052C51.286 98.5647 50.4574 98.8208 49.9754 98.9112C49.6891 98.7229 50.3219 99.7699 43.4222 85.8726C39.0082 77.0898 39.0082 77.4438 39.4601 77.4438C41.8102 77.4513 38.1721 72.2615 51.06 98.1052Z" fill="#79E1CF"/>
<path d="M41.1324 82.9207C49.5235 99.9439 49.3653 99.1606 49.0038 99.2886C44.4843 100.84 46.744 103.808 46.277 104.825C46.0285 104.471 30.459 72.5712 30.3535 72.3075C30.474 72.2623 30.0673 72.059 36.6657 75.9984C38.7823 77.2639 37.5545 75.6519 41.1324 82.9207Z" fill="#79E1CF"/>
<path d="M64.3171 74.5737C61.7486 69.2483 61.9218 69.5646 61.7109 69.6399C59.4512 70.4459 47.6253 74.3703 45.6292 75.0256C40.7106 76.6526 41.0194 76.3363 41.3207 76.9238C52.8453 99.4532 51.1128 98.1802 52.431 97.8262C53.9751 97.7886 52.9432 100.357 52.9959 100.493C53.0486 100.628 53.4253 101.57 53.6362 101.495C54.0911 101.297 54.5563 101.123 55.0297 100.975C56.0943 100.817 57.1314 100.51 58.1104 100.063C60.2195 98.9862 60.2496 102.368 57.5831 103.671C56.8618 104.11 56.0872 104.454 55.2782 104.696C55.1426 104.696 55.1125 104.801 55.1728 104.922C55.7151 106.067 55.5795 105.976 55.926 105.976C59.9935 105.976 59.5114 105.321 62.3286 104.726C63.1571 104.545 63.5036 105.562 63.1797 106.232C63.1044 106.383 63.2325 106.368 63.3906 106.323C63.3906 106.323 76.949 102.308 77.5365 102.12C78.124 101.931 77.8453 102.609 64.3171 74.5737ZM64.6184 81.2097C64.4979 81.2549 50.4876 85.9024 48.8004 86.3996C48.1752 86.3318 48.2957 86.6707 44.8082 79.417C44.3412 78.4529 43.7235 78.9048 60.8899 73.1952C61.5678 72.9693 61.5377 73.1953 62.4792 75.1235C65.0252 80.351 65.5826 80.8783 64.6184 81.2097Z" fill="#79E1CF"/>
<path d="M105.234 118.541C105.987 119.664 106.161 117.901 99.9011 126.737C99.2227 127.655 98.4881 128.53 97.7017 129.358C96.6396 130.586 95.7884 131.957 94.1087 133.245C90.1768 136.258 87.2316 135.504 83.8044 131.49C83.2855 130.607 82.9165 129.645 82.7122 128.642C82.2226 126.661 81.3488 126.112 80.7387 123.867C79.1418 117.999 80.8818 89.6471 81.04 89.504C81.6878 88.909 80.6784 89.2027 79.2247 87.3046C78.0421 85.7981 78.592 84.1861 76.2117 80.3145C76.1642 80.2097 76.0933 80.1173 76.0046 80.0441C75.9158 79.971 75.8114 79.9192 75.6995 79.8927C75.24 79.8173 75.6166 80.4124 75.8276 80.8794C76.1439 81.5649 75.4961 81.128 75.3756 81.1205C75.0668 81.0828 74.8559 81.4368 75.9104 82.0545C76.0385 82.1298 76.385 82.1373 76.4753 82.2578C76.5638 82.426 76.6273 82.6062 76.6637 82.7926C76.6637 82.8981 76.6637 82.9282 76.5657 82.9358C75.7372 83.0337 75.3756 83.2069 74.6902 82.6269C74.2985 82.2955 73.598 81.5423 73.613 81.0301C73.6507 79.5236 73.3946 78.7703 74.6902 78.0171C75.1948 77.7384 75.2852 77.2639 75.3154 76.7065C75.3681 75.6821 76.4 76.2395 76.8218 74.9062C77.4244 73.0081 80.1813 74.6802 79.7821 73.6182C78.5618 70.4169 74.7354 68.3455 75.2626 67.4265C75.7598 66.6206 77.5751 68.1195 78.0421 68.6619C79.5034 70.3114 82.1849 72.5561 82.4259 74.1228C82.5766 75.0644 83.2319 75.3883 83.8872 77.5878C85.0698 81.5347 86.4106 83.2145 86.5688 87.5757C86.8173 94.3549 93.8149 120.372 93.8225 120.394C94.0183 120.801 94.4853 120.628 94.4627 120.206C94.1916 115.152 91.3744 109.578 92.0674 109.54C93.2099 109.461 94.3531 109.685 95.3817 110.188C96.0747 110.708 100.353 114.512 100.73 114.866C102.372 116.327 104.112 116.824 105.234 118.541Z" fill="#FFC6A6"/>
<path d="M96.7075 54.6427C99.8862 51.9536 103.645 54.138 100.474 59.2148C99.841 60.2167 99.2083 61.0829 96.4439 62.2278C92.8509 63.7343 92.4216 54.5372 92.3538 71.2667C92.3538 76.0121 92.866 77.4357 99.5322 80.6671C99.7958 80.7952 97.4834 82.5201 97.4683 82.5276C93.4535 85.405 95.8112 84.0341 91.367 85.8193C90.6138 86.1055 87.5029 87.3936 87.4502 86.919C86.8476 81.8799 85.6424 80.7274 84.8138 77.7747C84.0606 75.1685 83.217 74.5056 83.1416 73.6319C83.0362 72.3514 80.1287 69.8657 79.7747 69.4137C79.6466 69.2631 79.6617 69.2028 79.85 69.135C88.339 66.3706 87.051 64.2691 86.1923 64.7738C84.4448 65.7906 76.6186 68.5927 72.9729 64.4122C68.9732 59.8174 68.8828 51.6598 70.5399 52.172C71.2248 52.3235 71.938 52.2842 72.6021 52.0584C73.2662 51.8327 73.8556 51.4291 74.3061 50.8915C74.743 50.4547 74.3061 52.1193 76.4152 52.5035C76.8521 52.5863 77.0178 52.0515 76.7542 51.9235C76.1139 51.5996 75.5113 51.4489 75.1648 50.3718C74.8937 49.5357 77.4999 50.2061 77.4246 48.2477C77.4246 47.7279 76.9199 47.7129 76.8069 48.1799C76.6035 48.9858 76.8069 48.8653 75.6017 49.0913C75.4963 49.0913 75.4661 49.0913 75.5038 48.9632C76.1666 46.8768 75.9557 46.2817 76.6336 45.777C76.9273 45.6054 77.2616 45.5158 77.6017 45.5176C77.9418 45.5194 78.2752 45.6126 78.5669 45.7873C78.8587 45.9621 79.0982 46.212 79.2603 46.511C79.4224 46.81 79.5012 47.147 79.4884 47.4869C79.5864 49.95 81.9741 53.558 84.7611 53.4526C88.7081 53.2944 89.8455 49.2269 90.5611 48.7825C91.0356 48.4812 91.5327 48.6695 93.5364 49.8973C94.1239 50.2513 92.414 53.8216 95.201 55.0419C95.4948 55.1699 94.8545 55.5616 95.5701 55.7951C95.653 55.8855 96.0597 55.185 96.7075 54.6427ZM100.316 57.0079C100.42 56.7974 100.463 56.562 100.441 56.3282C100.418 56.0944 100.33 55.8716 100.188 55.6851C100.045 55.4985 99.853 55.3556 99.6333 55.2726C99.4136 55.1895 99.1751 55.1696 98.9446 55.2151C97.7244 55.4788 96.3911 57.0304 97.0389 58.2884C97.2574 58.7177 97.0389 59.6065 96.587 59.712C95.6906 59.9078 95.6304 59.486 95.4119 59.8928C95.1935 60.2995 95.6756 60.646 96.1652 60.646C97.7169 60.646 98.2366 58.8684 97.7395 57.9117C97.6756 57.8074 97.6381 57.6891 97.6303 57.5671C97.6224 57.445 97.6444 57.3229 97.6943 57.2112C98.0106 56.458 99.5849 55.0344 99.7355 57.053C99.7732 57.264 100.157 57.3393 100.316 57.0079ZM76.5433 57.859C76.5433 57.5878 76.3775 56.7969 75.7448 56.7819C74.9916 56.7819 74.8786 57.9042 75.4209 58.4541C75.7448 58.793 76.3625 58.8684 76.5433 57.859Z" fill="#FFC6A6"/>
<path d="M64.371 113.999C66.5704 115.505 66.2315 114.067 65.1694 121.207C64.6549 124.288 63.9326 127.331 63.0076 130.314C62.7967 130.932 63.1131 128.544 63.0076 126.013C62.9022 122.578 59.3619 116.839 58.9853 116.974C58.2321 117.223 59.7386 118.104 61.5765 123.196C62.8344 126.766 62.1715 131.677 61.2902 132.988C60.1453 134.675 59.151 135.391 56.2661 134.954C54.972 134.759 53.7647 134.185 52.7968 133.304C51.8288 132.423 51.1436 131.275 50.8277 130.005C50.421 128.333 49.7581 126.405 50.0745 124.379C51.581 113.532 50.6771 118.556 52.5602 121.147H52.8991C52.7937 120.326 52.7184 120.394 51.709 117.08C51.3927 116.025 51.3851 115.874 51.0537 115.664C49.6301 114.775 49.8937 114.632 49.615 113.125C49.4418 112.214 48.3194 112.455 48.4625 111.174C48.5017 110.813 48.4482 110.448 48.3072 110.113C48.1662 109.779 47.9423 109.485 47.6566 109.261C47.1368 108.771 47.2574 107.325 48.1612 106.384C49.7732 104.711 49.954 103.966 51.5207 102.806C51.7693 102.617 51.8295 102.685 54.1495 102.143C54.6542 102.022 54.3454 101.902 55.4074 101.714C58.2471 101.201 58.9627 100.207 58.9326 100.84C58.8676 101.349 58.6619 101.831 58.3385 102.23C58.0152 102.629 57.5871 102.93 57.1022 103.1C56.4916 103.455 55.8453 103.745 55.1739 103.966C50.6545 104.99 50.8955 108.018 51.6337 107.152C52.5978 106.022 52.4547 105.789 52.8163 106.451C53.0874 106.949 52.9519 106.723 52.063 107.521C51.3098 108.199 48.794 110.233 50.0142 110.052C50.1875 110.052 50.2854 109.939 51.8823 108.598C53.0196 107.634 53.4791 106.768 57.1549 106.73C59.2715 106.73 60.9211 105.758 62.3598 105.48C62.9097 105.367 62.7666 107.129 58.91 108.169C58.0685 108.506 57.1954 108.758 56.3038 108.922C55.5986 108.957 54.9186 109.195 54.3454 109.608C53.8181 110.105 53.4264 110.361 53.6976 110.639C53.7955 110.745 53.8859 110.828 54.029 110.677C54.9404 109.728 55.882 109.773 57.7952 109.389C58.3677 109.276 58.2471 108.99 59.1586 108.899C60.0909 108.739 61.0138 108.528 61.923 108.267C62.6762 108.267 62.0962 109.864 58.1567 111.385C56.2511 112.138 55.3547 112.342 54.6843 113.344C54.5035 113.615 54.3529 114.021 54.6843 114.172C55.2342 114.421 54.9028 113.268 56.8687 112.553C57.2077 112.432 57.2905 112.402 57.411 113.909C57.6671 117.178 56.462 118.609 56.364 119.934C56.364 120.115 56.5749 120.349 56.8009 120.07C57.143 119.333 57.4472 118.579 57.7123 117.81C59.3996 112.764 55.4526 111.122 60.7253 112.741C63.1131 113.479 63.4445 113.366 64.371 113.999Z" fill="#FFC6A6"/>
<path d="M52.1755 98.7007C53.1999 98.4672 52.3487 100.682 50.4732 101.714C48.9667 102.565 48.816 102.648 48.6051 102.904C48.3942 103.16 48.6051 103.484 48.801 103.416C50.0363 103.054 52.0851 100.847 47.882 105.676C46.8877 106.821 47.0384 106.903 46.9028 105.894C46.9118 105.511 46.947 105.128 47.0083 104.749C47.1966 103.853 46.2098 101.736 47.2644 101.066C48.629 100.236 50.0784 99.5541 51.588 99.0321C51.7695 98.898 51.9668 98.7867 52.1755 98.7007Z" fill="#FFC6A6"/>
<path d="M70.8853 42.886C70.8853 42.7806 71.4878 39.873 72.226 38.811C72.9642 37.7489 75.4951 35.0448 75.4951 35.0448C75.4951 35.0448 77.3782 36.024 77.5514 34.2915C77.5514 34.2915 78.2595 34.9619 79.0579 33.7191C79.8563 32.4762 81.9428 32.6043 82.6961 32.9357C83.4493 33.2671 85.5207 33.6437 86.6656 35.5645C87.8106 37.4853 91.735 44.1816 92.4355 45.1457C93.136 46.1099 95.358 48.9119 93.7084 49.3865L90.6955 47.6691C90.6955 47.6691 89.6485 44.6034 87.0197 44.1665C84.3909 43.7296 81.2649 43.466 79.9844 45.673C79.9844 45.673 77.461 44.1665 75.706 45.7709C75.706 45.7709 75.3068 43.4133 73.1148 43.0442C70.9229 42.6751 70.8853 42.886 70.8853 42.886Z" fill="#FFC6A6"/>
<path d="M20.4412 57.3319L20.0872 55.2002L21.782 56.6314L23.9664 55.6069L23.2282 58.0399L24.7799 60.2996L22.1888 59.8552L21.1643 62.1451L20.509 59.3957L18.2568 58.3261L20.4412 57.3319Z" fill="#FFEAB6"/>
<path d="M128.931 56.6922C125.414 59.4942 125.037 64.8649 123.267 63.5768C121.241 62.0703 119.945 60.4961 119.885 58.2363C119.885 57.6111 119.546 57.001 118.943 57.227C118.454 57.4405 117.95 57.6217 117.437 57.7693C115.712 58.2213 115.78 56.6545 114.981 57.3852C114.659 57.6075 114.359 57.8597 114.085 58.1384C113.836 58.3644 113.957 58.2363 113.384 57.807C112.812 57.3776 111.983 57.9652 112.096 58.2966C112.151 58.3772 112.232 58.4367 112.325 58.4654C112.418 58.4942 112.518 58.4904 112.609 58.4548C113.053 58.2589 113.121 58.6807 113.573 59.0423C114.326 59.6524 114.921 57.6639 115.569 58.1233C116.646 58.8766 117.136 58.6205 118.778 58.0631C119.794 57.7241 117.844 59.9763 121.919 63.4337C124.178 65.3695 124.563 64.7594 126.333 61.2192C126.98 59.9236 128.253 57.8145 129.406 57.1065C129.88 56.8127 130.438 56.6621 131.598 57.4831C134.317 59.4114 133.104 59.901 132.75 60.7371C132.69 60.8877 133.014 61.1589 133.157 60.9631C134.053 59.7353 133.805 60.1194 133.993 59.5244C133.669 57.6563 130.619 55.3514 128.931 56.6922Z" fill="#000001"/>
<path d="M127.801 47.0878C127.741 46.7112 127.62 46.3346 127.545 45.9655C127.536 45.8763 127.5 45.7918 127.442 45.7233C127.384 45.6547 127.307 45.6052 127.221 45.5813C126.927 45.491 126.889 45.6567 125.88 46.8543C124.984 47.9164 125.518 47.7356 123.319 47.1933C123.198 47.2148 123.083 47.2632 122.982 47.3349C122.882 47.4065 122.799 47.4997 122.739 47.6076C122.588 47.826 122.603 47.9089 123.274 48.9935C123.846 49.92 124.027 49.694 123.756 50.0933C122.332 52.2249 121.692 52.9254 124.313 51.9688C125.82 51.4265 125.76 51.3436 125.978 51.5621C126.995 52.5789 128.396 54.2963 128.479 52.8576C128.514 52.2932 128.427 51.7278 128.223 51.2005C128.117 50.6582 130.189 50.3795 130.309 49.6036C130.319 49.57 130.322 49.5346 130.318 49.4997C130.314 49.4648 130.303 49.4311 130.285 49.4008C130.268 49.3704 130.244 49.344 130.216 49.3231C130.187 49.3023 130.155 49.2876 130.121 49.2798C127.251 48.2629 128.14 49.2572 127.801 47.0878ZM127.838 50.4548C127.085 51.0122 127.793 51.4792 127.733 52.2626C127.145 52.014 126.483 50.7561 125.609 50.7561C124.035 51.2834 123.937 51.5093 123.658 51.5093C123.748 50.9444 125.074 49.7995 124.321 49.1894C124.027 48.9634 123.296 47.8863 123.665 47.9691C125.127 48.3081 125.119 48.3759 125.398 48.18C126.867 47.1707 126.904 45.619 127.176 47.7431C127.409 49.6564 126.935 48.873 129.051 49.6413C129.398 49.7844 128.313 50.1083 127.838 50.4548Z" fill="#000001"/>
<path d="M118.401 34.8413C118.461 37.8542 120.351 39.3607 117.188 38.954C112.337 38.3212 111.365 37.1537 111.825 40.6789C111.885 41.1534 111.908 41.0028 109.565 41.9519C108.39 42.4339 108.925 43.029 109.565 42.7804C111.704 41.9067 112.646 41.7786 112.578 40.8446C112.427 39.195 112.216 38.9012 112.842 39.0067C117.067 39.6846 117.783 39.8428 118.544 39.7599C121.511 39.4436 117.73 34.7208 119.756 33.734C121.18 33.026 121.655 34.1558 128.486 36.875C128.863 37.0257 129.24 37.1763 129.36 36.8223C129.481 36.4683 129.134 36.4457 128.946 36.3704C122.167 33.5909 122.86 33.4553 121.414 32.9808C121.095 32.8319 120.745 32.7645 120.394 32.7848C120.043 32.8051 119.703 32.9123 119.404 33.0969C119.105 33.2815 118.857 33.5376 118.682 33.8422C118.507 34.1467 118.41 34.4901 118.401 34.8413Z" fill="#000001"/>
<path d="M121.322 25.6126C120.758 26.5391 119.447 28.5578 120.66 28.2565C121.112 28.151 121.978 27.9853 122.166 27.91C123.319 27.5183 123.356 27.3601 123.514 27.5258C125.021 29.0323 126.098 30.6819 126.023 27.9251C125.977 26.6295 125.691 26.4186 126.06 26.2755C126.55 26.0646 127.522 25.5222 127.793 25.4544C128.719 25.1757 128.764 24.5731 128.365 24.3924C127.966 24.2116 126.859 24.0007 126.173 23.7069C125.081 23.2173 125.548 23.8877 124.848 21.1158C124.831 21.0333 124.789 20.9581 124.727 20.901C124.665 20.8439 124.587 20.8078 124.504 20.7978C124.42 20.7877 124.336 20.8044 124.262 20.8452C124.189 20.8861 124.13 20.9492 124.094 21.0254C124.004 21.1459 123.688 21.5978 122.723 23.0139C122.498 23.3529 120.336 22.2155 119.982 22.6373C119.093 23.6693 121.616 25.1305 121.322 25.6126ZM122.226 23.6994C122.98 23.9178 122.844 23.8124 124.215 21.9669C124.652 21.3719 124.373 24.0609 125.39 24.1513C125.736 24.1513 126.234 24.5731 127.04 24.7539C127.104 24.7774 127.165 24.8104 127.22 24.8518C127.183 24.9046 127.153 24.9724 127.1 24.995C125.202 25.9742 125.074 25.8536 125.187 26.5014C125.473 28.2866 125.405 28.0079 125.36 28.3167C123.349 26.4939 124.147 26.7274 123.853 26.6747C123.296 26.5918 122.256 27.217 121.255 27.4279C120.908 27.4279 121.044 27.3526 121.91 25.9214C122.844 24.3773 118.189 22.5469 122.226 23.6994Z" fill="#000001"/>
<path d="M103.517 27.3383C103.483 27.6324 103.511 27.9303 103.599 28.2129C103.688 28.4955 103.834 28.7565 104.029 28.9792C104.224 29.2019 104.463 29.3813 104.732 29.5061C105 29.6308 105.292 29.698 105.588 29.7035C106.688 29.8014 107.132 28.8598 107.546 28.9502C108.473 29.131 109.211 28.1066 109.241 27.376C109.241 26.9918 109.527 26.7357 109.678 26.3666C109.829 25.9975 109.633 25.764 109.829 25.7038C110.117 25.5055 110.349 25.2365 110.504 24.9226C110.658 24.6087 110.729 24.2603 110.71 23.911C110.71 23.8131 110.966 23.4666 110.71 23.1578C110.657 23.09 110.913 22.6833 110.974 22.623C111.034 22.5627 118.205 23.1352 119.463 16.8155C121.301 7.58079 106.469 3.84472 103.705 12.7179C102.198 17.4934 106.115 20.0243 105.882 20.5139C105.272 21.7718 104.88 21.2672 104.654 21.817C104.051 23.2105 104.654 23.0373 104.33 23.2105C103.245 23.7679 103.848 24.4534 103.471 24.717C103.177 24.9329 102.978 25.2539 102.915 25.6131C102.852 25.9724 102.93 26.3421 103.132 26.6453C103.426 26.9918 103.577 27.0671 103.517 27.3383ZM105.641 28.9276C104.767 28.7167 104.661 28.7017 104.134 27.6321C104.066 27.4965 104.232 27.5191 104.375 27.5793C106.454 28.438 107.034 28.5736 105.641 28.9276ZM105.294 18.5329C101.671 12.7857 106.801 8.16832 110.77 8.38676C120.103 8.33403 122.114 20.6119 112.412 21.7191C111.147 21.8698 110.906 21.5082 110.514 22.0129C109.806 23.0147 110.266 23.4666 109.686 23.316C108.501 23.0135 107.373 22.5253 106.341 21.8698C105.385 21.2898 107.094 21.1165 106.597 20.0394C106.1 18.9623 106.108 19.7833 105.294 18.5329ZM105.332 21.9677C109.324 24.9806 110.906 23.429 109.701 24.83C109.475 25.0936 108.601 24.6492 108.269 24.5287C106.688 23.9336 103.999 23.0749 105.362 21.9677H105.332ZM104.413 23.911C104.533 23.8207 104.473 23.5646 104.646 23.5796C104.948 23.5796 104.548 23.896 106.545 24.6944C108.541 25.4929 108.714 25.5832 109.106 25.6209C109.497 25.6586 109.06 26.4871 108.307 26.4721C107.087 26.0502 103.441 24.7095 104.443 23.911H104.413ZM103.66 25.4175C103.991 24.9053 103.72 25.4929 105.437 26.231C107.298 27.037 107.968 27.3383 108.45 27.278C108.578 27.278 108.571 27.3684 108.518 27.4362C108.209 27.8505 107.855 28.4606 107.275 28.0915C105.806 27.0671 102.899 26.6453 103.705 25.3874L103.66 25.4175Z" fill="#000001"/>
<path d="M118.407 72.5343C117.82 72.1576 118.046 72.1124 118.174 71.555C118.694 69.2953 118.671 69.4535 118.641 69.2953C118.637 69.2316 118.616 69.1701 118.58 69.1176C118.543 69.0652 118.493 69.0238 118.434 68.9981C118.376 68.9724 118.312 68.9633 118.248 68.9719C118.185 68.9805 118.125 69.0064 118.076 69.0467C117.323 69.6418 116.464 69.9958 115.696 70.5532C115.342 70.7943 114.152 69.5891 113.88 69.6945C113.481 69.8602 113.187 70.0561 113.315 70.5457C113.85 72.4815 113.685 72.2782 113.406 72.4589C112.585 72.9862 111.899 73.2122 111.952 73.8826C111.952 74.4249 113.594 74.3872 114.212 74.3948C114.829 74.4023 114.701 74.6659 114.912 75.0124C115.854 76.5641 116.419 77.4604 116.886 75.6979C117.293 74.2366 116.788 74.3948 119.289 74.3119C120.358 74.229 119.552 73.2649 118.407 72.5343ZM117.873 73.6264C116.991 73.7394 116.622 73.762 116.524 74.2968C116.444 74.7323 116.32 75.1588 116.155 75.5698C116.116 75.5412 116.081 75.5083 116.05 75.4719C114.543 73.2574 115.711 73.8298 112.946 73.6039C112.396 73.6039 113.91 73.0916 114.355 72.0974C114.521 71.7283 113.745 70.3499 114.182 70.5909C115.507 71.2914 115.078 71.0353 115.244 71.1332C115.741 71.4421 117.217 70.2293 117.782 70.0636C117.986 71.3065 116.554 72.0597 117.903 73.0088C118.852 73.6641 118.724 73.521 117.873 73.6264Z" fill="#000001"/>
<path d="M110.009 82.7242C107.87 81.5943 106.145 82.438 103.509 80.9465C102.751 80.4161 101.831 80.1706 100.91 80.2536C100.27 80.4193 94.7109 77.9938 93.5133 75.3575C93.2598 74.6699 93.1273 73.9436 93.1216 73.2108C93.0689 72.6383 95.886 75.0939 98.6127 73.7531C98.6833 73.7284 98.7454 73.6839 98.7915 73.625C98.8377 73.5661 98.866 73.4952 98.8731 73.4208C98.8803 73.3463 98.8659 73.2713 98.8318 73.2047C98.7976 73.1381 98.7451 73.0827 98.6805 73.045C97.6929 72.6306 96.8604 71.9166 96.3003 71.0038C96.2099 70.8531 96.1044 70.5518 96.4509 70.7853C99.5166 72.8718 103.539 70.6422 102.311 70.0321C101.219 69.7553 100.25 69.125 99.5543 68.2394C99.4036 68.0511 99.5543 68.0812 99.6447 68.1339C101.904 69.1433 105.083 69.0001 106.876 67.2752C107.81 66.3713 104.812 65.9872 104.157 62.462C103.501 58.9368 105.663 56.6244 106.04 50.606C106.236 47.4725 103.9 41.665 102.424 39.4957C98.4093 33.6054 92.632 30.728 85.4235 28.6792C83.7169 28.2864 81.9384 28.3356 80.2562 28.8223C79.9549 28.9428 80.0227 29.4399 80.3843 29.3872C82.9858 28.8128 85.7056 29.1478 88.0899 30.3363C91.0276 31.7223 96.8351 33.0329 101.242 39.2321C110.913 52.7904 98.9818 59.5696 104.955 65.7612C106.213 67.0643 106.394 66.8534 105.799 67.2074C104.732 67.8042 103.519 68.0896 102.298 68.031C101.076 67.9724 99.8963 67.5722 98.8914 66.876C98.4244 66.5747 97.9423 66.876 98.1909 67.4409C99.2379 69.9718 101.784 70.3032 101.129 70.5292C97.6636 71.6967 96.2626 69.5726 95.773 69.3014C94.7335 68.744 94.5452 71.0038 97.4075 73.1806C98.0026 73.6326 93.0011 73.2484 93.0463 71.6139C93.4605 57.8446 92.1348 63.8856 96.1346 63.3282C99.4563 62.8537 103.29 58.1459 102.371 54.8242C101.754 52.6172 99.7124 52.8733 99.2002 52.5042C94.2364 48.9413 91.6 47.8416 90.1614 45.5819C88.459 42.9154 82.1092 41.9965 79.8721 45.1375C79.7892 45.258 79.7214 45.2881 79.6085 45.1375C79.4015 44.8893 79.146 44.6862 78.8575 44.5406C78.5691 44.395 78.2539 44.31 77.9313 44.291C77.6088 44.2719 77.2857 44.3191 76.9821 44.4298C76.6785 44.5404 76.4008 44.712 76.1661 44.9341C76.0682 45.0396 76.023 45.0396 75.9854 44.8889C75.5937 43.277 73.4017 42.5162 71.6015 42.4183C71.3228 42.4183 71.2701 42.5162 71.9932 40.6406C72.1288 40.2941 72.9121 40.2188 74.0721 41.0474C75.1191 41.6952 74.3885 39.2697 72.7238 39.3074C71.9706 39.3074 74.9233 36.076 75.3828 35.5412C75.6238 35.27 75.6916 35.737 76.2867 35.7898C76.5352 35.7898 76.6934 35.3981 76.3921 35.1646C72.528 32.1516 76.6256 25.96 80.2713 27.9561C81.0245 28.3854 81.3936 27.587 80.663 27.2028C78.0869 25.9449 75.1719 27.6623 74.3584 30.4794C74.2529 30.8259 74.2303 30.4267 72.4753 30.8334C71.6892 31.019 70.9663 31.4096 70.3802 31.9653C69.7941 32.5209 69.3656 33.222 69.1384 33.997C69.0364 34.3527 68.8383 34.6732 68.5659 34.9235C66.8335 36.7916 67.6621 39.1718 69.6355 39.7669C69.7787 39.8121 70.3436 39.8799 70.3888 39.6162C70.5093 39.1793 70.1553 39.1718 69.8766 39.089C67.2402 38.2981 68.7844 34.7503 69.0781 36.0082C69.3719 37.2661 71.0742 38.8479 71.4433 38.2001C71.8124 37.5523 68.7618 36.769 69.8916 33.9443C70.7805 31.6846 74.1475 30.9314 74.1399 31.8127C74.0947 34.5996 75.33 34.8256 75.0287 35.142C73.5223 36.7162 72.769 37.2736 71.8425 39.2321C71.7757 39.4011 71.6499 39.5402 71.4885 39.6238C70.3511 40.151 69.9293 41.8835 70.3662 41.6274C71.3002 41.0022 70.9989 41.0398 70.7654 42.2074C70.6524 42.7572 69.8992 42.2526 68.001 43.277C64.619 45.145 66.261 49.5816 69.1384 51.5476C70.2306 52.3008 66.9841 53.3478 70.208 61.0836C70.2231 61.1085 70.2319 61.1367 70.2338 61.1658C70.2356 61.1949 70.2304 61.224 70.2186 61.2506C70.2067 61.2773 70.1886 61.3007 70.1658 61.3188C70.143 61.3369 70.1161 61.3492 70.0875 61.3547C68.9028 61.888 67.6204 62.1701 66.3213 62.1833C65.8693 62.1381 65.8844 62.6353 66.02 62.9968C67.1423 66.0098 70.2532 66.2885 69.6657 66.635C67.293 68.0511 67.3457 67.7874 66.713 67.9381C66.5963 67.9495 66.4889 68.0066 66.4141 68.0969C66.3393 68.1872 66.3033 68.3034 66.3138 68.4202C66.261 69.0303 66.7356 69.3768 67.3984 69.8513C70.2306 71.87 73.0176 70.6045 73.1607 70.7401C72.9377 71.4995 72.5778 72.2117 72.0986 72.8417C71.0592 74.1598 74.0194 74.3482 76.4825 72.7965C76.527 72.7853 76.5736 72.7853 76.6181 72.7965C76.5336 73.3437 76.4128 73.8847 76.2565 74.4159C75.895 75.6136 74.9836 75.1692 74.6371 76.412C74.3282 77.5645 68.4831 79.1764 67.7223 79.6585C67.4737 79.8092 67.6545 79.9221 65.3797 75.2746C62.1559 68.7139 62.3668 68.7214 61.5382 69.0001C59.6099 69.6178 60.2803 69.9417 59.0751 67.4937C58.4575 66.2357 44.3643 69.9116 40.0407 75.0562C39.1293 76.1861 39.6792 76.4648 39.988 76.1861C40.1612 76.0354 41.3664 73.6552 48.1456 70.7251C51.3615 69.3313 54.7562 68.3932 58.2315 67.9381C58.6232 67.8929 58.465 67.7799 59.2408 69.4973C59.4367 69.9342 40.6056 75.7417 40.1386 76.3367C39.6716 76.9318 38.6322 76.7435 38.9485 76.5024C39.0185 76.4548 39.0676 76.3823 39.0858 76.2997C39.104 76.2171 39.0899 76.1306 39.0464 76.058C37.54 72.5705 35.8226 72.2918 36.0335 71.5386C36.0335 71.3955 35.3706 69.8362 35.4911 69.6103C35.6117 69.3843 39.167 72.5479 39.0464 74.6344C39.0464 75.1617 39.8901 75.3876 39.7545 74.4235C39.3703 71.5988 35.6117 67.7573 34.6174 68.9775C34.4441 69.1809 35.1748 70.6648 35.1898 71.1092C34.7078 70.9661 32.0639 68.8495 31.2278 69.8965C31.0395 70.1225 31.1299 70.1526 32.3049 72.3219C32.5987 72.8718 31.7551 72.2541 30.919 71.757C28.4107 70.2505 29.4125 71.7043 30.7457 74.5289C45.5921 105.103 46.7747 106.918 46.624 107.762C46.5475 108.212 46.5884 108.675 46.7428 109.105C46.8972 109.535 47.1598 109.918 47.5053 110.217C47.6221 110.338 47.7063 110.486 47.7498 110.648C47.7933 110.811 47.7947 110.981 47.7539 111.144C47.671 113.004 49.0043 112.703 48.9892 113.743C48.9972 114.449 49.2654 115.127 49.7425 115.648C50.8874 116.484 50.3978 114.85 49.3809 124.19C49.0947 126.804 49.9082 128.936 50.3526 130.555C51.2941 133.929 54.872 135.782 57.3577 135.828C57.6138 135.828 57.7193 135.737 57.3577 136.86C56.2053 140.468 57.6665 141.213 55.9341 143.428C55.6277 143.873 55.4504 144.395 55.4219 144.934C55.4315 145.006 55.4657 145.073 55.5186 145.123C55.5715 145.172 55.6399 145.203 55.7124 145.208C55.7848 145.213 55.8569 145.193 55.9165 145.152C55.9761 145.11 56.0195 145.049 56.0395 144.98C56.4011 143.631 57.546 143.044 57.5912 141.161C57.5912 140.829 57.6364 138.75 57.7117 138.434C58.3821 135.534 58.239 135.835 58.6232 135.775C61.0712 135.383 61.5909 134.012 62.9694 132.144C63.9335 130.834 65.9823 122.096 66.6226 115.942C66.6226 115.701 66.6226 115.452 66.841 115.287C67.0595 115.121 68.1441 108.395 68.1215 107.754C68.1215 107.506 67.6846 107.408 67.5943 107.634C67.3457 108.229 66.9691 111.92 66.4945 114.368C66.4418 114.669 66.3213 114.481 65.1914 113.682C63.6849 112.613 63.4665 112.869 61.5909 112.334C58.578 111.453 59.3312 111.897 61.0109 110.828C63.2707 109.366 63.12 108.003 62.8639 107.679C62.6078 107.355 61.7943 107.543 62.8639 107.235C72.8293 104.35 76.6482 103.265 78.0116 102.715C78.9531 102.354 78.7648 102.248 78.5389 102.007C78.5389 102.007 77.1077 99.0996 67.9935 80.5473C67.8579 80.2611 67.775 80.3666 69.5828 79.7941C69.7033 79.7941 69.741 79.7941 69.7636 79.9221C70.2128 81.8919 71.2662 83.6722 72.7766 85.014C76.8215 88.4112 78.3053 87.2286 78.6142 87.7483C81.1827 92.1246 79.8721 81.8655 79.3674 113.464C79.3674 125.478 80.4295 124.763 81.8606 128.28C81.9736 128.544 82.6139 131.293 83.0583 131.783C87.4648 137.003 90.9899 136.912 94.8616 133.756C98.108 131.112 103.554 122.563 103.976 122.887C104.398 123.211 105.091 123.241 105.753 123.693C106.65 124.303 108.051 124.898 109.083 124.597C109.934 124.348 109.708 124.936 114.129 111.942C114.363 111.249 113.926 117.592 112.45 123.369C110.416 131.308 107.177 135.843 107.93 138.871C108.232 140.046 107.712 140.468 107.93 142.396C108.684 147.97 108.314 147.616 108.917 147.669C109.52 147.721 108.849 143.337 108.797 143.081C108.337 140.739 108.932 140.068 108.623 138.773C107.825 135.466 112.216 130.148 114.167 118.533C115.026 113.449 114.371 111.468 116.11 106.549C118.28 100.463 119.681 96.1771 118.664 89.7595C117.911 85.0668 116.457 86.1288 110.009 82.7242ZM39.4607 77.4515C41.8108 77.4515 38.1576 72.2542 51.038 98.1129C51.264 98.5724 50.4354 98.8285 49.9534 98.9189C49.6671 98.7306 50.2999 99.7776 43.4002 85.8803C39.0088 77.09 39.0088 77.444 39.4607 77.444V77.4515ZM32.0187 70.4539C33.0205 70.3334 37.2914 73.2484 38.3233 76.1559C36.5684 75.2831 34.8836 74.2758 33.2841 73.143C33.141 72.5328 32.1468 70.8908 32.0187 70.4464V70.4539ZM46.2775 104.832C46.029 104.47 30.4595 72.578 30.354 72.3144C30.4746 72.2692 30.0678 72.0658 36.6662 76.0053C38.7828 77.2707 37.555 75.6663 41.1329 82.9276C49.524 99.9508 49.3658 99.1674 49.0043 99.2955C44.4924 100.84 46.737 103.8 46.2775 104.824V104.832ZM46.9027 105.916C46.9117 105.533 46.947 105.15 47.0082 104.772C47.1965 103.875 46.2098 101.759 47.2643 101.088C48.629 100.258 50.0784 99.5765 51.5879 99.0545C51.7686 98.915 51.966 98.7986 52.1754 98.708C53.1998 98.482 52.3487 100.689 50.4731 101.721C48.9666 102.572 48.816 102.655 48.6051 102.911C48.3942 103.167 48.6051 103.491 48.8009 103.423C50.0362 103.062 52.085 100.855 47.882 105.683C46.8877 106.835 47.0383 106.911 46.9027 105.909V105.916ZM52.6726 101.397C52.8006 101.713 52.7554 101.661 51.5804 101.894C51.5804 101.894 51.5804 101.894 51.5804 101.834C52.2357 101.435 52.3336 100.983 52.4617 101.013C52.5897 101.043 52.5671 101.164 52.6726 101.42V101.397ZM58.8793 108.131C58.0377 108.468 57.1647 108.72 56.2731 108.884C55.5679 108.919 54.8879 109.157 54.3146 109.57C53.7874 110.067 53.3957 110.323 53.6668 110.602C53.7648 110.707 53.8552 110.79 53.9983 110.639C54.9097 109.69 55.8512 109.735 57.7645 109.351C58.3369 109.238 58.2164 108.952 59.1278 108.862C60.0602 108.701 60.983 108.49 61.8922 108.229C62.6455 108.229 62.0655 109.826 58.126 111.347C56.2128 112.101 55.324 112.304 54.6536 113.306C54.4728 113.577 54.3222 113.984 54.6536 114.134C55.2034 114.383 54.872 113.23 56.838 112.515C57.1769 112.394 57.2598 112.364 57.3803 113.871C57.6364 117.14 56.4312 118.571 56.3333 119.897C56.3333 120.077 56.5442 120.311 56.7702 120.032C56.9962 119.754 57.6063 117.968 57.6816 117.772C59.3689 112.726 55.4219 111.084 60.6946 112.703C63.1125 113.456 63.4138 113.328 64.3403 113.961C66.5397 115.468 66.2008 114.029 65.1387 121.17C64.6242 124.25 63.9019 127.293 62.9769 130.276C62.766 130.894 63.0823 128.506 62.9769 125.975C62.8714 122.54 59.3312 116.801 58.9546 116.936C58.2014 117.185 59.7078 118.066 61.5457 123.158C62.8036 126.729 62.1408 131.64 61.2595 132.95C60.1146 134.638 59.1203 135.353 56.2354 134.916C54.9413 134.721 53.734 134.147 52.7661 133.266C51.7981 132.385 51.1129 131.237 50.797 129.967C50.3902 128.295 49.7274 126.367 50.0438 124.341C51.5502 113.494 50.6463 118.518 52.5294 121.109H52.8684C52.763 120.288 52.6876 120.356 51.6783 117.042C51.3619 115.987 51.3544 115.837 51.023 115.626C49.5993 114.737 49.863 114.594 49.5843 113.087C49.411 112.176 48.2887 112.417 48.4318 111.136C48.4709 110.775 48.4175 110.41 48.2765 110.075C48.1355 109.741 47.9116 109.447 47.6258 109.223C47.1061 108.734 47.2266 107.287 48.1305 106.346C49.7425 104.674 49.9232 103.928 51.49 102.768C51.7385 102.58 51.7988 102.647 54.1188 102.105C54.6235 101.985 54.3146 101.864 55.3767 101.676C58.2164 101.164 58.932 100.169 58.9019 100.802C58.8368 101.311 58.6311 101.793 58.3078 102.192C57.9845 102.591 57.5564 102.892 57.0715 103.062C56.4609 103.417 55.8146 103.708 55.1432 103.928C50.6237 104.952 50.8648 107.98 51.603 107.114C52.5671 105.984 52.424 105.751 52.7855 106.414C53.0567 106.911 52.9211 106.685 52.0323 107.483C51.2791 108.161 48.7632 110.195 49.9835 110.014C50.1567 110.014 50.2547 109.901 51.8515 108.56C52.9889 107.596 53.4484 106.73 57.1242 106.692C59.2408 106.692 60.8904 105.721 62.3291 105.442C62.879 105.352 62.7359 107.114 58.8793 108.154V108.131ZM53.6819 106.459C53.584 106.368 53.6292 106.512 53.1998 105.638C53.1019 105.427 53.2676 105.367 54.3222 105.043C54.4577 104.998 54.5783 105.246 54.8871 105.932C54.9549 106.112 54.8268 106.158 53.6819 106.481V106.459ZM77.4994 102.12C76.8968 102.308 63.3761 106.316 63.3535 106.323C63.1953 106.368 63.0673 106.383 63.1426 106.233C63.4665 105.54 63.1426 104.523 62.2915 104.726C59.4743 105.321 59.9564 105.969 55.8889 105.977C55.5801 105.977 55.7157 106.067 55.1357 104.922C55.0754 104.802 55.1357 104.726 55.2411 104.696C56.0501 104.455 56.8247 104.11 57.546 103.672C60.2125 102.369 60.1824 98.9867 58.0733 100.064C57.0943 100.511 56.0572 100.818 54.9925 100.975C54.5191 101.124 54.054 101.297 53.5991 101.495C53.3881 101.57 53.0567 100.742 52.9588 100.493C52.8609 100.245 53.938 97.789 52.3939 97.8267C51.0757 98.1807 52.8081 99.4537 41.2836 76.9242C40.9823 76.3367 40.6734 76.6531 45.5921 75.0261C47.5882 74.3708 59.4442 70.4464 61.6738 69.6404C61.8847 69.5651 61.6738 69.2487 64.28 74.5741C77.8459 102.61 78.0568 101.969 77.4994 102.143V102.12ZM94.2439 50.6512C94.2439 50.3499 94.0933 50.3499 97.7841 52.7452C98.2662 53.054 97.1439 52.926 95.999 54.2517C95.7805 54.5078 95.773 54.4927 95.4566 54.3421C94.0857 53.732 94.0481 52.2405 94.2439 50.6738V50.6512ZM80.9492 45.145C82.4557 43.9097 87.3518 43.9398 89.2349 46.0715C90.8769 47.9395 86.8094 54.7714 82.7947 51.9618C80.8664 50.6135 79.0737 46.6515 80.9492 45.145ZM71.2174 48.5647C71.2174 48.1881 70.7955 43.5029 71.4057 43.5331C72.5513 43.4923 73.6833 43.7911 74.6597 44.3918C76.2791 45.4538 74.4412 52.7904 70.4942 51.3367C70.0724 51.1709 71.1872 50.1842 71.2174 48.5647ZM69.1384 43.9022C69.5301 43.7816 69.8916 43.6913 70.3285 43.5858C70.4641 43.5858 70.5319 43.5858 70.5168 43.7365C70.1252 47.1336 71.2249 48.0977 69.9218 50.7039C69.7711 51.0203 69.741 51.0354 69.4849 50.832C66.3288 48.2559 65.4475 45.0546 69.1384 43.9022ZM70.5319 52.1878C71.2167 52.3393 71.93 52.3 72.5941 52.0742C73.2581 51.8484 73.8475 51.4448 74.2981 50.9073C74.7275 50.4704 74.2981 52.1351 76.4072 52.5192C76.8441 52.6021 77.0098 52.0673 76.7461 51.9392C76.1059 51.6153 75.5033 51.4647 75.1568 50.3876C74.8856 49.5515 77.4918 50.2219 77.4165 48.2634C77.4165 47.7437 76.9118 47.7286 76.7989 48.1956C76.5955 49.0016 76.7989 48.8811 75.5937 49.1071C75.4882 49.1071 75.4581 49.1071 75.4958 48.979C76.1586 46.8925 75.9477 46.2975 76.6256 45.7928C76.9192 45.6212 77.2536 45.5316 77.5937 45.5334C77.9338 45.5352 78.2671 45.6283 78.5589 45.8031C78.8507 45.9778 79.0901 46.2278 79.2522 46.5268C79.4143 46.8257 79.4931 47.1628 79.4804 47.5027C79.5783 49.9658 81.9661 53.5738 84.7531 53.4683C88.7001 53.3101 89.8375 49.2426 90.553 48.7982C91.0276 48.4969 91.5247 48.6852 93.5283 49.913C94.1159 50.267 92.406 53.8374 95.193 55.0577C95.4868 55.1857 94.8465 55.5774 95.5621 55.8109C95.6751 55.8109 96.0818 55.1405 96.7296 54.5982C99.9083 51.9091 103.667 54.0935 100.496 59.1704C99.8631 60.1722 99.2304 61.0384 96.466 62.1833C92.873 63.6898 92.4437 54.4927 92.3759 71.2222C92.3759 75.9676 92.8881 77.3912 99.5543 80.6227C99.8179 80.7507 97.5054 82.4756 97.4904 82.4832C93.4756 85.3605 95.8333 83.9896 91.3891 85.7748C90.6359 86.0611 87.525 87.3491 87.4723 86.8745C86.8697 81.8354 85.6645 80.6829 84.8359 77.7302C84.0827 75.124 83.2391 74.4611 83.1637 73.5874C83.0583 72.3069 80.1508 69.8212 79.7968 69.3692C79.6687 69.2186 79.6838 69.1583 79.8721 69.0905C88.3611 66.3261 87.0731 64.2246 86.2144 64.7293C84.4669 65.7461 76.6407 68.5482 72.995 64.3677C68.9501 59.8633 68.8597 51.7057 70.5168 52.2179L70.5319 52.1878ZM72.9046 73.0149C73.4349 72.0767 73.8113 71.0594 74.0194 70.002C74.0387 69.9253 74.0333 69.8445 74.0041 69.771C73.9748 69.6976 73.9232 69.6352 73.8566 69.5927C73.7899 69.5502 73.7116 69.5297 73.6326 69.5342C73.5537 69.5388 73.4782 69.568 73.4168 69.6178C70.8031 71.3804 66.1932 68.616 67.2854 68.5331C67.9408 68.4804 72.3397 66.4542 70.2155 65.7461C67.7072 64.91 66.5699 62.9667 66.8711 62.8763C68.0477 62.7984 69.202 62.5181 70.2833 62.0477C71.2776 61.5732 70.2833 63.9308 74.9158 66.7856C74.7051 67.0205 74.5886 67.325 74.5886 67.6405C74.5886 67.9561 74.7051 68.2605 74.9158 68.4955C76.2113 70.0773 77.1755 70.7552 77.1077 70.9058C76.9947 71.1469 77.1077 71.4783 76.8139 71.6591C75.6916 72.4199 74.2002 73.2786 72.9046 73.0149ZM77.8609 86.7013C74.4488 86.1665 71.1194 82.792 70.434 79.9598C70.3059 79.425 70.2155 79.4777 70.788 79.2819C72.4677 78.6868 73.334 78.0466 73.1231 78.4232C72.7012 79.1764 73.0025 80.1481 72.9498 80.4946C72.754 81.7977 73.6579 82.8974 74.961 83.5904C75.1342 83.6808 75.0739 83.6657 76.2264 83.7411C76.9796 83.5603 77.0776 83.485 77.168 83.7411C77.3331 84.1171 77.4617 84.508 77.5521 84.9086C77.8534 86.5733 78.2451 86.7917 77.8534 86.7314L77.8609 86.7013ZM99.9083 126.706C99.2299 127.624 98.4953 128.5 97.7088 129.327C96.6468 130.555 95.7956 131.926 94.1159 133.214C90.184 136.227 87.2388 135.474 83.8115 131.459C83.2927 130.577 82.9236 129.615 82.7193 128.612C82.2297 126.631 81.356 126.081 80.7458 123.836C79.149 117.968 80.889 89.6163 81.0471 89.4732C81.6949 88.8782 80.6856 89.1719 79.2318 87.2738C78.0492 85.7673 78.5991 84.1553 76.2189 80.2837C76.1714 80.1789 76.1005 80.0865 76.0117 80.0133C75.9229 79.9402 75.8186 79.8884 75.7067 79.8619C75.2472 79.7866 75.6238 80.3816 75.8347 80.8486C76.1511 81.5341 75.5033 81.0972 75.3828 81.0897C75.0739 81.052 74.863 81.406 75.9176 82.0237C76.0456 82.099 76.3921 82.1065 76.4825 82.2271C76.571 82.3952 76.6344 82.5754 76.6708 82.7619C76.6708 82.8673 76.6708 82.8974 76.5729 82.905C75.7443 83.0029 75.3828 83.1761 74.6973 82.5961C74.3056 82.2647 73.6051 81.5115 73.6202 80.9993C73.6578 79.4928 73.4017 78.7395 74.6973 77.9863C75.202 77.7076 75.2924 77.2331 75.3225 76.6757C75.3752 75.6513 76.4072 76.2087 76.829 74.8754C77.4316 72.9773 80.1884 74.6495 79.7892 73.5874C78.569 70.3861 74.7425 68.3147 75.2698 67.3957C75.7669 66.5898 77.5747 68.0887 78.0492 68.6311C79.5105 70.2807 82.1921 72.5253 82.4331 74.0921C82.5838 75.0261 83.2391 75.3575 83.8944 77.557C85.077 81.5039 86.4177 83.1837 86.5759 87.5449C86.8245 94.3241 93.8221 120.341 93.8296 120.364C94.0255 120.77 94.4925 120.605 94.4699 120.175C94.1987 115.121 91.3816 109.547 92.0746 109.509C93.2171 109.43 94.3602 109.654 95.3888 110.157C96.0818 110.677 100.36 114.481 100.737 114.835C102.296 116.266 104.036 116.763 105.158 118.481C105.957 119.663 106.168 117.901 99.9007 126.736L99.9083 126.706ZM77.3111 73.1204C77.6576 71.3427 77.6199 71.4105 77.8308 71.6139C78.2085 72.0284 78.5163 72.5016 78.7422 73.0149C78.9004 73.3087 78.4183 73.2032 78.4108 73.1731C77.3337 73.3689 77.2056 73.4593 77.2659 73.1505L77.3111 73.1204ZM109.64 122.548C109.609 122.611 109.565 122.667 109.512 122.714C109.47 122.672 109.433 122.627 109.399 122.578C107.35 119.565 106.318 118.812 105.836 117.953C105.226 116.876 103.464 115.761 102.402 115.114C101.701 114.684 100.338 113.283 99.2605 112.432C96.8275 110.511 96.7673 109.299 93.2948 108.824C92.7676 108.749 91.9616 108.982 91.8335 108.877C91.7055 108.771 91.8335 108.59 92.4437 107.415C92.9551 106.354 93.5681 105.345 94.274 104.402C97.3925 100.004 96.7597 100.23 97.8218 98.4142C99.6898 95.1903 100.179 95.582 103.17 92.3883C107.267 88.0044 107.471 87.9065 107.742 87.2135C107.863 86.8896 107.576 86.739 107.426 86.8971C98.0553 96.7947 98.9517 94.8062 97.0309 98.3916C92.7751 106.346 95.2608 100.81 91.6302 107.355C91.246 108.041 87.1107 89.1418 87.5099 87.8764C87.6229 87.5148 88.0447 88.0948 91.2761 86.7239C96.1647 84.6374 93.5886 86.3322 97.6787 83.3193C99.7501 81.8128 100.692 80.133 102.793 81.391C105.505 83.018 106.484 82.3476 109.03 83.1008C110.378 83.5 110.243 83.9444 115.9 86.2268C117.557 86.8971 117.79 88.3584 117.986 89.7971C118.958 97.3823 118.28 98.3012 109.595 122.578L109.64 122.548Z" fill="#000001"/>
<path d="M107.727 15.2636C107.862 15.2636 107.96 15.2636 107.915 15.4971C107.629 16.7249 109.293 17.7568 108.962 18.3519C108.511 19.213 108.194 20.1374 108.02 21.0937C107.983 21.3196 108.186 21.1991 108.269 21.2669C108.585 21.5381 108.736 20.122 109.55 18.5929C110.099 17.576 108.503 16.5591 108.54 15.6854C108.585 14.5631 109.022 15.2033 110.047 15.5272C110.619 15.708 111.056 15.5272 111.214 15.9038C111.316 16.1051 111.487 16.2629 111.696 16.3486C111.905 16.4343 112.137 16.4422 112.352 16.3708C113.045 16.1901 112.864 16.7249 113.677 16.8981C114.491 17.0713 114.483 17.0337 114.483 17.335C114.483 17.4404 114.483 17.5534 114.355 17.5835C113.968 17.7157 113.599 17.8953 113.255 18.1184C112.826 18.3217 113.014 17.9752 112.299 18.4422C111.222 19.1428 111.402 18.6983 110.951 19.0524C110.197 19.6625 108.548 21.4025 109.075 21.8168C109.602 22.231 109.663 21.1464 110.732 20.1672C111.802 19.188 111.636 19.6625 111.998 19.4139C112.751 18.9469 112.856 18.8791 112.969 18.8716C113.617 18.8189 114.114 18.2765 114.604 18.2313C115.267 18.1711 115.093 17.5911 115.236 17.6363C115.38 17.6815 115.38 17.8246 115.432 17.9526C115.907 19.1352 117.383 16.3482 116.246 15.9791C115.108 15.6101 114.807 16.4085 114.626 16.3633C112.879 15.9716 113.964 16.1976 112.954 15.6778C112.487 15.4368 112.118 16.0017 111.741 15.4669C111.146 14.6082 111.576 15.4669 108.781 14.3521C108.585 14.2768 108.48 14.0057 108.329 13.8249C108.179 13.6441 107.945 13.6441 107.666 13.5688C106.876 13.3805 106.408 15.015 107.727 15.2636ZM115.922 16.6119C116.155 16.6797 115.982 17.2295 115.771 17.1165C114.973 16.7098 115.643 16.5215 115.922 16.6119ZM107.636 14.1563C107.727 14.1563 107.885 14.4199 107.968 14.548C107.553 14.8869 107.358 14.2618 107.629 14.1563H107.636Z" fill="#000001"/>
<path d="M112.985 96.4106C110.484 97.6911 107.147 100.019 99.4262 100.493C99.1324 100.493 98.8387 100.629 98.8763 100.93C98.914 101.231 105.317 101.57 113.188 97.0283C114.227 96.4181 113.67 96.0641 112.985 96.4106Z" fill="#000001"/>
<path d="M100.602 98.4668C104.631 97.2089 109.814 93.1941 109.482 92.7572C108.827 91.9212 107.17 95.2806 100.383 97.932C100.142 98.0224 100.248 98.3915 100.602 98.4668Z" fill="#000001"/>
<path d="M97.7621 47.2014C97.8902 47.337 100.865 50.0336 101.189 49.1975C101.31 48.8811 101.114 48.7908 100.075 48.0676C94.6588 44.3918 92.3614 36.9498 89.7853 35.3529C89.612 35.2475 89.4689 35.6618 89.5367 35.7898C90.1286 36.4422 90.6652 37.1426 91.1411 37.8838C94.2972 42.9305 93.5138 42.5991 97.7621 47.2014Z" fill="#000001"/>
<path d="M98.1452 85.4044C96.4354 86.4213 96.3977 86.9109 95.5089 87.295C94.9214 87.5511 90.2362 89.3815 90.6354 90.067C90.8539 90.421 90.8162 90.1348 95.9081 87.8675C96.6322 87.4168 97.322 86.9133 97.972 86.361C100.548 84.5005 100.91 84.5307 100.782 84.1013C100.556 83.4159 99.1546 84.8094 98.1452 85.4044Z" fill="#000001"/>
<path d="M96.1872 60.6166C97.7389 60.6166 98.2586 58.8389 97.7615 57.8823C97.6977 57.778 97.6602 57.6597 97.6523 57.5376C97.6444 57.4156 97.6664 57.2934 97.7163 57.1818C98.0327 56.4285 99.6069 55.0049 99.7576 57.0236C99.7576 57.2646 100.149 57.34 100.315 57.0236C100.419 56.8132 100.463 56.5777 100.44 56.344C100.417 56.1102 100.33 55.8874 100.187 55.7008C100.044 55.5143 99.8524 55.3714 99.6327 55.2883C99.4131 55.2053 99.1745 55.1854 98.9441 55.2309C97.7238 55.4945 96.3906 57.0462 97.0384 58.3041C97.2568 58.7335 97.0384 59.6223 96.5864 59.7277C95.6901 59.9236 95.6298 59.5018 95.4114 59.9085C95.1929 60.3153 95.675 60.6166 96.1872 60.6166Z" fill="#000001"/>
<path d="M90.9828 26.3138C91.028 25.8016 90.8774 24.3629 92.1504 24.0164C93.1748 23.7302 93.7397 23.8281 94.1992 23.0297C94.5909 22.3518 94.1992 22.1408 94.5683 21.4403C95.8036 19.1806 95.1709 19.5271 96.828 18.804C101.257 16.838 97.5812 14.3297 97.1895 15.5952C96.9862 16.2053 97.3778 16.5518 97.6415 15.9643C97.7771 15.6554 99.2157 16.7702 97.521 17.6967C95.9542 18.5479 95.1934 18.5404 94.7716 19.6175C94.3498 20.6946 93.6719 21.3801 93.6945 22.3743C93.6945 23.0824 93.0392 23.0598 92.2784 23.2104C91.6763 23.3753 91.1493 23.7423 90.7859 24.2498C90.4224 24.7573 90.2446 25.3744 90.2823 25.9974C90.2974 27.3533 90.8849 27.4889 90.9828 26.3138Z" fill="#000001"/>
<path d="M81.4918 32.3935C81.0043 32.3822 80.52 32.4744 80.0708 32.664C79.6215 32.8535 79.2176 33.1362 78.8856 33.4932C78.4411 33.9678 78.8856 34.3971 79.3375 34.013C79.6741 33.6652 80.0923 33.4072 80.5541 33.2625C81.0159 33.1178 81.5065 33.0909 81.9814 33.1844C87.6156 33.9376 88.0073 40.8901 93.7696 47.7596C94.455 48.5656 94.9898 48.2718 94.7262 47.7973C93.6627 46.4842 92.6792 45.1083 91.781 43.677C87.0281 35.1504 86.5686 33.1467 81.4918 32.3935Z" fill="#000001"/>
<path d="M81.9434 39.3825C81.6798 39.6612 81.4839 40.2638 81.8756 40.1358C82.4179 39.9173 82.9302 39.2771 84.2935 39.2922C86.1842 39.2922 86.8696 42.0641 86.9976 40.6555C86.8395 38.4184 84.0977 37.0701 81.9434 39.3825Z" fill="#000001"/>
<path d="M83.2469 48.2482C83.6537 48.2482 83.6763 47.977 83.7817 47.5627C83.6612 46.7643 83.0285 46.8095 82.8778 47.2689C82.7272 47.7284 82.8025 48.2256 83.2469 48.2482Z" fill="#000001"/>
<path d="M77.1453 33.395C77.1453 33.8997 77.1453 34.8186 77.665 34.7358C78.3505 34.6303 77.2206 33.3498 78.2676 31.7228C78.3841 31.4973 78.5492 31.3005 78.7512 31.1468C78.9531 30.9931 79.1868 30.8862 79.4351 30.834C79.5222 30.7984 79.5985 30.7409 79.6567 30.6669C79.7148 30.593 79.7526 30.5052 79.7666 30.4122C79.7289 29.4179 77.1151 30.5101 77.1453 33.395Z" fill="#000001"/>
<path d="M72.1518 5.49465C72.3777 5.55491 72.7016 5.23102 73.0632 5.17076C73.6055 5.08037 75.0442 5.03518 75.3229 5.58504C76.2193 7.30996 73.1837 9.46423 72.8146 11.8445C72.5811 13.351 74.1629 13.7426 76.5808 14.413C78.6673 14.9855 74.7806 17.6444 75.9707 19.2488C76.1665 19.5049 76.7239 20.0021 77.1759 20.4766C78.3133 21.6667 76.8369 23.2561 77.5826 23.4142C78.3283 23.5724 78.8782 21.0867 77.5826 19.8288C76.1439 18.3826 75.9933 18.8873 77.5224 16.2133C77.9216 15.5128 78.14 14.285 77.2663 13.9083C76.3925 13.5317 76.513 13.8104 74.419 12.9969C71.2253 11.7691 77.2964 8.12346 75.8577 5.28374C75.5263 4.47024 74.8258 4.56063 73.8692 4.47024C71.9409 4.42505 71.8731 5.41933 72.1518 5.49465Z" fill="#000001"/>
<path d="M76.543 57.8603C76.543 57.5892 76.3773 56.7983 75.7446 56.7832C74.9914 56.7832 74.8784 57.9055 75.4207 58.4554C75.7446 58.7944 76.3623 58.8697 76.543 57.8603Z" fill="#000001"/>
<path d="M73.7937 46.9757C73.7334 46.2225 73.1384 46.2225 73.0405 46.5087C72.5659 47.3599 73.5527 48.1583 73.7937 46.9757Z" fill="#000001"/>
<path d="M60.8529 73.1956C43.6865 78.9127 44.2816 78.4683 44.7712 79.4174C48.2587 86.6711 48.1382 86.3321 48.7634 86.3999C50.4807 85.9028 64.491 81.2553 64.5814 81.2101C65.5456 80.8786 64.9882 80.3514 62.4121 75.1239C61.5082 73.2257 61.5383 72.9696 60.8529 73.1956ZM64.1069 80.615L48.801 85.6693C48.6202 85.6693 48.8688 86.0986 45.4642 79.3646C45.2909 79.0257 44.3795 79.4852 55.1282 75.8847C56.9963 75.2595 58.7739 74.6343 60.77 73.979C61.2897 73.8133 60.8755 73.301 63.0297 77.7452C64.3931 80.6376 64.4534 80.502 64.1144 80.615H64.1069Z" fill="#000001"/>
<path d="M59.9789 80.0649C59.881 80.0649 50.1265 83.0778 49.4335 83.4093C49.0946 83.5524 48.7857 84.0043 49.2 84.1098C49.3356 84.1098 60.3555 80.8934 60.9355 80.223C60.6342 79.6656 60.3781 80.0498 59.9789 80.0649Z" fill="#000001"/>
<path d="M50.8863 79.411C52.1291 79.1925 52.0839 78.7933 52.8146 78.831C54.2081 78.6427 54.7353 78.0777 56.0008 77.7614C57.2662 77.445 57.6278 77.5354 58.6145 77.0081C58.8556 76.8876 59.0213 76.4658 58.5091 76.3604C58.4187 76.3604 57.8387 76.5336 57.0026 76.7445C54.0273 77.4977 53.613 78.0551 52.8447 78.0401C51.9559 78.0401 51.9936 78.4016 50.6679 78.6954C47.6549 79.3658 48.1445 79.652 47.3385 79.6897C47.2406 79.6897 47.0824 79.9232 47.0523 80.0136C46.9845 80.2847 47.8055 80.4429 48.1972 80.2245C49.0352 79.7884 49.9471 79.5125 50.8863 79.411Z" fill="#000001"/>
<path d="M53.4324 41.8241C54.5321 40.3628 53.8843 40.5738 57.5074 41.8241C57.5828 41.8591 57.6673 41.8691 57.7488 41.8528C57.8303 41.8366 57.9045 41.7948 57.9607 41.7336C58.0168 41.6724 58.0521 41.5949 58.0613 41.5123C58.0706 41.4298 58.0533 41.3464 58.0121 41.2743C57.6155 40.4138 57.1574 39.5831 56.6412 38.7886C56.3324 38.3969 57.9217 36.7021 57.9518 35.7756C57.997 34.4122 55.2025 36.6795 54.5924 35.8811C54.1028 35.2408 53.3571 34.5328 52.8674 33.7569C52.649 33.4029 52.2272 33.2749 52.1594 33.6967C51.5794 37.5457 52.5134 36.5966 50.3667 37.4252C49.169 37.8922 49.1314 37.8847 49.0636 38.2688C48.8527 39.4816 51.6547 39.6548 51.6623 40.2047C51.7075 42.6828 51.6095 42.5322 51.6623 43.0519C51.6729 43.1216 51.7021 43.1872 51.7469 43.2417C51.7917 43.2962 51.8503 43.3375 51.9167 43.3615C51.983 43.3854 52.0546 43.3909 52.1238 43.3775C52.1931 43.3642 52.2574 43.3323 52.3101 43.2854C52.7244 42.8306 53.0998 42.3418 53.4324 41.8241ZM51.7376 39.3008C49.1615 38.3366 49.1615 38.5475 51.9937 37.5231C52.6113 37.2972 52.3176 35.9489 52.7469 34.7889C55.436 37.3047 53.1687 37.0938 57.1007 36.1899C56.5207 37.7416 55.3155 38.186 56.0085 38.9919C56.3958 39.5342 56.7312 40.1117 57.0103 40.7169C57.1986 41.0332 56.257 40.7169 54.9238 40.2197C54.1706 39.941 54.3438 39.3761 52.5662 41.8618C51.8732 42.8335 52.875 39.7226 51.7376 39.3008Z" fill="#000001"/>
<path d="M38.9323 28.6568C39.2939 28.2651 39.3014 28.2651 39.6328 28.6568C39.9702 29.058 40.2261 29.5211 40.3861 30.0202C40.5217 30.5023 40.0095 30.2462 39.8513 30.2537C39.098 30.2537 39.4069 30.8186 39.5952 30.909C41.4481 31.8054 42.2466 29.6737 42.2993 30.3742C42.3822 31.3233 42.3746 32.3552 42.4198 33.5981C42.4198 34.163 42.8793 34.5924 43.2635 34.2459C43.6476 33.8994 44.672 32.8599 46.1258 31.4438C48.506 29.1163 48.6039 29.1841 48.5738 28.7246C48.2273 23.6779 47.8206 24.9584 49.4777 23.1582C51.4813 20.9964 55.5036 16.5974 56.8067 13.9611C58.8179 9.97645 59.6163 5.7809 57.7407 5.57C55.2325 5.2913 50.8712 7.48323 48.7019 9.38893C47.1461 10.7212 45.6933 12.169 44.3557 13.7201C39.8362 18.6839 41.1167 17.8779 39.083 18.1491C34.9929 18.6764 36.424 17.7951 31.3397 23.3389C30.7145 24.0244 31.1589 24.4914 31.5656 24.4914C32.7865 24.3639 34.0149 24.3236 35.2414 24.3709C35.0286 24.5911 34.8722 24.8596 34.7856 25.1535C34.6991 25.4473 34.6849 25.7577 34.7443 26.0581C34.9015 26.6551 35.2163 27.1989 35.6557 27.6324C35.9043 27.7906 36.0851 27.5119 35.9872 27.2181C35.942 27.0675 35.1661 25.9226 35.3921 25.6439C35.6181 25.3652 36.1905 25.6439 37.8552 26.9093C38.3147 27.2558 37.4334 27.5872 36.6877 28.687C36.2583 29.3347 37.0191 29.6662 37.2225 29.8168C37.4258 29.9675 37.6141 29.9976 37.8175 29.8545L38.9323 28.6568ZM35.2414 33.7261C29.9688 42.0118 28.7937 50.6891 32.8612 61.4755C32.9365 61.6638 33.1926 62.515 33.4487 62.3417C34.2622 61.8069 29.9612 55.0278 31.3773 45.0549C32.6804 35.8804 38.7365 30.5851 38.9097 29.7867C39.0001 29.395 38.857 29.2293 38.39 29.4101C37.236 30.7696 36.1837 32.2122 35.2414 33.7261ZM37.5916 25.8548C36.1227 24.7475 35.5427 25.2371 35.8214 24.7626C35.957 24.5291 36.0926 24.2654 36.311 24.3633C37.358 24.4537 37.7196 24.853 38.9851 25.7117C39.2035 25.8623 39.0302 26.028 38.6838 26.367C38.4804 26.5929 38.5256 26.5477 37.6217 25.8548H37.5916ZM37.5012 29.2594C36.9438 28.8753 36.6952 29.6586 43.4066 21.84C43.738 21.4634 44.1598 21.0868 44.3632 21.5914C44.3858 21.614 37.5388 29.2444 37.5012 29.2594ZM41.531 30.0127C40.8681 30.5776 41.4632 30.0127 40.3183 28.5062C39.791 27.8132 39.7232 27.8132 39.8211 27.7002C40.4313 26.9846 40.3032 26.6457 41.7645 29.5005C41.9152 29.7038 41.7645 29.8168 41.5536 29.9976L41.531 30.0127ZM43.2785 33.4173C43.0375 33.6659 43.1505 33.6583 42.8868 29.8846C42.8868 29.5306 45.8998 27.1729 46.8715 26.0129C47.8432 24.853 47.6247 25.0488 47.9486 28.5137C48.1068 28.8225 48.0465 28.702 43.3011 33.4022L43.2785 33.4173ZM50.3063 9.21568C51.827 8.0932 53.5361 7.25141 55.353 6.72999C58.2077 5.97675 57.8914 6.72999 58.027 7.85232C57.9538 8.91823 57.7201 9.967 57.334 10.9632C55.5187 15.3923 55.6769 14.993 55.1797 14.1042C52.8748 9.99905 49.6886 9.59983 50.3063 9.21568ZM49.3346 9.96892C50.2987 9.0575 55.7748 14.6842 54.9839 15.7387C52.6714 18.8421 44.6268 27.881 42.5027 29.1841C42.0603 28.3231 41.5569 27.495 40.9962 26.7059C40.8079 26.4272 40.7853 26.6155 43.4442 23.6553C44.9507 21.9379 45.3801 21.7421 44.8528 21.0943C44.6268 20.8156 44.0242 20.4088 43.6401 20.8005C43.2559 21.1922 43.045 21.4558 41.1544 23.6252C39.4144 25.6137 39.776 25.3878 39.1583 24.9207C36.6726 23.0452 36.2282 24.5215 37.8175 22.4953C41.3819 18.0777 45.221 13.8889 49.312 9.95386L49.3346 9.96892ZM35.7085 19.5351C36.0173 19.1735 36.0173 19.2338 39.7157 18.7818C40.2957 18.7065 38.6536 20.0397 37.456 21.8475C37.1848 22.2392 36.1604 23.6101 35.7612 23.6628C35.7612 23.6628 31.995 23.7758 31.995 23.7532C31.8368 23.6176 33.8479 21.6969 35.7085 19.5351Z" fill="#000001"/>
<path d="M54.4734 80.3824C55.9799 79.9456 56.0778 79.81 56.6126 79.8025C56.7387 79.8107 56.8636 79.7735 56.9645 79.6974C57.0654 79.6214 57.1357 79.5117 57.1625 79.3882C57.1625 78.5219 54.1495 79.9004 52.7259 80.1414C51.4303 80.3598 48.4851 81.2185 48.0558 81.6856C47.7545 82.017 47.9202 82.2053 48.327 82.2279C49.8334 81.7157 49.6301 81.6479 50.1724 81.4746C53.321 80.616 51.1516 81.3391 54.4734 80.3824Z" fill="#000001"/>
<path d="M51.8128 56.4443C51.3458 56.5046 49.7941 56.8436 49.5531 56.9114C49.1087 57.0243 47.7152 53.9436 47.3612 55.0885C46.4949 57.9056 47.6851 57.4462 45.4781 57.6345C44.5742 57.7098 44.5591 57.9508 44.5817 58.3877C44.5817 58.6815 44.6872 58.7417 45.2295 59.0731C47.6775 60.5796 46.6079 59.4874 46.4045 62.2744C46.4045 62.6586 46.6004 62.8394 46.9092 62.7414C47.6097 62.5079 48.717 60.4817 49.2292 60.7453C49.9703 61.0017 50.7246 61.2179 51.4889 61.3931C51.9183 61.5136 52.099 61.2877 52.0463 60.9562C51.9635 60.429 51.3835 60.203 50.8035 59.1334C50.6754 58.8848 50.7056 58.9978 52.1442 57.2729C52.3928 56.9565 52.5058 56.3615 51.8128 56.4443ZM50.1557 59.4573C50.8562 60.6926 51.1424 60.5796 49.7791 60.2783C48.1973 59.9243 48.9128 59.8189 47.2708 61.4835C47.0749 61.6869 47.3084 60.8583 47.3687 60.075C47.4365 59.1409 45.6287 58.8396 45.3651 58.35C45.4931 58.35 45.2672 58.35 46.4271 58.2371C47.8583 58.1165 47.1804 57.3106 47.8056 56.0301C48.3178 56.4669 48.845 57.7776 49.3121 57.6797C53.131 56.7908 49.3271 57.996 50.1557 59.4573Z" fill="#000001"/>
<path d="M48.9958 18.6467C52.634 18.4584 52.3779 13.1329 48.8828 13.2158C45.0338 13.6828 45.7343 18.7822 48.9958 18.6467ZM48.5966 13.954C48.8899 13.9019 49.1911 13.9154 49.4785 13.9935C49.766 14.0716 50.0326 14.2124 50.2592 14.4057C50.4859 14.599 50.6669 14.84 50.7894 15.1115C50.9119 15.3831 50.9728 15.6783 50.9677 15.9761C50.9626 16.274 50.8916 16.567 50.7599 16.8342C50.6282 17.1013 50.439 17.3361 50.2059 17.5215C49.9728 17.7069 49.7015 17.8384 49.4115 17.9067C49.1216 17.9749 48.8201 17.9781 48.5288 17.916C48.0708 17.8185 47.6609 17.5647 47.3694 17.1982C47.0779 16.8317 46.9229 16.3753 46.9309 15.9071C46.9389 15.4389 47.1094 14.988 47.4133 14.6317C47.7172 14.2754 48.1355 14.0358 48.5966 13.954Z" fill="#000001"/>
<path d="M40.689 68.7518C40.1918 68.8422 40.0939 69.505 40.7342 69.505C44.0032 69.4523 44.1689 63.5318 41.0204 63.577C40.6781 63.5644 40.3363 63.6129 40.011 63.7201C39.9659 63.2908 40.7643 61.4152 39.9207 59.9539C38.9866 58.342 36.2825 58.4474 35.4012 60.6695C35.0629 61.6307 34.9181 62.6492 34.9749 63.6666C35.0318 64.684 35.2893 65.68 35.7326 66.5975C35.9059 66.9365 36.3428 66.7406 36.2373 66.2887C33.9776 59.8635 38.3991 58.2064 39.3934 60.5264C40.222 62.4622 38.4292 64.6014 39.2051 65.0458C39.7549 65.3547 40.0336 64.1419 41.0957 64.2926C42.4741 64.5336 42.7227 66.0326 42.4967 67.0344C42.1126 68.684 41.0731 68.6764 40.689 68.7518Z" fill="#000001"/>
<path d="M32.892 63.0279C28.6814 56.1131 27.6193 44.0236 32.8242 34.1712C34.0214 32.0721 35.3629 30.0586 36.839 28.1453C37.5395 27.4598 36.839 27.0983 36.4548 27.5352C32.0935 32.6949 28.6738 40.167 28.6738 46.901C28.6738 56.7684 31.1445 61.5741 32.3798 63.0505C32.9824 63.7434 33.2912 63.6832 32.892 63.0279Z" fill="#000001"/>
<path d="M29.3965 68.978C25.6303 70.1606 26.0596 65.7918 29.7882 67.3058C29.8342 67.3336 29.8857 67.3511 29.9392 67.357C29.9926 67.3629 30.0467 67.357 30.0976 67.3398C30.1486 67.3225 30.1951 67.2944 30.2341 67.2573C30.273 67.2202 30.3033 67.1751 30.323 67.125C30.5264 66.6655 30.1272 66.5525 29.743 66.4245C27.6867 65.739 29.9765 61.8147 32.8238 66.6053C33.0573 66.997 33.4565 66.7258 33.3661 66.4245C32.7635 64.2778 30.3531 62.6583 28.8466 63.9765C28.5263 64.2473 28.312 64.6226 28.2417 65.0361C28.1714 65.4497 28.2496 65.8747 28.4625 66.2362C26.6848 66.2814 26.2028 66.9894 25.9994 67.9159C25.5926 70.1003 29.1103 70.3564 30.0066 69.4977C30.3531 69.1512 30.0669 68.7671 29.3965 68.978Z" fill="#000001"/>
<path d="M24.2829 55.5921C24.1699 55.3661 24.0946 54.9292 23.5748 55.2456C21.4582 56.5337 21.8876 56.3303 21.3151 55.7201C20.4564 54.8238 20.238 54.4773 19.8086 54.5828C19.6203 54.6355 19.6655 55.0196 19.7107 55.223C20.2304 57.6334 20.3961 56.9931 19.4169 57.3547C19.191 57.4451 18.9951 57.5505 18.0762 57.9347C17.9896 57.9743 17.9163 58.038 17.8649 58.1181C17.8135 58.1982 17.7861 58.2914 17.7861 58.3866C17.7861 58.4818 17.8135 58.575 17.8649 58.6551C17.9163 58.7352 17.9896 58.7989 18.0762 58.8386C20.8782 59.8856 20.2455 59.6897 20.4338 60.8723C20.6522 62.2281 20.6899 62.5671 20.9761 62.5972C21.0928 62.613 21.2114 62.5898 21.3136 62.5312C21.4157 62.4726 21.4957 62.382 21.5411 62.2733C22.7161 59.4186 21.9478 60.1718 23.0476 60.3676C24.9382 60.7066 25.0361 60.8949 25.3073 60.5635C25.5784 60.2321 25.0286 59.7425 24.7574 59.4336C22.9798 57.3848 23.507 58.7406 24.2829 55.5921ZM23.7255 59.7123C23.323 59.6823 22.9321 59.564 22.5805 59.3658C21.6315 59.057 21.6315 60.9552 21.2548 61.2791C21.1637 60.881 21.1132 60.4746 21.1042 60.0663C21.1042 59.2378 20.6522 59.1775 19.2813 58.4243C18.9801 58.251 19.6655 58.1832 20.4413 57.7916C21.2172 57.3999 20.5995 56.6466 20.5845 56.1194C20.5845 55.803 21.1117 56.5638 21.4432 56.9781C21.9554 57.6183 22.0156 56.6014 23.4543 56.1721C23.2133 57.4149 22.3772 57.7388 23.1831 58.5975C24.3582 59.8554 24.0418 59.7425 23.7255 59.7123Z" fill="#000001"/>
</svg>
