<svg width="152" height="152" viewBox="0 0 152 152" fill="none" xmlns="http://www.w3.org/2000/svg">
<path d="M122.359 53.8696C125.56 50.2841 125.613 49.4857 125.967 49.7569C127.112 50.608 113.915 61.7183 120.234 65.7708C121.741 66.7274 122.215 66.9759 121.741 68.0305C121.688 68.6632 121.199 69.3035 121.259 70.3505C121.319 71.3975 121.259 71.7891 122.976 72.452C123.909 72.4983 124.834 72.2592 125.628 71.7665C126.599 71.179 127.887 70.6066 128.55 71.4879C129.493 71.2972 130.38 70.8926 131.141 70.3053C130.75 70.3231 130.358 70.2773 129.981 70.1697C133.522 68.9118 134.343 67.1567 134.682 64.9648C134.772 62.5619 133.107 60.5734 132.934 60.129C132.467 61.0705 131.691 63.2625 130.268 63.5562C131.426 62.107 132.275 60.4355 132.761 58.6451C132.61 56.5436 132.58 54.3818 131.631 52.6719C130.802 51.1654 129.65 51.1654 128.701 52.5664C128.249 53.2444 128.256 53.395 128 53.3197C127.744 53.2444 127.774 53.0259 127.707 52.8451C126.26 49.0789 126.358 49.0789 125.952 49.0789C121.884 48.9509 120.076 47.226 119.677 47.7758C119.873 49.8698 120.159 51.8961 121.289 53.7189C121.779 54.5173 121.771 54.5249 122.359 53.8696Z" fill="#FEF0BB"/>
<path d="M63.0709 40.4189C63.4998 40.9715 64.0344 41.4332 64.6435 41.7772C65.2525 42.1212 65.924 42.3405 66.6187 42.4225C68.0348 42.7087 69.3454 41.7295 70.6561 41.1269C68.9763 40.9461 67.4171 40.8331 66.0538 39.9368C65.1951 39.3794 66.0538 38.5132 66.1743 39.2363C66.3777 40.1854 70.2116 40.4264 70.7916 41.0666C75.4542 38.9124 75.8685 40.095 73.0514 39.402C72.5015 39.2664 70.9875 38.7391 71.221 38.2269C71.4545 37.7147 71.8688 38.9802 76.7724 39.2287C80.9077 38.4755 80.9378 40.6674 81.7287 40.8934C80.2222 39.0706 79.3711 36.4869 79.823 36.374C80.6742 36.1028 79.5217 40.0422 86.9713 44.2227C88.0434 44.7565 89.2008 45.0981 90.391 45.2321C90.2365 45.4039 90.0388 45.5314 89.8185 45.6012C92.9369 46.844 92.0782 49.759 92.3343 48.3429C92.3343 48.1772 92.2364 47.8835 92.5 47.8609C92.7637 47.8383 92.8089 48.132 92.7863 48.3429C92.6432 49.6611 93.0725 50.9793 92.9068 52.305C93.0574 52.3577 93.08 52.1092 93.1102 52.0338C93.4429 51.2167 93.7221 50.3788 93.9463 49.5255C93.9463 43.5975 91.9351 42.9271 88.3572 37.5716C86.0975 34.1745 81.3973 34.4909 76.8025 34.5586C67.7636 34.6264 84.7115 36.9765 76.9833 36.5321C76.0011 36.5149 75.0338 36.2891 74.1456 35.8697C73.2573 35.4502 72.4684 34.8467 71.8311 34.0992C68.321 29.9337 68.7428 30.0241 68.3361 28.0732C67.6125 29.5067 67.1751 31.0673 67.048 32.668C67.048 33.3685 66.8296 34.1293 67.726 34.536C65.986 34.4457 65.3532 33.0296 64.4418 31.8846C64.2513 32.3373 64.1368 32.8183 64.1029 33.3083C63.9146 35.6885 65.1348 36.9916 64.359 37.3984C63.5831 37.8051 62.3779 35.7864 61.9561 35.0482C61.7698 35.9723 61.7725 36.9246 61.9641 37.8476C62.1557 38.7706 62.5322 39.6453 63.0709 40.4189ZM87.6868 42.1136C87.845 41.9103 87.8074 41.8726 91.7995 44.2604C91.9415 44.3285 92.0614 44.4353 92.1454 44.5686C92.2293 44.7019 92.2739 44.8561 92.2741 45.0136C91.4982 44.6295 87.1972 42.7765 87.6868 42.1136Z" fill="#FEF0BB"/>
<path d="M67.4554 140.124C65.3011 140.621 59.7949 143.461 54.9591 140.124C53.4526 139.197 51.8549 138.427 50.1911 137.826C50.1483 137.874 50.1127 137.927 50.0856 137.985C49.7919 138.632 49.2872 137.713 49.0386 138.203C48.8654 138.527 49.001 139.386 49.1817 141.495C49.1817 141.683 49.483 142.248 48.8955 142.195C49.5734 144.553 53.2718 145.75 55.6747 146.157C61.8512 147.212 68.8338 148.515 79.2586 145.125C80.7651 144.628 79.8311 143.287 80.8555 136.599C76.434 137.992 71.9597 139.092 67.4554 140.124Z" fill="#FEF0BB"/>
<path d="M57.6325 24.08C57.7078 24.08 69.9178 23.2589 71.9968 23.0857C72.524 23.0405 72.75 22.7618 72.509 22.2345C72.2679 21.7073 72.0947 21.0293 71.8009 20.4644C71.3339 19.5756 71.8913 19.7639 75.4993 18.8148C77.0058 18.4307 75.8232 17.8205 73.0588 14.6117C72.8725 14.3657 72.6023 14.1968 72.2995 14.1371C71.9967 14.0773 71.6826 14.131 71.4168 14.2878C70.4828 14.7097 66.4755 16.4647 65.4511 16.9167C64.2685 17.4665 64.4719 17.3987 66.694 19.5229C57.4366 23.4096 56.5327 23.0857 56.7964 23.8013C56.932 24.1628 57.3236 24.1704 57.6325 24.08Z" fill="#FEF0BB"/>
<path d="M95.9876 64.8373C94.7373 60.1145 97.9461 55.6553 95.8069 56.0922C96.2588 56.3633 95.8069 56.5893 95.7014 56.7324C92.6885 60.2199 90.3835 66.8409 93.9991 68.5056C95.6261 69.2588 95.7466 68.8671 95.4528 70.2305C95.2043 71.3905 95.7391 71.4658 96.8915 71.4507C97.8373 71.3551 98.7425 71.0179 99.5203 70.4715C100.763 69.7183 97.2606 69.6505 95.9876 64.8373Z" fill="#FEF0BB"/>
<path d="M104.017 120.525C104.77 120.736 105.524 121.09 106.352 120.721C106.514 120.647 106.69 120.608 106.868 120.608C107.046 120.608 107.222 120.647 107.384 120.721C107.83 120.768 108.252 120.946 108.597 121.233C109.229 121.118 109.804 120.795 110.231 120.314C110.156 120.314 102.239 118.567 94.707 116.028C95.0837 117.346 95.4603 117.731 95.0987 117.731C98.0196 118.82 100.997 119.753 104.017 120.525Z" fill="#FEF0BB"/>
<path d="M106.239 111.75C105.531 110.161 105.621 109.965 105.131 109.875C101.651 109.227 98.1714 108.571 94.6688 108.052C94.5784 109.197 94.4504 109.4 94.5257 109.4C95.2865 109.566 106.141 111.969 106.239 111.75Z" fill="#FEF0BB"/>
<path d="M118.33 102.846C118.443 102.515 117.712 101.34 117.366 101.34C114.971 101.272 112.598 100.88 110.203 100.88C108.809 100.88 107.423 100.752 106.037 100.632C106.391 102.055 106.316 102.003 106.391 102.04C117.916 102.801 118.164 103.343 118.33 102.846Z" fill="#FEF0BB"/>
<path d="M115.482 92.3231C116.235 92.3231 115.482 92.0218 114.728 91.0275C111.015 91.0275 112.649 90.3195 110.616 92.3532L113.463 92.5039C113.885 92.5415 114.683 92.308 115.482 92.3231Z" fill="#FEF0BB"/>
<path d="M107.498 91.0353C107.651 91.4693 107.872 91.8761 108.153 92.2405C110.149 92.3384 109.659 92.5719 111.166 91.073C111.482 90.7039 111.249 90.9751 107.498 91.0353Z" fill="#FEF0BB"/>
<path d="M104.138 90.878C103.648 90.878 103.731 90.6746 104.025 92.0305C104.53 92.0305 107.038 92.1736 107.512 92.2037C106.691 90.8178 107.271 91.0513 106.548 91.0061C105.825 90.9609 104.951 90.9081 104.138 90.878Z" fill="#FEF0BB"/>
<path d="M119.203 111.899C117.139 111.726 115.105 111.304 113.034 111.206C111.861 111.116 110.698 110.935 109.554 110.664C109.968 111.417 110.307 111.93 110.623 112.472C121.003 113.323 120.415 113.323 120.415 112.977C119.956 111.967 120.257 111.982 119.203 111.899Z" fill="#FEF0BB"/>
<path d="M102.759 101.686C103.317 101.799 103.136 101.573 102.97 100.602C102.759 100.353 102.714 100.481 99.6785 100.27C93.6525 99.8559 91.3099 98.3495 91.0312 98.2666C91.2449 98.8547 91.4965 99.4284 91.7845 99.984C93.886 100.971 101.215 101.521 102.759 101.686Z" fill="#FEF0BB"/>
<path d="M101.185 91.6909C100.929 90.6665 100.982 90.6138 100.628 90.5761C97.9086 90.2899 94.7601 89.3408 94.052 89.2881C93.6389 89.6284 93.2466 89.9932 92.877 90.3803C101.599 91.8717 101.125 91.7888 101.185 91.6909Z" fill="#FEF0BB"/>
<path d="M101.735 80.8963C101.509 81.0997 101.381 80.3314 101.848 82.2371C102.519 82.2371 102.353 82.1392 102.443 81.416C102.481 81.0922 102.699 80.7758 101.735 80.8963Z" fill="#FEF0BB"/>
<path d="M130.305 80.8218C129.211 80.2274 128.084 79.6943 126.931 79.2249C126.268 78.9763 125.643 78.1101 124.972 78.5394C124.302 78.9688 124.129 79.7672 123.714 80.3999C123.526 80.6786 126.019 80.2794 125.575 81.7482C123.707 80.2418 121.364 82.5919 120.558 84.7612C120.445 85.0854 120.419 85.434 120.484 85.7714C120.548 86.1088 120.702 86.423 120.927 86.682C121.5 87.4804 122.434 86.5991 122.856 85.7103C123.541 84.2641 125.183 81.688 126.758 82.0495C129.974 82.8028 127.729 85.4015 127.631 86.3882C126.976 92.9188 126.878 90.0038 128.701 91.0884C131.39 92.2861 128.701 93.1372 129.567 94.3424C130.433 95.5476 130.215 96.8583 128.814 97.6266C127.752 98.2066 127.149 98.0408 127.533 98.8016C128.949 101.626 128.957 104.639 131.571 107.23C133.74 109.377 132.746 111.803 133.341 112.586C133.617 111.258 133.791 109.911 133.861 108.556C133.8 104.925 132.294 104.391 132.655 99.3289C132.904 95.5551 138.086 84.7386 130.305 80.8218Z" fill="#FFC7D6"/>
<path d="M127.097 82.7508C126.615 82.6529 126.043 82.5249 125.643 83.2179C124.852 84.6038 121.877 87.2402 123.956 88.5508C124.37 88.8069 124.709 88.3098 124.98 88.0461C125.992 87.0486 126.871 85.9245 127.594 84.7017C127.918 84.1745 127.896 82.8864 127.097 82.7508Z" fill="#FFC7D6"/>
<path d="M97.5092 52.221C96.756 56.8534 97.9536 56.6275 97.0121 58.7365C95.4152 62.3069 96.2589 65.4404 98.7747 68.25C99.6277 69.0924 100.657 69.7355 101.788 70.1331C104.801 71.4061 106.202 71.1876 107.369 73.3946C107.768 74.1479 108.567 75.5187 108.258 75.6995C107.949 75.8803 107.783 75.4736 107.444 75.1873C107.309 75.0819 107.279 74.7655 107.015 74.9237C106.752 75.0819 106.616 75.1421 106.578 75.4585C106.148 79.1293 106.097 82.8348 106.428 86.5161C106.548 87.7212 110.947 87.2693 112.16 87.1789C113.606 87.1036 111.67 85.3636 111.407 82.3205C111.143 79.2774 113.779 78.7577 116.581 78.8255C116.129 71.8128 115.662 68.7848 117.335 68.5437C120.43 68.0843 118.924 73.0632 120.671 78.2756C121.599 76.4292 122.761 74.7102 124.129 73.1611C123.532 73.1146 122.941 73.006 122.366 72.8372C120.317 72.0162 119.963 70.1632 120.709 68.0918C120.814 67.8056 121.153 67.5721 121.244 67.2934C121.033 66.6908 116.981 65.8999 117.96 61.3729C118.178 59.3316 119.097 58.1641 121.312 54.9628C121.56 54.5937 121.515 54.8272 120.973 54.2096C118.879 51.7314 119.263 47.2044 119.255 47.1291C119.105 46.8353 115.836 45.8787 112.627 42.5494C112.044 42.0566 111.609 41.4129 111.369 40.6889C111.083 40.6437 110.97 40.9525 110.42 41.6003C110.563 41.4723 110.721 41.3216 110.879 41.5024C111.037 41.6832 110.744 41.8564 110.623 41.9769C108.363 44.312 105.584 45.9992 102.812 47.6639C101.893 48.2138 101.78 48.0782 102.812 48.1535C101.151 48.8919 99.6495 49.9458 98.3905 51.2569C98.2926 50.8501 98.2926 50.8501 99.6936 49.3286C99.2568 49.4039 98.8801 49.6374 98.4433 49.7127C97.998 50.272 97.633 50.8906 97.3586 51.5506C97.7427 51.626 97.5469 51.9724 97.5092 52.221ZM115.768 57.0418C113.727 57.0418 114.096 53.8631 115.934 53.8405C116.338 53.8523 116.723 54.022 117.004 54.3133C117.286 54.6047 117.442 54.9946 117.44 55.3997C117.392 55.8236 117.199 56.2182 116.895 56.5171C116.59 56.8161 116.193 57.0013 115.768 57.0418ZM118.931 51.2795C118.864 51.6787 118.344 51.7389 118.178 52.1306C118.178 52.221 118.02 52.0854 117.952 52.0327C114.457 49.4566 111.52 52.914 111.693 51.0761C111.798 49.9236 111.858 49.8483 113.018 49.5696C116.19 48.7184 119.037 50.6769 118.931 51.2795ZM111.263 46.406C113.547 45.7312 116.004 45.9744 118.11 47.0839C118.299 47.1647 118.461 47.299 118.575 47.4703C118.688 47.6416 118.75 47.8424 118.751 48.0481C114.984 45.3063 111.053 47.2948 110.887 46.7676C110.811 46.5039 111.09 46.4512 111.263 46.406ZM108.657 58.5256C111.324 58.5256 113.425 58.5256 112.898 61.1394C112.303 64.0921 110.126 65.3877 109.358 66.4121C108.491 67.5721 103.829 67.4967 101.953 63.0752C101.664 62.3449 101.447 61.588 101.306 60.8155C101.228 60.6027 101.237 60.3677 101.331 60.1616C101.426 59.9556 101.598 59.7953 101.81 59.7158C103.708 58.6462 106.397 58.5106 108.657 58.5256ZM102.405 56.2659C103.723 54.2171 106.661 52.56 106.864 53.494C106.94 53.8631 106.593 53.7049 106.42 53.7727C105.161 54.3052 104.065 55.1599 103.241 56.2509C103.219 56.2858 103.208 56.3263 103.208 56.3676C103.208 56.4089 103.219 56.4494 103.241 56.4844C103.262 56.5209 103.293 56.5505 103.331 56.5693C103.368 56.5881 103.411 56.5952 103.452 56.5898C104.514 56.4844 105.433 56.0475 106.382 55.942C106.436 55.9377 106.49 55.9517 106.535 55.9817C106.581 56.0118 106.614 56.0562 106.631 56.1077C106.644 56.1599 106.639 56.2149 106.617 56.2641C106.596 56.3132 106.558 56.3536 106.51 56.3789C102.857 58.149 101.788 57.1849 102.383 56.2659H102.405ZM100.763 50.6467C100.899 50.3078 101.072 49.8935 101.516 50.0366C101.961 50.1797 101.953 50.5714 101.908 50.948C101.913 51.8728 101.701 52.7858 101.291 53.6145C100.673 54.6088 99.317 54.2472 100.741 50.6467H100.763ZM100.01 54.9779C100.426 54.9738 100.828 55.1332 101.128 55.422C101.428 55.7108 101.603 56.1058 101.614 56.522C101.561 56.9946 101.345 57.4341 101.005 57.7662C100.665 58.0984 100.22 58.3028 99.7464 58.3449C99.3148 58.3155 98.9093 58.1278 98.6076 57.8178C98.3059 57.5078 98.1294 57.0973 98.1118 56.6651C98.1585 56.2023 98.3756 55.7734 98.7208 55.4616C99.066 55.1498 99.5147 54.9774 99.9799 54.9779H100.01Z" fill="#FFC7D6"/>
<path d="M120.31 94.2297C117.982 94.3728 116.898 92.5048 118.012 94.0263C118.464 93.9359 118.766 95.1487 119.09 95.4725C119.843 95.8567 121.47 94.4406 122.765 95.0281C122.916 95.0809 123.112 95.1863 123.255 94.9603C124.302 93.258 126.193 94.0791 125.997 92.9492C125.952 92.6931 126.049 92.791 125.658 93.0095C125.492 93.0998 125.251 93.3258 125.063 93.0998C124.709 92.6404 126.449 92.7383 126.757 87.202C125.56 88.2188 123.955 91.051 122.517 87.6012C122.483 87.4831 122.46 87.362 122.449 87.2396C122.16 87.3807 121.84 87.4427 121.519 87.4194C121.199 87.396 120.891 87.288 120.626 87.1065C120.361 86.925 120.149 86.6765 120.011 86.3862C119.873 86.096 119.815 85.7745 119.843 85.4544C119.782 82.675 122.577 81.0706 122.713 80.7618C124.972 75.6924 129.386 73.6587 128.151 72.0844C127.345 71.0525 125.033 73.1691 124.166 74.1558C122.178 76.4156 121.379 79.308 120.543 79.1574C119.707 79.0067 119.361 75.9636 119.27 75.1652C118.63 69.8096 118.803 69.1393 117.568 69.2221C116.815 69.2221 116.965 69.9151 116.943 70.3218C116.717 75.1501 117.447 75.813 117.116 77.7187C116.995 78.4719 117.018 78.9389 117.869 79.3005C119.15 79.8277 119.12 80.935 117.907 81.643C117.401 81.9211 116.88 82.1726 116.348 82.3963C117.025 82.7386 117.574 83.2894 117.914 83.9674C118.255 84.6455 118.368 85.415 118.238 86.1625C118.238 86.3809 118.238 86.6973 117.96 86.6898C117.681 86.6822 117.801 86.3433 117.779 86.1474C117.575 84.5204 117.026 83.1345 115.255 82.6675C112.996 82.0272 120.37 81.3418 117.606 79.6922C116.528 79.0444 115.391 79.2477 114.269 79.5114C110.262 80.4605 112.807 84.4752 114.668 89.3035C116.25 93.2957 119.331 93.0471 120.31 94.2297Z" fill="#FFC7D6"/>
<path d="M106.014 86.69C105.637 82.9808 105.683 79.2409 106.149 75.542C105.019 76.0316 104.53 75.9412 104.183 77.1615C102.955 81.5152 101.743 85.4848 106.014 86.69Z" fill="#FFC7D6"/>
<path d="M132.165 115.095C132.918 113.634 132.383 112.971 132.331 111.367C132.195 107.344 130.191 107.992 128.655 103.721C127.08 99.3299 127.035 96.4676 125.905 100.475C125.408 102.23 124.625 102.667 122.892 102.072C121.891 101.718 120.972 100.874 119.209 101.318C118.878 101.401 118.78 101.409 118.885 101.793C119.887 105.559 119.006 108.783 122.034 115.193C122.787 116.865 125.499 118.281 128.331 117.89C129.746 117.163 131.04 116.22 132.165 115.095Z" fill="#FFC7D6"/>
<path d="M32.8515 49.9397C34.6894 50.2486 37.4839 51.5441 38.0262 50.0226C38.7795 47.8533 40.5496 40.2305 40.7303 39.319C41.8602 33.9786 41.6116 33.391 43.4872 27.802C44.376 25.1656 48.3983 9.84473 46.583 7.80345C41.0207 6.7949 35.4047 6.10831 29.7632 5.74711C25.8614 5.52113 28.332 6.29697 23.4284 21.3091C23.7674 21.4823 25.53 20.2244 27.1946 20.0436C30.6369 19.6745 34.2374 21.0982 34.8852 21.7007C35.8042 22.3184 35.2091 24.3823 34.7797 25.3992C34.4784 26.1524 33.6047 26.1976 32.8966 26.3859C29.8837 27.2069 27.7595 25.3088 25.0479 27.1391C35.8569 26.3482 37.0018 26.1976 37.853 30.5061C38.4028 33.2027 35.4275 32.7056 24.5206 33.9409C22.6978 34.1443 21.5076 35.2214 20.3477 36.3136C20.4952 36.3326 20.6445 36.3326 20.7921 36.3136C21.9778 36.1567 23.1755 36.1088 24.37 36.1705C25.0054 36.1573 25.6301 36.3358 26.1627 36.6827C34.1998 41.398 34.1621 40.8029 32.9418 43.8761C32.6631 44.6294 32.5125 45.2696 31.4354 45.1717C27.1268 44.78 25.7107 42.912 22.0048 42.7388C26.0346 44.4637 25.4396 44.893 26.6372 46.8665C27.5788 48.4257 27.7143 48.5914 28.0608 48.6743C29.7406 49.0358 31.247 49.6761 32.8515 49.9397ZM34.1998 11.3286C28.8819 10.3871 28.5504 10.4398 28.0081 9.88993C27.0063 9.09149 27.4959 7.63021 28.3697 6.77905C29.0024 6.16139 29.4619 6.24424 34.8325 7.42683C36.2335 7.74319 36.4896 8.38345 36.4896 9.43045C36.4896 10.8691 35.6309 11.5847 34.1998 11.3286Z" fill="#FFC7D6"/>
<path d="M88.9672 135.13C89.2986 131.673 90.9784 130.739 90.9332 128.765C90.9332 128.132 90.8277 128.343 90.4586 128.057C89.7054 127.462 89.7054 126.837 90.2251 125.971C90.5361 125.486 90.9139 125.047 91.3474 124.668C92.6355 123.636 89.1781 124.344 89.6376 122.016C90.2066 119.445 91.0422 116.941 92.1308 114.544C92.4717 114.035 92.8796 113.574 93.3435 113.173C93.577 112.096 93.5921 108.232 94.0139 106.522C94.0892 105.091 94.2851 104.782 93.6072 103.652C91.2947 99.8256 89.6075 98.0555 89.841 95.1103C89.7958 93.0389 90.6846 92.0974 91.596 91.073C92.7831 89.7475 94.1089 88.5531 95.5505 87.5101C97.057 86.4556 96.5147 86.2974 98.0212 82.3881C98.7744 80.3845 97.7651 80.2338 97.7274 77.8687C97.6963 77.4547 97.6308 77.044 97.5315 76.6409C97.4449 76.3912 97.3063 76.1627 97.1248 75.9705C96.2063 75.6086 95.2082 75.4969 94.2324 75.6466C91.596 76.2718 90.308 81.3562 89.5321 84.2336C88.8994 86.5837 88.7412 88.3613 88.1838 99.3963C87.9955 103.162 88.7337 102.409 87.0389 106.838C84.0259 114.672 80.6514 134.309 81.6909 135.371C81.7481 135.437 81.7796 135.521 81.7796 135.608C81.7796 135.696 81.7481 135.78 81.6909 135.846C81.254 136.282 81.3595 136.87 81.3369 137.352C81.2164 139.657 80.8247 143.604 81.4725 145.751C81.3209 145.773 81.1663 145.76 81.0205 145.713C81.0732 145.999 81.2314 146.142 81.6608 146.052C82.2596 145.931 82.8397 145.731 83.3857 145.457C86.0898 144.048 88.8994 140.516 89.2158 139.875C88.6894 138.348 88.6032 136.704 88.9672 135.13Z" fill="#FFC7D6"/>
<path d="M69.6317 11.7271C71.5852 11.3031 73.516 10.7802 75.4166 10.1604C75.9344 10.0057 76.3944 9.70031 76.7378 9.28307C77.0813 8.86583 77.2926 8.35571 77.3448 7.81782C77.3448 6.52978 75.8384 6.14563 74.7537 6.44692C74.3545 6.55238 73.9025 6.79342 73.5636 6.68796C73.2246 6.58251 73.4883 6.15316 73.089 5.33213C73.0127 5.10372 72.8766 4.89992 72.6949 4.74192C72.5131 4.58391 72.2924 4.47747 72.0556 4.43365C71.8188 4.38982 71.5746 4.41022 71.3483 4.49272C71.1221 4.57522 70.9221 4.71682 70.7691 4.90278C69.722 5.91966 69.4057 7.99107 68.7353 10.6877C68.5093 11.5087 68.8106 11.9456 69.6317 11.7271ZM70.0083 9.85911C71.5148 3.77292 72.6371 5.48278 72.1023 7.68977C71.9366 8.37522 72.5015 8.80457 73.0815 8.34509C73.7125 7.8085 74.5129 7.51234 75.3412 7.50899C75.6199 7.50899 75.9815 7.41107 76.0945 7.77263C76.3581 8.60119 74.942 9.19625 74.0683 9.3921C70.0008 10.2885 69.8576 10.4391 70.0083 9.85911Z" fill="#FFC7D6"/>
<path d="M63.9369 67.2044C63.5678 67.0462 62.4907 67.4831 61.0671 66.8504C56.3442 64.7263 56.7585 64.0031 53.8058 62.6096C52.9548 62.0738 51.9784 61.7699 50.9736 61.7284C48.857 61.9091 47.584 61.7962 47.8251 62.3159C48.1866 62.6398 52.1788 66.5868 51.8022 67.3927L51.5687 67.1668C51.4482 67.1668 51.3578 67.0161 51.2674 66.9332C47.5012 63.2273 47.0342 61.4798 48.503 65.7657C48.9097 66.9634 48.9323 68.3041 49.7383 69.3737C50.2581 70.0667 48.8872 73.3885 48.5407 76.0701C48.5407 76.4015 48.164 76.3186 48.1038 76.1153C47.8326 76.0701 47.9456 75.7612 47.9381 75.5729C47.8401 72.56 49.9643 69.6073 48.8118 68.4623C47.9983 67.6865 46.4617 60.0411 43.2002 56.2071C42.3867 55.6874 40.3755 57.1863 37.4605 57.5177C38.5452 58.158 38.9142 58.4593 38.8465 58.0375C38.6732 57.1035 39.3436 57.917 41.1966 58.7907C41.4699 58.9166 41.7099 59.1049 41.8971 59.3406C42.1444 59.5697 42.3248 59.8618 42.419 60.1855C42.5132 60.5092 42.5176 60.8524 42.4319 61.1785C41.5807 68.274 40.9857 73.8555 38.3794 80.7627C37.7091 82.5253 37.4906 81.0339 37.807 80.2505C38.2589 79.1433 37.453 79.196 37.1667 79.0002C35.5247 77.8703 33.6491 77.1623 31.894 76.0475C32.2933 78.0285 32.7 79.9041 33.9127 81.4859C38.0104 86.8113 36.1197 87.3687 44.7217 80.7326C45.475 80.1451 45.7461 80.9887 45.9646 81.8474C45.9799 81.9124 45.9747 81.9806 45.9498 82.0426C45.9249 82.1046 45.8814 82.1573 45.8253 82.1936C45.7692 82.2299 45.7032 82.248 45.6365 82.2453C45.5697 82.2427 45.5054 82.2195 45.4524 82.1788C44.6087 81.5085 45.6934 81.5762 40.2927 85.2445C40.594 85.3801 40.7823 85.6061 41.0459 85.7341C41.7389 86.0731 45.2641 86.9243 47.0718 88.8902C48.6612 90.3967 48.0737 91.4814 48.9625 92.1216C49.6479 92.6037 51.2222 92.6489 51.7871 92.0388C58.265 85.0336 55.5533 87.798 67.1156 73.5316C67.1639 73.4824 67.1909 73.4161 67.1909 73.3471C67.1909 73.2781 67.1639 73.2118 67.1156 73.1625C66.2795 71.5807 64.8559 67.8823 63.9369 67.2044ZM57.4364 71.3774C56.465 75.9019 54.5446 80.1688 51.8022 83.8962C49.5048 86.864 48.3599 85.9149 49.0227 85.463C53.3162 82.6684 55.5232 74.8347 56.638 71.513C57.3235 69.5018 57.7227 70.2927 57.4364 71.3774Z" fill="#A6EEF8"/>
<path d="M139.886 135.304C139.843 134.923 139.723 134.554 139.534 134.22C139.345 133.886 139.091 133.594 138.786 133.361C138.598 133.248 128.391 128.841 128.15 129.015C131.088 135.432 131.54 140.735 134.101 142.701C134.937 143.228 136.489 143.522 140.27 144.208C141.076 144.358 141.438 143.982 141.438 143.183C141.438 139.379 140.451 138.942 139.886 135.304Z" fill="#A6EEF8"/>
<path d="M94.654 34.4766C94.0923 33.3661 93.2177 32.4444 92.1382 31.8252C93.7125 37.0979 92.4997 41.6173 92.8914 42.1973C93.8388 43.6166 94.4044 45.2562 94.5335 46.9578C95.6483 46.2046 95.0683 45.2103 95.46 43.2971C96.098 40.3436 95.8167 37.2656 94.654 34.4766Z" fill="#A6EEF8"/>
<path d="M92.2664 41.3599C92.6354 38.6994 92.559 35.996 92.0404 33.3605C91.8973 32.66 91.9124 31.7485 91.2872 31.3644C89.8036 30.4242 88.163 29.7583 86.4438 29.3984C87.6519 31.2712 88.4834 33.3615 88.8919 35.5524C89.2384 37.3602 87.7997 35.1532 92.2664 41.3599Z" fill="#A6EEF8"/>
<path d="M102.76 88.778C101.909 85.0796 100.583 81.4942 100.093 77.7054C100.053 77.4741 99.9654 77.2537 99.8358 77.0579C99.7061 76.8622 99.5374 76.6954 99.3402 76.568C98.7828 76.4399 98.3309 76.2215 98.1426 76.7186C99.0163 79.4303 96.5156 70.3387 100.628 88.424C101.246 91.1357 102.135 93.7871 102.624 96.5289C105.419 111.594 108.854 115.262 112.884 119.329C113.373 119.691 113.712 117.989 113.516 117.763C104.982 107.33 106.24 103.843 102.76 88.778Z" fill="#A6EEF8"/>
<path d="M103.142 21.3698C104.257 21.754 104.498 21.6862 104.845 20.5638C107.398 12.2782 107.466 11.9769 107.104 10.4779C107.3 9.7247 106.848 9.7247 101.636 7.11849C101.537 7.05523 101.425 7.01579 101.309 7.00332C101.193 6.99084 101.075 7.00566 100.965 7.0466C100.856 7.08754 100.757 7.15347 100.677 7.23917C100.597 7.32487 100.539 7.42797 100.506 7.5403C99.4664 9.85275 100.634 9.80002 95.9864 8.6325C94.3443 8.18056 94.5929 9.68704 92.4537 16.2704C91.8511 18.1459 91.3314 17.34 103.142 21.3698ZM101.455 8.83587C101.575 8.27848 101.643 8.48938 105.462 10.3951C105.907 10.6135 105.741 11.0579 105.402 11.0203C100.265 9.68704 101.124 10.2821 101.455 8.83587ZM104.227 13.4532C104.167 14.086 103.233 13.8299 103.233 13.28C103.233 12.7301 104.189 12.813 104.227 13.4532ZM93.5911 16.3758C95.5043 9.51379 95.1654 9.73223 95.8508 9.92807L103.767 12.1275C102.412 12.8205 102.133 13.2649 102.517 14.0031C103.27 15.4192 105.771 14.6584 104.506 12.4288C104.86 12.2707 105.153 12.5343 105.47 12.5644C105.786 12.5945 105.733 12.8506 105.666 13.0917C103.534 20.0667 103.782 20.2249 102.961 19.9612C93.0638 16.6846 93.3802 17.0311 93.5911 16.3758Z" fill="#A6EEF8"/>
<path d="M85.9467 24.6915C86.0449 24.8562 86.1934 24.985 86.3702 25.0591C86.5471 25.1332 86.743 25.1486 86.9293 25.1031C87.1156 25.0576 87.2823 24.9535 87.4051 24.8062C87.5279 24.6589 87.6002 24.4761 87.6114 24.2847C88.0859 21.8141 87.7168 22.3715 91.1441 22.3263C92.3267 22.3263 92.8087 21.0081 91.4454 20.4809C89.0425 19.5694 88.6734 19.5996 88.9069 18.9217C89.1404 18.2437 88.6132 17.3474 87.5285 17.8521C86.5644 18.304 86.2706 18.5601 85.3291 18.1383C83.0015 17.0988 82.6475 17.0386 82.2332 17.5357C81.4348 18.4848 83.5815 19.6372 82.4818 20.0892C81.7314 20.4926 80.9106 20.7483 80.0639 20.8424C79.5818 20.8424 79.1299 20.9253 79.1299 21.5128C79.1299 22.1003 79.5969 22.3037 80.1016 22.3112C85.5776 22.5523 83.6569 21.3471 85.9467 24.6915Z" fill="#A6EEF8"/>
<path d="M90.4217 75.8296C89.1185 74.9634 87.3409 74.3231 86.4445 73.1406C86.2336 72.8694 86.3542 72.9372 84.0342 75.5585C83.6952 75.9501 83.8308 75.7468 86.1432 78.3229C86.8362 79.0761 88.5461 81.0345 89.3295 81.7426C90.979 76.3418 92.139 76.9444 90.4217 75.8296Z" fill="#A6EEF8"/>
<path d="M133.303 122.206C137.89 131.795 136.097 131.87 137.626 131.998C137.867 131.998 138.056 132.081 137.958 131.644C136.7 125.935 134.109 121.935 132.632 118.839C132.371 118.186 132.074 117.547 131.743 116.926C130.862 117.92 130.373 116.06 133.303 122.206Z" fill="#A6EEF8"/>
<path d="M131.712 140.992C129.37 136.472 129.046 129.904 126.696 128.187C126.899 129.437 127.042 130.499 127.268 131.546C127.524 132.736 129.4 138.205 129.453 138.265C129.857 138.386 130.202 138.655 130.417 139.018C131.554 140.268 130.741 140.525 130.575 140.186C130.398 139.756 130.142 139.363 129.822 139.026C129.204 138.589 128.956 139.206 128.677 139.538C128.278 140.012 128.873 139.764 130.891 140.939C131.268 141.157 131.712 141.752 132.149 141.911C132.097 141.76 132.097 141.843 131.712 140.992Z" fill="#A6EEF8"/>
<path d="M128.73 137.738C126.877 132.187 126.81 133.799 126.004 127.833C125.943 127.343 125.567 126.982 125.25 126.989C124.693 126.989 124.904 127.562 124.934 127.923C125.243 131.057 126.403 136.593 127.947 139.117C128.422 139.139 128.881 138.22 128.73 137.738Z" fill="#A6EEF8"/>
<path d="M86.9635 51.3714C84.1238 51.3262 84.2217 55.8457 86.9183 55.8909C89.8258 55.9285 89.3437 51.4091 86.9635 51.3714Z" fill="#A6EEF8"/>
<path d="M68.6525 48.2688C67.3117 47.2595 65.3006 48.8112 66.084 51.3345C66.1522 51.5706 66.273 51.7883 66.4373 51.971C66.6017 52.1538 66.8053 52.2969 67.0329 52.3897C67.2605 52.4825 67.5062 52.5225 67.7515 52.5067C67.9968 52.491 68.2353 52.4198 68.4491 52.2987C70.1138 51.4701 70.2418 49.4363 68.6525 48.2688Z" fill="#A6EEF8"/>
<path d="M118.269 121.536C117.983 121.19 118.096 121.325 117.757 121.808C117.101 122.742 117.621 123.141 117.885 123.563C119.579 125.446 119.097 128.368 119.391 128.835C119.941 129.219 120.898 128.157 120.815 127.577C120.593 125.354 119.705 123.248 118.269 121.536Z" fill="#A6EEF8"/>
<path d="M110.601 141.564C110.609 141.827 110.703 142.08 110.868 142.286C111.033 142.491 111.26 142.637 111.515 142.701C111.77 142.766 112.04 142.746 112.282 142.644C112.525 142.542 112.728 142.364 112.861 142.137C112.107 141.489 111.354 140.826 110.601 140.163C110.574 140.63 110.574 141.097 110.601 141.564Z" fill="#A6EEF8"/>
<path d="M111.165 137.844C110.517 138.115 110.57 138.726 110.57 139.434C111.225 140.051 110.57 139.494 113.025 141.603C113.462 138.929 112.001 137.505 111.165 137.844Z" fill="#A6EEF8"/>
<path d="M110.713 131.245C110.719 130.898 110.591 130.563 110.355 130.308C110.119 130.054 109.794 129.901 109.447 129.882C109.136 129.893 108.84 130.019 108.617 130.236C108.395 130.454 108.261 130.746 108.242 131.057C108.219 131.936 108.31 132.815 108.513 133.671C108.558 133.93 108.702 134.161 108.914 134.316C109.126 134.471 109.391 134.536 109.651 134.499C111.037 134.364 110.72 132.744 110.713 131.245Z" fill="#A6EEF8"/>
<path d="M130.32 127.712C131.307 127.486 130.877 126.205 130.802 125.061C130.599 124.458 130.441 124.247 130.734 124.126C130.735 123.92 130.704 123.714 130.644 123.516C130.32 124.27 129.943 125.128 130.23 125.656C130.719 126.605 128.957 126.213 129.476 124.481C129.647 123.928 129.863 123.392 130.124 122.876C128.512 122.251 128.49 125.392 128.851 126.959C128.975 127.232 129.187 127.455 129.454 127.592C129.721 127.729 130.026 127.771 130.32 127.712Z" fill="#A6EEF8"/>
<path d="M96.1072 125.528C95.821 124.021 93.9379 124.142 93.7496 125.144C93.373 127.072 94.3145 129.595 95.5272 128.481C95.7876 128.216 95.9788 127.891 96.0839 127.535C96.189 127.179 96.2048 126.803 96.1298 126.439C96.1475 126.135 96.14 125.831 96.1072 125.528Z" fill="#A6EEF8"/>
<path d="M98.2389 123.493C99.1202 123.734 100.001 123.99 100.868 124.246C100.817 123.894 100.747 123.544 100.657 123.199C100.6 122.894 100.429 122.622 100.179 122.439C99.9288 122.255 99.618 122.174 99.3099 122.211C99.0018 122.248 98.7195 122.402 98.5206 122.64C98.3216 122.878 98.2209 123.183 98.2389 123.493Z" fill="#A6EEF8"/>
<path d="M100.845 124.933C99.9942 124.669 99.1355 124.406 98.2769 124.18C98.6459 126.982 100.665 126.477 100.845 124.933Z" fill="#A6EEF8"/>
<path d="M117.01 138.295C117.493 138.137 117.711 137.723 117.764 137.067C117.493 136.374 117.236 135.561 116.845 134.755C116.716 134.554 116.524 134.403 116.299 134.324C116.074 134.245 115.829 134.244 115.603 134.32C115.378 134.396 115.184 134.545 115.052 134.744C114.921 134.943 114.86 135.18 114.879 135.418C115.067 136.849 115.64 138.762 117.01 138.295Z" fill="#A6EEF8"/>
<path d="M109.983 123.027C109.764 122.928 109.56 122.796 109.38 122.636C109.153 122.661 108.936 122.743 108.748 122.875C108.561 123.007 108.411 123.183 108.311 123.389L110.57 125.242C110.631 124.459 110.423 123.678 109.983 123.027Z" fill="#A6EEF8"/>
<path d="M110.494 125.618C109.573 125.185 108.777 124.524 108.182 123.697C108.079 124.057 108.055 124.435 108.114 124.805C108.085 125.072 108.085 125.343 108.114 125.61C108.113 125.926 108.238 126.229 108.46 126.453C108.683 126.677 108.985 126.803 109.301 126.804C109.616 126.805 109.919 126.681 110.143 126.458C110.367 126.236 110.493 125.934 110.494 125.618Z" fill="#A6EEF8"/>
<path d="M125.04 124.337C125.342 124.286 125.616 124.128 125.811 123.891C126.006 123.655 126.11 123.356 126.102 123.049C126.011 121.331 125.883 119.983 124.738 120.119C123.593 120.254 123.804 121.181 123.804 122.092C123.804 122.439 123.804 122.778 123.804 123.117C123.823 123.437 123.959 123.739 124.187 123.964C124.416 124.19 124.719 124.323 125.04 124.337Z" fill="#A6EEF8"/>
<path d="M116.37 143.395C116.219 143.413 116.077 143.474 115.959 143.57C115.842 143.666 115.754 143.794 115.707 143.938C115.963 144.171 116.535 144.525 116.227 144.841C115.918 145.158 115.775 144.841 115.586 144.646C115.545 145.15 115.575 145.657 115.677 146.152C116.416 146.379 117.172 146.55 117.936 146.664C117.974 146.551 118.004 146.423 118.034 146.295C117.793 145.12 117.56 143.245 116.37 143.395Z" fill="#A6EEF8"/>
<path d="M94.104 121.739C93.8931 120.466 93.9157 119.246 92.6427 119.419C91.3697 119.592 91.7162 121.234 92.1079 122.59C92.3565 123.494 94.0739 123.584 94.104 121.739Z" fill="#A6EEF8"/>
<path d="M120.634 123.614C120.833 124.852 121.292 126.033 121.982 127.079C123.767 128.503 123.632 128.495 123.812 127.388C124.016 126.062 124.596 127.034 120.634 123.614Z" fill="#A6EEF8"/>
<path d="M116.535 124.564C116.486 124.333 116.351 124.13 116.158 123.994C115.965 123.859 115.727 123.802 115.493 123.834C115.26 123.867 115.047 123.986 114.898 124.169C114.749 124.352 114.674 124.585 114.69 124.82C114.674 125.195 114.691 125.571 114.743 125.943C115.368 126.003 116 126.086 116.618 126.199C116.806 125.664 116.776 125.077 116.535 124.564Z" fill="#A6EEF8"/>
<path d="M98.1114 17.5355C98.9847 17.5337 99.8226 17.1895 100.445 16.5769C101.067 15.9643 101.425 15.1321 101.441 14.2589C101.405 13.459 101.059 12.7047 100.475 12.1571C99.8904 11.6096 99.1153 11.3123 98.3148 11.3288C94.3452 11.374 93.8179 17.5355 98.1114 17.5355ZM98.5859 12.549C99.0526 12.5964 99.4842 12.8182 99.7943 13.1702C100.104 13.5222 100.27 13.9783 100.258 14.4472C100.236 15.0117 100.004 15.5475 99.6063 15.949C99.209 16.3506 98.6756 16.5887 98.1114 16.6165C97.6409 16.6012 97.1943 16.4059 96.8635 16.071C96.5328 15.736 96.3431 15.2869 96.3337 14.8163C96.3561 14.2221 96.6022 13.6583 97.0226 13.2379C97.4431 12.8175 98.0068 12.5714 98.601 12.549H98.5859Z" fill="#A6EEF8"/>
<path d="M140.685 134.235C140.663 134.036 140.596 133.846 140.489 133.677C140.382 133.509 140.238 133.367 140.068 133.263C138.757 132.751 138.938 131.756 138.267 129.534C136.279 122.823 131.963 116.729 132.362 116.277C133.273 115.163 133.379 113.649 134.185 112.511C134.299 112.293 134.37 112.055 134.396 111.811C135.834 104.677 132.136 104.045 134.034 96.309C135.616 89.8462 136.467 83.067 130.306 80.0164C125.907 77.832 125.033 78.1107 125.869 77.2671C129.545 73.4029 129.778 73.0037 128.505 71.4144C127.948 70.8419 127.353 71.0076 126.675 71.2939C124.875 72.0471 124.739 73.1619 123.007 72.4538C121.274 71.7458 120.506 70.5783 121.666 68.2508C122.939 65.6897 117.945 66.6464 118.615 61.9311C119.286 57.2158 126.856 50.414 125.982 49.7587C125.613 49.4875 125.553 50.3086 122.366 53.8714C121.786 54.5267 121.786 54.5192 121.297 53.7584C120.107 51.8828 119.79 49.5629 119.625 47.1977C121.817 48.0112 125.153 48.9753 127.21 48.7042C127.391 48.7042 127.654 48.7042 127.624 48.4104C127.594 48.1166 127.36 48.2447 127.21 48.2447C121.674 48.2447 114.51 44.4785 112.213 41.3827C110.134 38.5656 111.46 43.3938 118.841 46.8587C119.067 46.9642 119.338 46.9567 119.286 47.3709C119.03 49.5553 119.625 53.0428 121.463 54.6924C121.809 55.0013 118.706 57.7657 117.952 61.3586C116.988 65.8781 121.018 66.6313 121.237 67.2791C121.357 67.6331 120.898 68.1227 120.574 69.1848C120.442 69.5402 120.384 69.9188 120.403 70.2974C120.422 70.676 120.518 71.0468 120.685 71.3871C120.852 71.7275 121.087 72.0303 121.374 72.2771C121.662 72.5239 121.997 72.7096 122.359 72.8229C122.932 72.999 123.523 73.1077 124.122 73.1468C122.758 74.7019 121.596 76.4228 120.664 78.2689C118.917 73.0414 120.438 68.0775 117.327 68.5295C116.521 68.65 116.378 69.23 116.295 69.9079C116.069 71.7307 116.137 71.4144 116.604 78.8187C113.772 78.7434 111.166 79.3159 111.429 82.3138C111.693 85.3117 113.629 87.0968 112.183 87.1722C110.857 87.24 106.564 87.6919 106.451 86.5018C106.12 82.8231 106.171 79.1201 106.601 75.4517C106.619 75.3316 106.67 75.2186 106.746 75.1245C106.823 75.0305 106.924 74.9588 107.038 74.9169C107.302 74.7588 107.339 75.0751 107.467 75.1806C107.821 75.4743 108.017 75.851 108.281 75.6928C108.545 75.5346 107.769 74.0959 107.392 73.3879C106.217 71.1733 104.921 71.4219 101.811 70.1188C100.677 69.727 99.6466 69.0832 98.7976 68.2357C96.2667 65.4336 95.4381 62.3002 97.035 58.7223C97.9992 56.5755 96.7337 56.8392 97.5321 52.2143C97.5321 52.0787 97.7732 51.5213 97.3966 51.5213C96.7714 51.3782 96.4625 54.2405 96.4399 54.9335C96.0709 54.7376 96.0332 54.3911 95.9503 54.1124C95.0615 51.333 95.8072 48.772 97.0425 46.2938C97.1387 46.0367 97.3118 45.8156 97.5383 45.6605C97.7647 45.5055 98.0335 45.4241 98.308 45.4276C98.4285 45.4276 98.5942 45.3824 98.5038 45.2317C98.3005 44.8777 98.6093 44.6743 98.7298 44.4785C103.091 36.351 117.034 33.3983 123.323 38.7991C125.232 40.3434 126.847 42.2188 128.091 44.3354C126.705 43.4466 126.321 42.6029 126.08 42.8289C126.034 42.889 126.014 42.9646 126.024 43.0393C126.034 43.1141 126.073 43.1819 126.133 43.2281C126.524 43.6198 127.247 44.3655 127.94 44.9304C128.023 44.9964 128.124 45.0356 128.229 45.0429C128.335 45.0501 128.44 45.0251 128.53 44.9711C128.621 44.9171 128.694 44.8367 128.737 44.7406C128.781 44.6445 128.795 44.5373 128.777 44.4333C128.714 43.9498 128.55 43.4851 128.294 43.0699C123.986 36.5092 118.713 34.8295 111.324 35.7484C106.315 36.3812 99.483 39.8988 97.9539 44.7271C97.7958 45.2167 96.907 44.8551 95.9955 46.7608C94.8431 49.1787 94.0296 53.1031 95.9051 55.182C97.6451 57.1028 95.5888 58.308 95.7018 62.3755C95.8449 67.731 99.0838 70.4352 104.191 71.8738C105.161 72.1517 105.991 72.7833 106.518 73.644C106.948 74.2918 106.782 74.5102 106.164 74.7814C98.549 78.058 95.5059 72.3559 92.1013 76.1975C91.6569 76.7021 92.1013 75.6852 89.6382 74.4273C86.5348 72.8757 86.4746 70.503 82.5502 70.2619C82.392 70.2619 82.1962 70.2619 82.1736 70.0284C82.319 69.3306 82.6831 68.6974 83.213 68.2206C91.9732 63.7012 90.994 55.634 93.1784 53.1558C93.7205 52.5425 94.1334 51.8262 94.3922 51.0496C94.6511 50.2731 94.7506 49.4523 94.6849 48.6364C94.6553 48.4371 94.6771 48.2335 94.7483 48.045C94.8195 47.8565 94.9377 47.6893 95.0916 47.5592C95.5134 47.2362 95.8246 46.7904 95.9824 46.2832C96.1403 45.776 96.1369 45.2323 95.9729 44.7271C95.7394 43.9738 96.6207 41.3827 96.0332 36.4791C95.9414 35.3141 95.5562 34.1913 94.9135 33.2153C94.2707 32.2394 93.3914 31.442 92.3574 30.8976C90.6849 29.931 88.8772 29.2201 86.9943 28.7885C84.7346 28.329 85.5406 27.7716 83.4164 26.9355C78.8518 25.1353 70.8222 25.6249 69.9635 30.0389C69.1048 30.1142 69.1124 29.6171 68.8412 27.2519C68.7734 26.6644 68.3591 26.7547 68.1784 27.0259C66.3404 29.828 66.5137 33.3155 66.4384 33.2778C65.2332 32.2835 64.6381 30.0238 63.8924 31.6056C63.2823 32.9162 63.4706 35.0404 63.7794 36.3284C63.0007 35.6478 62.4575 34.7381 62.2277 33.7297C62.1675 33.5113 62.2729 33.1723 61.9189 33.1648C61.5649 33.1573 61.5498 33.5339 61.5122 33.7674C61.2663 35.0654 61.1628 36.3864 61.2033 37.7069C61.2777 38.8323 61.6867 39.9097 62.3779 40.801C63.0692 41.6922 64.011 42.3564 65.0825 42.7084C65.542 42.8289 66.0241 42.8666 66.589 42.9569C65.7264 44.6005 65.1097 46.3618 64.7586 48.1844C63.5158 47.3483 62.9358 47.4312 61.9867 48.5912C61.0376 49.7512 61.1431 50.9112 61.2335 52.154C61.248 52.942 61.4684 53.7125 61.8727 54.389C62.2771 55.0655 62.8513 55.6246 63.5384 56.0106C64.6456 56.6132 62.529 60.1158 67.7716 64.6578C69.4647 65.9845 71.2493 67.1902 73.1121 68.2658C76.3736 70.3598 78.4526 69.6141 82.0003 68.8232C81.571 69.8778 79.9666 73.3879 80.4411 73.5762C80.7575 73.7042 80.8629 73.3201 80.9608 73.0941C81.9099 70.9022 81.7819 70.6536 82.1058 70.7515C82.9162 70.9086 83.7051 71.1615 84.4559 71.5048C81.9476 71.8287 78.6861 81.2969 73.6469 76.6117C70.6943 73.7385 68.5465 70.1415 67.4176 66.1794C67.3347 65.8856 67.1841 65.3734 66.7397 65.3207C66.3368 65.2514 65.9242 65.2631 65.5259 65.3549C65.1276 65.4467 64.7516 65.6169 64.4197 65.8555C62.4387 67.3619 58.9813 65.4487 57.0304 63.9121C54.0927 61.5996 52.1645 60.3568 49.1891 60.8991C48.3229 61.0648 47.5094 61.1854 47.3211 62.4056C46.5679 60.3869 44.617 54.7075 42.3798 55.4683C34.0942 58.2854 36.9716 56.7111 26.8857 50.9488C26.7652 50.881 26.6145 50.8283 26.6221 50.64C27.0808 50.0821 27.7304 49.7143 28.4449 49.6081C37.9583 52.7039 38.4931 52.8018 39.2313 50.1052C39.8188 47.966 48.5564 12.7671 48.5263 9.34735C48.5263 8.25515 47.8408 7.18555 47.0198 7.08763C45.1367 6.78633 43.2536 6.40971 41.3705 6.22894C28.814 5.00869 27.3527 4.15752 26.4865 6.61309C25.5675 9.20424 26.4865 8.17983 22.7579 20.8493C22.0047 23.5083 21.6431 20.9548 12.8829 28.9994C10.8793 30.8448 9.74946 32.8937 10.1035 35.7786C11.2183 44.6291 12.3029 45.2995 11.4367 47.5366C11.2714 47.9185 11.2108 48.3375 11.2611 48.7505C11.3114 49.1636 11.4708 49.5558 11.723 49.8868C20.2572 62.0441 22.3135 67.8139 30.1548 74.5253C32.3617 76.4234 30.908 78.9016 33.1677 81.4777C36.2334 84.935 35.7137 86.9839 38.2596 86.6374C39.0945 86.4431 39.9591 86.4124 40.8056 86.547C42.8824 87.0519 44.8202 88.0144 46.4775 89.3641C48.0367 90.7199 47.8182 91.0288 47.8408 92.4449C48.0066 104.497 46.3871 104.828 45.9577 112.85C45.4983 121.49 47.6525 123.787 47.306 125.437C46.9972 126.898 49.0536 127.885 48.7523 128.405C47.9388 129.806 47.7505 131.418 47.4115 132.924C46.5905 136.57 48.6543 135.236 48.338 138.084C48.2476 138.837 48.2024 142.385 49.0912 142.136C49.4528 142.038 49.2343 141.692 49.2117 141.451C49.0334 140.093 48.9679 138.722 49.0159 137.353C51.1087 138.02 53.114 138.936 54.9891 140.08C59.8098 143.439 65.4742 140.584 67.4854 140.08C72.0048 139.048 76.464 137.948 80.9006 136.517C80.6897 137.918 79.9741 145.172 81.0889 145.661C81.2377 145.695 81.3921 145.695 81.5408 145.661C80.8931 143.56 81.2847 139.507 81.4053 137.263C81.4053 136.766 81.3224 136.186 81.7593 135.756C81.818 135.691 81.8506 135.607 81.8506 135.519C81.8506 135.431 81.818 135.347 81.7593 135.282C80.7575 134.272 84.1094 114.65 87.1148 106.756C88.8247 102.237 88.0639 102.99 88.2522 99.3069C88.7946 89.0553 88.9151 86.7278 89.608 84.1517C91.7548 76.1749 93.1935 74.6156 97.3288 75.9263C97.5623 75.9941 97.487 75.9263 97.7882 77.5834C98.7223 82.6226 98.888 80.1068 97.7882 82.9992C97.1631 84.694 97.276 85.0028 96.9145 85.8239C95.9353 88.0836 86.7759 92.0306 90.8886 99.111C95.3101 106.779 93.9015 102.817 94.0597 107.51C94.1049 109.28 93.442 110.99 93.5927 112.782C93.5927 113.106 92.4704 113.829 92.1841 114.5C91.0988 116.898 90.2633 119.402 89.6909 121.972C89.254 124.149 92.3272 123.682 91.5589 124.473C90.9088 124.997 90.3924 125.668 90.0525 126.431C89.9054 126.703 89.8704 127.021 89.9548 127.318C90.0393 127.615 90.2365 127.867 90.5044 128.02C90.768 128.216 91.2577 128.284 91.0769 128.841C90.9639 129.203 91.1597 129.595 90.9564 129.979C90.2059 131.54 89.5837 133.16 89.0958 134.822C88.6416 136.475 88.7153 138.229 89.3068 139.839C90.06 138.558 89.0732 137.481 89.7286 135.395C92.0937 127.862 90.414 131.741 94.007 130.634C91.7473 137.285 91.9883 145.699 92.9524 145.556C93.2387 145.556 93.1407 145.104 93.1407 144.848C93.1935 142.166 92.3875 140.795 93.6304 140.238C96.2211 139.001 98.5427 137.266 100.462 135.131C100.718 134.845 101.705 133.843 102.127 133.301C103.371 133.985 104.767 134.343 106.187 134.34C106.563 134.34 106.563 134.596 106.594 134.807C106.667 135.625 106.929 136.414 107.359 137.113C107.789 137.812 108.375 138.402 109.072 138.837C110.134 139.522 108.206 142.377 108.838 143.673C108.857 143.71 108.889 143.74 108.927 143.758C108.965 143.776 109.008 143.78 109.049 143.771C109.092 143.761 109.13 143.737 109.157 143.702C109.184 143.668 109.199 143.626 109.2 143.582C109.2 142.174 110.028 140.984 109.9 139.492C116.288 144.765 115.836 145.239 116.273 144.765C116.71 144.29 115.166 143.725 110.623 139.349C109.509 138.28 107.611 137.843 107.249 135.636C106.835 133.12 107.249 130.619 107.467 128.103C107.467 127.847 107.467 127.463 107.867 127.395C108.416 127.305 108.883 129.806 110.714 128.111C111.362 127.516 112.175 126.936 112.793 127.561C116.017 130.868 117.531 132.08 118.819 134.717C119.942 136.743 120.808 138.901 121.395 141.142C121.448 141.398 121.591 141.458 121.817 141.315C122.065 140.818 121.267 140.328 123.82 138.731C124.89 137.978 124.943 137.722 124.122 136.698C123.203 135.545 122.615 134.205 121.643 132.999C122.791 132.885 123.886 132.463 124.815 131.779C126.969 137.918 127.398 140.238 128.844 140.743C130.291 141.247 131.526 142.739 133.266 142.889C134.025 143.381 134.871 143.721 135.759 143.891C140.392 144.757 140.158 145.292 141.604 144.983C141.864 144.948 142.101 144.819 142.272 144.621C142.443 144.422 142.535 144.168 142.531 143.906C142.553 139.5 141.695 138.897 140.685 134.235ZM94.6548 34.4755C95.796 37.2708 96.0588 40.3475 95.408 43.2959C94.9485 45.6385 95.6792 45.5556 94.4966 47.1902C94.4102 45.4055 93.8371 43.6785 92.8395 42.1962C92.4628 41.6237 93.6756 37.0741 92.0862 31.824C93.1836 32.4372 94.0767 33.3592 94.6548 34.4755ZM91.333 31.3646C91.9356 31.7563 91.9205 32.6601 92.0862 33.3607C92.6074 35.9957 92.6863 38.6991 92.3197 41.3601C87.8455 35.1684 89.3068 37.2926 88.9603 35.5526C88.558 33.354 87.7234 31.2571 86.5047 29.3836C88.2135 29.7694 89.8456 30.4391 91.333 31.3646ZM71.1311 29.0672C73.3908 26.2049 78.43 26.009 82.1208 27.2594C85.6309 28.4495 87.3483 32.1856 88.0865 35.8313C86.8938 34.9706 85.5164 34.4005 84.0642 34.1666C73.5188 33.0292 73.7749 34.8747 72.9162 33.9633C72.2534 33.2703 71.5755 32.6074 70.9503 31.8843C70.6848 31.4539 70.5596 30.9516 70.592 30.447C70.6244 29.9423 70.8128 29.4602 71.1311 29.0672ZM63.7719 48.4481C65.3537 49.4047 63.6815 50.0675 63.7719 55.634C60.2769 52.6587 62.4236 47.6346 63.7719 48.4481ZM76.577 68.7856C75.8024 68.6561 75.0649 68.3606 74.4152 67.9193C70.649 65.8781 67.862 64.3189 65.4742 61.4038C63.0864 58.4888 65.3688 48.192 66.3329 44.5312C66.4911 43.9437 67.0033 43.4767 66.8526 42.7611C66.7623 42.2941 66.3404 42.5728 65.0449 42.1208C64.0936 41.7248 63.2765 41.0631 62.6914 40.2148C62.1063 39.3666 61.778 38.3677 61.7457 37.3378C61.7346 36.5784 61.8105 35.8202 61.9716 35.078C62.3859 35.8313 63.5911 37.7822 64.3444 37.383C65.0976 36.9837 63.915 35.5526 64.0883 33.2929C64.125 32.8033 64.2394 32.3228 64.4272 31.8692C65.3462 32.984 65.9337 34.4227 67.7189 34.5207C66.8225 34.1214 66.9656 33.3531 67.0334 32.6526C67.1656 31.0519 67.6055 29.4918 68.329 28.0578C68.7207 29.9259 68.6303 30.0539 69.602 31.2441C71.1085 33.1347 72.4417 36.2305 76.9762 36.5167C77.6577 36.6726 78.3674 36.6545 79.0401 36.464C77.4432 35.7108 75.6053 35.8087 73.9708 34.8521C75.4019 34.3323 81.6614 34.4604 84.1094 34.9274C87.9359 35.6806 88.0639 37.6315 91.7699 42.2715C93.3217 44.3711 94.0868 46.9491 93.9316 49.5553C93.8141 50.6724 93.4404 51.7473 92.8395 52.6963C93.1633 51.1899 92.621 49.7738 92.7792 48.3275C92.7792 48.1166 92.7792 47.8229 92.493 47.8455C92.2067 47.8681 92.3574 48.1618 92.3272 48.3275C91.928 50.8132 93.3893 49.3143 90.1805 59.0763C89.8043 60.2564 89.3591 61.4133 88.8473 62.5412C86.1733 65.2152 83.2733 69.245 76.592 68.7931L76.577 68.7856ZM65.0223 66.5258C65.2181 66.4505 66.4082 65.4788 66.8075 66.8196C68.0277 70.8796 71.3872 77.2445 74.9048 78.3894C78.4224 79.5343 80.9307 76.0619 84.3504 71.9492C84.8174 71.3918 85.0057 71.7458 86.0226 72.7024C83.0097 75.1881 76.8256 85.6807 71.711 79.3837C67.8469 74.6533 66.7095 70.4276 65.6851 68.6952C64.8264 67.2339 64.0431 66.9326 65.0373 66.556L65.0223 66.5258ZM23.4283 21.3088C28.3771 6.31932 25.801 5.52842 29.7706 5.75439C35.4253 6.13502 41.0552 6.82148 46.6357 7.81074C48.3003 8.09697 47.7354 10.8237 47.3889 12.4658C44.8279 25.7831 44.052 24.1335 41.0767 38.4676C40.3235 42.1284 39.4271 45.759 38.4781 49.3821C38.1014 50.8886 37.416 51.22 35.917 50.8358C29.5672 49.1862 28.2415 49.0205 27.7971 48.4933C26.2906 46.7457 26.1852 44.7798 24.528 43.9738C21.2439 42.4673 21.7863 42.6933 22.1026 42.7084C25.8086 42.9268 27.2548 44.7572 31.5407 45.1489C32.5802 45.2393 32.7384 44.5463 33.0472 43.8533C33.9586 41.5032 33.9511 41.3149 31.7742 39.9666C26.0948 36.4565 25.5675 36.2832 24.5356 36.2983C24.4603 36.2983 20.3476 36.3586 20.4229 36.2983C23.1571 33.677 22.8333 33.9783 34.5763 32.9012C35.4058 32.8491 36.2219 32.666 36.9942 32.3589C37.1744 32.315 37.3436 32.2344 37.4913 32.1222C37.6389 32.01 37.7619 31.8685 37.8524 31.7066C37.9428 31.5447 37.999 31.3659 38.0172 31.1813C38.0354 30.9968 38.0154 30.8104 37.9583 30.6339C37.3859 27.4176 36.4518 26.8677 33.582 26.8677C27.895 26.815 25.9366 27.4553 24.8444 27.2895C27.6992 25.1955 29.8309 27.1992 32.9116 26.3706C33.6197 26.1823 34.501 26.0994 34.7947 25.3838C35.2165 24.367 35.8191 22.3031 34.9002 21.6854C32.4425 20.3244 29.5954 19.8384 26.8254 20.307C25.644 20.6467 24.4906 21.0774 23.3756 21.595C23.3605 21.5122 23.3982 21.4143 23.4283 21.3088ZM20.2346 61.1251C16.7019 55.2649 17.779 57.728 12.2502 49.2616C12.1042 49.0654 12.0098 48.8357 11.9756 48.5936C11.9413 48.3514 11.9684 48.1046 12.0544 47.8756C13.1164 44.953 11.3011 43.5445 10.7513 34.8671C10.7291 34.1045 10.8597 33.3452 11.1352 32.6337C11.4107 31.9223 11.8257 31.2731 12.3557 30.7243C17.2367 25.0976 22.3512 22.981 24.5732 21.6854C27.4205 19.9906 31.0511 20.8493 34.1695 22.0319C34.4092 22.0904 34.6233 22.2252 34.7796 22.4161C35.2542 23.1693 34.4633 25.3236 33.6121 25.5947C30.2527 26.6568 26.833 24.5176 23.5714 27.4251C23.2894 27.6649 22.9322 27.7982 22.5621 27.8017C21.2752 27.9478 20.0106 28.2487 18.7959 28.6981C18.5699 28.7584 18.3364 28.8412 18.4042 29.1274C18.5473 29.8129 19.8655 28.4872 25.9366 28.0127C28.7375 27.739 31.5515 27.6233 34.3654 27.6662C34.8002 27.6938 35.2244 27.8125 35.6105 28.0146C35.9965 28.2167 36.3358 28.4976 36.6064 28.8392C36.877 29.1808 37.0727 29.5754 37.1811 29.9974C37.2894 30.4195 37.3078 30.8596 37.2352 31.2892C37.077 32.1479 34.4332 32.4116 33.2204 32.5396C27.2774 33.1498 23.0065 32.6225 21.4322 34.5357C20.0086 36.2757 18.246 36.4941 18.4193 36.9837C18.4871 37.2022 18.7055 37.2248 18.9089 37.2022C20.6865 36.9762 22.4792 37.2022 24.2644 36.9687C24.975 36.8896 25.6905 37.0658 26.2831 37.4658C34.2976 42.4447 33.2506 40.7198 32.2337 43.9437C31.955 44.8325 31.8797 44.8777 30.9381 44.6969C26.8028 43.8533 27.9252 43.0624 21.146 41.8045C20.694 41.7216 20.3174 42.0983 19.858 41.9627C19.76 41.9627 19.6998 42.0606 19.6998 42.1585C19.6998 42.3845 19.8806 42.4221 20.0237 42.505C23.4735 44.5162 24.9574 44.0717 25.6052 45.985C26.5015 48.6364 28.1361 49.0883 26.8556 49.6608C25.914 50.0751 25.5751 51.333 24.5958 50.1956C22.0348 47.273 22.0348 47.0922 21.4172 47.5818C20.6926 47.8994 19.9346 48.1344 19.1574 48.2824C18.0803 48.6213 17.8167 49.0959 19.2629 48.9452C20.1743 48.8398 20.9878 48.3878 21.5904 48.3502C21.8465 48.3502 22.0122 48.2598 22.193 48.4933C22.7881 49.2465 24.5205 51.4158 25.4847 51.2351C26.4488 51.0543 30.6896 55.0013 34.9152 57.261C42.4476 61.3285 41.6944 60.7636 41.5513 62.2022C40.6926 69.343 40.09 73.5008 38.35 79.1125C36.5347 77.2219 34.9303 77.7491 32.3843 75.4969C27.6227 71.3564 23.5251 66.5093 20.2346 61.1251ZM46.485 88.3849C43.8261 86.3963 41.7396 86.4114 40.6625 85.5828C40.3386 85.3343 40.1729 85.9293 39.849 85.5828C43.3365 83.3231 44.8128 81.7112 45.1216 81.8844C45.2648 81.9597 45.4154 82.2686 45.7016 82.5096C45.7474 82.5483 45.8047 82.5707 45.8645 82.5734C45.9244 82.5761 45.9834 82.5589 46.0325 82.5245C46.0815 82.4901 46.1178 82.4404 46.1356 82.3832C46.1534 82.326 46.1518 82.2645 46.131 82.2083C46.0255 81.9146 45.905 81.6208 45.8598 81.4551C45.6715 80.8299 45.438 80.4533 44.8429 80.9127C38.7342 85.5904 37.8905 86.8181 36.482 84.9802C32.9643 80.3779 32.7158 80.0992 31.8947 76.0694C33.6423 77.1917 35.5178 77.8998 37.1674 79.0296C37.3439 79.1262 37.5309 79.202 37.7248 79.2556C38.0788 79.3761 38.1843 79.5644 38.1692 79.7904C38.1692 80.1821 37.8001 80.7018 37.7926 81.199C37.7934 81.2424 37.8076 81.2845 37.8332 81.3195C37.8588 81.3546 37.8946 81.3809 37.9357 81.3948C37.9781 81.4061 38.023 81.4034 38.0637 81.3872C38.1045 81.3709 38.1388 81.3418 38.1617 81.3044C39.156 79.6172 41.0541 72.2655 41.7622 66.5861C42.1087 63.8443 42.3949 62.2248 42.4476 61.1854C42.4928 60.3191 42.5832 59.6789 42.2066 59.2495C41.4407 58.6545 40.6093 58.1491 39.7284 57.7431C39.2765 57.487 39.0204 57.8937 39.4648 58.195C40.2226 58.6152 40.9432 59.099 41.6191 59.6412C41.83 59.9049 41.6793 60.1986 41.6191 60.5602C40.1768 59.385 38.6079 58.3744 36.9415 57.5472C39.8339 57.2836 42.425 55.6792 43.2461 56.2064C45.6037 57.7129 48.6242 68.1528 48.8276 68.424C50.2437 69.8401 48.2024 72.0019 48.112 75.512C48.0934 75.7124 48.0934 75.9142 48.112 76.1146C48.1798 76.3104 48.5037 76.4008 48.5489 76.0694C48.9481 73.2146 50.2738 70.0435 49.7465 69.3656C48.933 68.3035 48.9255 66.9627 48.5112 65.7575C47.8408 63.8066 47.6375 63.2492 47.758 63.2342C47.8785 63.2191 48.8728 64.575 51.5242 67.0757C51.5598 67.1065 51.6052 67.1234 51.6522 67.1234C51.6993 67.1234 51.7447 67.1065 51.7803 67.0757C51.8185 67.0484 51.8455 67.0082 51.8566 66.9626C51.8677 66.917 51.862 66.8689 51.8406 66.8271C51.7656 66.7038 51.6826 66.5855 51.592 66.4731C51.4489 66.2697 50.7107 65.3131 50.0177 64.5599C47.1554 61.449 46.8089 62.0516 51.012 61.7051C52.5185 61.5771 55.5917 63.4828 56.6613 64.3038C58.0386 65.3143 59.5303 66.1587 61.1054 66.8196C61.8999 67.1608 62.7747 67.2704 63.6288 67.136C64.721 67.0004 66.0843 70.985 67.3498 73.2899C67.4251 73.4331 67.4326 73.5159 67.2895 73.6967C56.5107 87.1119 57.2262 86.7052 51.8406 92.3319C51.4338 92.7537 49.2946 92.8365 48.6995 91.7971C48.2024 91.0363 48.466 89.8688 46.485 88.3849ZM89.2013 82.8862C87.7701 88.7238 87.2052 99.8793 87.4764 101.717C87.7475 103.555 86.8286 105.355 86.0904 107.359C83.5595 114.244 82.9645 120.352 82.3242 122.567C81.0211 127.192 81.0588 132.683 80.7575 134.197C80.6219 134.89 81.2847 135.078 80.4486 135.703C79.1907 136.637 65.9488 140.411 60.4802 140.735C56.3148 140.984 55.6369 138.528 49.3699 136.969C48.9148 136.755 48.5308 136.415 48.2637 135.989C47.9966 135.563 47.8576 135.069 47.8634 134.566C48.1243 132.732 48.4992 130.915 48.9858 129.128C49.1665 128.435 48.9858 128.269 53.8668 133.828C54.3112 134.333 54.5146 134.641 54.8309 134.385C55.5842 133.813 50.2587 128.638 48.4058 126.469C48.081 126.139 47.8767 125.709 47.8258 125.248C47.7128 123.614 47.0273 122.092 46.839 120.465C45.6113 109.732 48.6317 107.698 48.6317 92.4599C49.1958 92.9558 49.9333 93.2081 50.6829 93.1615C51.4325 93.1149 52.1332 92.7733 52.6315 92.2113C56.6161 88.0309 65.3537 77.2219 67.5607 74.0206C69.602 76.9582 72.7882 84.8221 78.5128 80.7244C82.9795 77.5307 83.1452 75.5647 83.8684 76.431C89.5403 83.2252 89.4122 81.9974 89.2013 82.8862ZM91.0091 77.9224C88.9603 82.0275 89.9244 82.3364 89.0732 81.4777C87.7099 80.1068 86.0603 78.2764 84.0115 76.0091C83.7328 75.7078 83.793 75.851 86.0603 73.2297C86.226 73.0338 86.3465 72.9359 86.5122 73.1544C87.4914 74.4273 89.1034 74.9621 90.4215 75.8284C91.7397 76.6946 91.6343 76.6645 91.0091 77.9224ZM138.162 132.156C137.055 132.156 136.949 132.088 136.655 130.981C135.533 126.258 131.571 118.665 131.134 117.882C130.697 117.098 131.548 117.226 131.767 116.865C134.117 121.919 137.213 126.604 138.162 132.156ZM132.136 115.095C129.793 119.509 123.85 118.025 122.344 115.78C121.523 114.545 119.888 110.508 119.482 105.988C119.052 101.122 118.412 101.469 119.18 101.318C120.913 100.911 121.854 101.74 122.864 102.071C126.005 103.171 125.583 100.218 126.396 98.8851C127.489 97.0848 127.549 104.052 130.735 107.351C132.332 109.001 132.196 110.771 132.505 113.31C132.579 113.925 132.46 114.549 132.166 115.095H132.136ZM126.863 79.2255C128.019 79.6903 129.146 80.2235 130.238 80.8223C137.868 84.6789 133.04 95.616 132.641 98.7344C131.835 105.047 134.795 105.514 133.394 112.022C133.394 112.135 133.236 112.526 133.213 112.594C132.633 111.841 133.59 109.363 131.443 107.239C128.852 104.685 128.792 101.589 127.406 98.8097C127.022 98.0565 127.639 98.2147 128.686 97.6422C130.095 96.889 130.396 95.6612 129.439 94.3506C128.588 93.168 131.247 92.2264 128.566 91.0965C126.675 90.2981 126.863 92.475 127.496 86.4039C127.594 85.4397 129.831 82.7958 126.622 82.0652C126.29 81.9848 125.94 82.0057 125.62 82.1251C125.299 82.2446 125.021 82.4572 124.822 82.7356C123.938 83.5983 123.225 84.6206 122.721 85.7485C121.124 89.1683 118.299 84.8597 122.721 81.7564C123.095 81.4315 123.573 81.2526 124.069 81.2526C124.564 81.2526 125.043 81.4315 125.417 81.7564C125.658 80.9579 125.289 80.7018 123.572 80.4759C123.572 80.4759 123.572 80.4231 123.572 80.4081C123.986 79.7753 124.25 78.9016 124.83 78.5476C125.41 78.1935 126.268 78.9844 126.931 79.2255H126.863ZM123.888 88.5129C121.794 87.2023 124.784 84.581 125.575 83.18C125.967 82.4945 126.539 82.6151 127.037 82.713C127.85 82.8862 127.835 84.2195 127.526 84.6639C127.217 85.1083 124.762 89.0176 123.956 88.5129H123.888ZM114.209 79.4741C115.324 79.2104 116.469 79.007 117.546 79.6548C120.288 81.2969 112.966 81.9974 115.188 82.6678C118.065 83.4888 117.523 86.675 117.9 86.6901C118.148 86.6901 118.141 86.3813 118.178 86.1704C118.309 85.4229 118.195 84.6534 117.855 83.9753C117.514 83.2972 116.965 82.7465 116.288 82.4042C116.819 82.1819 117.337 81.9305 117.84 81.6509C119.06 80.8977 119.082 79.8431 117.802 79.3083C116.928 78.9468 116.905 78.4496 117.049 77.7341C117.372 75.8434 116.657 75.1128 116.883 70.3297C116.883 69.923 116.717 69.2676 117.501 69.23C118.758 69.1622 118.578 69.9305 119.203 75.1806C119.301 75.9338 119.7 79.0296 120.476 79.1652C121.252 79.3008 122.11 76.431 124.106 74.1637C124.965 73.1845 127.285 71.0603 128.091 72.0923C128.4 72.499 128.558 72.8455 128.249 73.2899C128.023 73.5837 127.549 74.1863 127.323 74.4273C122.186 79.9185 123.655 79.8733 122.156 81.2065C118.344 84.6036 119.647 88.2041 122.382 87.2324C122.397 87.3547 122.422 87.4756 122.457 87.594C123.865 90.9911 125.417 88.2794 126.69 87.2023C126.359 93.281 124.513 92.475 125.003 93.0926C125.199 93.3412 125.756 92.9043 125.907 92.7913C126.818 92.0381 126.547 90.9007 127.564 91.4204C127.669 91.4732 127.797 91.4958 127.91 91.541C129.417 92.0456 129.417 92.0456 128.754 93.4165C128.287 94.4033 130.871 96.1583 127.91 97.1827C123.88 98.6365 126.291 102.342 123.157 101.363C121.651 100.881 121.146 100.354 119.73 100.821C119.441 100.949 119.127 101.014 118.81 101.009C118.493 101.005 118.181 100.933 117.895 100.797C117.609 100.661 117.356 100.465 117.152 100.222C116.949 99.9791 116.801 99.6953 116.717 99.3897C116.622 99.0097 116.406 98.6709 116.101 98.4238C115.797 98.1767 115.421 98.0346 115.03 98.0188C114.156 97.936 113.343 97.5443 113.614 96.7007C113.764 96.3527 113.8 95.9659 113.716 95.5962C113.632 95.2264 113.433 94.8931 113.147 94.6443C112.8 94.3355 112.883 93.8911 113.305 93.6802C116.853 91.5636 117.448 94.3581 120.265 94.1848C119.323 93.0474 116.167 93.1755 114.623 89.2285C112.62 84.0613 110.45 80.4231 114.277 79.5117L114.209 79.4741ZM106.827 87.5563C111.173 88.7163 112.65 87.1496 113.154 87.8426C113.403 88.174 113.019 88.2342 112.913 88.3999C112.361 89.3189 111.745 90.1974 111.068 91.0288C108.123 94.1924 107.46 91.8724 106.548 87.7823C106.571 87.594 106.646 87.5262 106.895 87.594L106.827 87.5563ZM109.524 97.0697C109.524 97.5518 109.29 97.6949 108.936 97.7025C108.582 97.71 108.055 98.0113 107.814 97.3786C107.573 96.7459 107.814 94.6292 107.987 93.537C108.055 93.183 108.16 93.1906 108.462 93.2508C110.375 93.65 109.411 93.4843 109.592 97.1074L109.524 97.0697ZM106.081 75.4969C105.615 79.1984 105.57 82.9407 105.946 86.6524C101.682 85.4473 102.858 81.4777 104.108 77.1164C104.53 75.9263 105.004 76.0317 106.149 75.5346L106.081 75.4969ZM101.148 76.7398C105.117 76.8302 103.407 74.5554 102.436 80.9956C101.509 87.0818 105.795 86.0197 106.142 87.9706C106.33 89.4336 106.776 90.8516 107.46 92.1586C107.761 92.6708 107.678 92.5578 107.573 92.9797C107.219 94.4861 106.737 95.9926 107.113 97.4991C107.437 98.7796 108.349 98.5084 109.742 98.2975C110.699 98.1544 110.036 97.243 110.352 94.2451C110.405 93.7404 110.729 93.2207 110.277 92.7386C110.134 92.5729 110.405 92.4599 110.548 92.3469C115.218 87.6768 112.055 87.5262 114.661 91.0212C115.017 91.4913 115.426 91.9185 115.881 92.2942C114.149 92.3695 111.362 93.4542 112.966 95.1414C113.998 96.2035 111.557 97.9962 114.473 98.6591C116.732 99.1713 115.806 100.836 117.305 101.077C119.165 101.386 117.84 106.395 120.265 112.971C121.832 117.211 123.278 117.806 126.133 118.612C123.451 118.876 121.229 119.908 118.939 120.714C117.892 121.083 118.834 120.315 118.322 119.916C117.282 119.095 116.536 117.957 115.452 117.181C114.616 116.586 114.616 116.594 114.073 117.46C107.294 109.393 106.3 102.862 103.935 92.0155C100.786 77.1239 100.259 76.7247 101.215 76.7775L101.148 76.7398ZM120.732 126.529C120.926 127.082 120.944 127.682 120.785 128.246C120.581 128.683 120.303 129.082 119.76 129.045C118.63 128.969 119.851 125.798 117.817 123.516C117.32 122.763 117.011 122.718 118.028 121.189C119.421 122.697 120.379 124.556 120.8 126.567L120.732 126.529ZM120.566 123.576C124.709 127.162 124.129 125.957 123.843 128.42C121.726 127.674 121.146 125.851 120.634 123.614L120.566 123.576ZM116.454 123.365C114.247 121.678 114.284 121.671 113.908 121.535C113.252 121.302 113.787 120.676 113.862 120.247C114.089 119.456 114.373 118.683 114.714 117.935C114.842 117.558 114.977 117.611 115.203 117.814C116.823 119.268 117.629 120.111 117.659 120.3C117.689 120.488 116.996 121.776 116.521 123.426L116.454 123.365ZM98.5264 76.3481C100.131 76.672 100.251 76.672 100.266 77.1013C100.394 80.6265 101.622 83.8805 102.526 87.2776C103.43 90.6747 103.995 94.1095 104.726 97.5292C106.639 106.478 106.654 108.549 112.642 116.526C113.297 117.4 114.525 118.138 113.222 119.599C108.914 115.502 105.396 111.314 102.677 96.5048C102.165 93.763 101.298 91.1116 100.681 88.3999C97.6979 75.512 97.969 76.2351 98.5264 76.3481ZM94.3459 131.154C94.5538 130.834 94.8607 130.591 95.2198 130.461C95.5789 130.332 95.9704 130.324 96.3345 130.438C97.5477 131.203 98.8053 131.895 100.101 132.51C98.1423 134.769 96.0859 136.871 93.0504 137.865C93.2216 135.586 93.6563 133.333 94.3459 131.154ZM92.9449 140.125C92.9449 138.973 92.8169 138.099 93.9844 138.008C96.2595 136.983 98.2598 135.435 99.822 133.489C100.432 132.736 100.929 132.819 101.667 133.165C99.7391 134.867 97.3589 138.023 92.96 140.125H92.9449ZM106.096 133.971C104.146 133.722 104.718 133.858 96.8994 130.129C100.334 129.12 103.626 128.45 106.963 127.689C106.021 133.218 106.925 134.084 106.096 133.971ZM94.0446 130.205C93.6228 130.295 93.1859 130.348 92.7566 130.453C92.154 130.604 91.8904 130.303 91.7924 129.775C91.7224 129.49 91.697 129.195 91.7171 128.902C91.8678 127.764 89.3896 128.209 90.9112 125.889C91.5213 124.97 93.1106 124.201 91.7924 123.629C89.8416 122.831 90.0826 122.816 90.5722 120.834C91.815 115.803 93.2311 114.055 93.5852 113.468C93.781 114.256 93.902 115.06 93.9467 115.871C94.0597 116.707 94.6246 117.686 95.1218 117.716C95.9503 117.716 93.5701 116.541 94.5267 109.348C95.28 103.533 93.4119 103.043 91.8 99.9471C89.6909 95.8721 89.9771 93.3638 92.8922 90.3508C95.8072 87.3379 97.5924 88.0911 97.969 84.8522C98.1149 83.9656 98.4212 83.113 98.8729 82.3364C102.76 98.0791 101.57 92.7838 102.986 100.557C105.245 112.699 108.522 116.315 112.491 119.9C113.192 120.533 112.846 121.173 112.936 121.806C112.936 121.987 112.763 122.017 112.642 121.882C112.445 121.419 112.167 120.995 111.821 120.631C111.211 120.179 109.75 121.038 109.674 121.091C108.349 122.092 108.703 119.787 105.524 121.143C105.102 121.324 105.306 121.663 105.426 121.957C106.076 123.606 106.813 125.221 107.633 126.793C96.9898 129.052 99.0838 129.082 94.007 130.205H94.0446ZM110.375 127.81C109.72 128.457 109.456 128.42 108.936 127.659C107.716 125.874 106.978 123.84 105.983 121.949C105.825 121.663 105.983 121.625 106.194 121.558C106.494 121.417 106.824 121.355 107.154 121.379C107.483 121.403 107.802 121.511 108.078 121.693C109.825 122.951 109.961 123.2 110.413 123.057C110.156 121.987 108.507 122.085 111.045 121.317C111.881 121.068 112.74 122.718 112.672 123.682C112.65 124.795 112.86 125.901 113.29 126.928C111.979 126.439 111.143 127.011 110.337 127.794L110.375 127.81ZM112.959 122.838C112.876 122.424 113.335 122.16 113.749 122.371C115.934 123.448 116.664 124.842 117.26 123.471C117.851 124.259 118.258 125.171 118.45 126.137C118.653 127.056 118.058 126.235 114.721 125.941C113.463 125.836 113.636 126.311 112.921 122.823L112.959 122.838ZM123.587 137.474C123.948 138.069 123.549 138.144 121.726 139.409C121.485 138.822 121.259 138.264 121.041 137.7C117.93 129.647 113.456 129.173 114.156 127.358C114.239 127.139 114.103 126.838 114.058 126.461C114.219 126.5 114.374 126.56 114.518 126.642C121.463 132.879 121.5 134.076 123.549 137.459L123.587 137.474ZM121.545 132.465C121.342 132.54 121.176 132.593 120.996 132.352C116.032 125.625 112.476 126.363 118.224 127.177C118.811 127.26 118.555 128.186 118.751 128.789C119.301 130.506 121.342 129.956 121.658 127.538C122.562 128.179 123.323 128.977 124.227 129.587C124.596 129.828 124.498 130.529 124.543 131.026C124.573 131.342 124.694 131.252 121.545 132.465ZM119.075 121.309C121.907 120.405 127.436 118.063 129.959 119.049C129.959 118.643 129.583 118.59 129.326 118.364L130.532 117.784C130.532 119.908 131.458 120.126 130.607 121.859C130.152 122.697 129.766 123.571 129.454 124.473C128.957 126.198 130.727 126.597 130.208 125.648C129.65 124.578 131.631 122.213 131.639 120.601C133.304 124.156 135.074 127.659 136.068 131.628C132.829 130.122 132.716 130.258 132.874 129.625C133.191 128.374 132.407 127.169 131.134 124.427C131.074 124.299 130.961 123.991 130.712 124.119C130.464 124.247 130.554 124.427 130.78 125.053C131.006 125.678 132.58 129.173 132.181 129.572C131.91 129.828 131.526 129.369 131.187 129.233C129.323 128.487 127.539 127.556 125.862 126.454C125.627 126.313 125.373 126.206 125.108 126.137C124.664 126.024 124.935 126.371 124.89 126.514C122.969 124.849 120.965 123.17 119.075 121.309ZM128.114 139.342C126.426 136.72 125.266 131.056 124.965 127.945C124.965 127.584 124.724 127.019 125.282 127.011C125.511 127.029 125.726 127.128 125.89 127.289C126.054 127.45 126.156 127.664 126.178 127.892C126.532 130.378 126.291 131.493 128.679 137.217C129.063 138.136 129.1 138.807 128.114 139.342ZM131.473 141.421C130.687 140.923 129.869 140.478 129.025 140.087C128.754 139.937 128.332 139.891 128.664 139.507C128.995 139.123 129.191 138.558 129.809 138.995C130.23 139.206 130.675 140.163 130.848 140.502C130.848 140.577 130.916 140.675 131.164 140.645C131.093 140.133 130.901 139.647 130.604 139.225C130.306 138.803 129.912 138.458 129.454 138.219C129.402 138.136 127.534 132.721 127.27 131.5C126.976 130.137 126.788 128.578 126.69 128.081C129.552 130.559 129.703 137.225 132.136 141.85C132.287 142.151 132.211 141.985 131.473 141.421ZM138.35 143.967C136.008 143.5 135.232 143.552 134.102 142.694C131.488 140.697 129.906 131.915 128.121 128.939C129.628 129.376 138.667 133.278 138.787 133.353C139.135 133.573 139.429 133.867 139.648 134.215C139.867 134.563 140.005 134.956 140.053 135.365C140.633 139.033 141.559 139.168 141.559 143.756C141.597 144.878 139.473 144.185 138.35 143.967Z" fill="#471280"/>
<path d="M101.275 60.8609C101.423 61.6327 101.642 62.3892 101.93 63.1206C103.798 67.5195 108.461 67.64 109.335 66.4499C110.035 65.5159 112.295 64.0546 112.875 61.1772C113.402 58.5635 111.301 58.5785 108.634 58.5635C106.457 58.5635 103.67 58.7066 101.787 59.7988C101.581 59.8754 101.413 60.0288 101.317 60.2268C101.222 60.4247 101.207 60.652 101.275 60.8609ZM102.307 60.2733C104.378 59.3544 109.086 59.0757 111.346 59.392C111.941 59.4749 112.159 59.844 112.174 60.4315C111.888 62.8193 109.915 64.6195 108.242 66.1185C107.662 66.6382 107.015 66.3595 106.435 66.2315C105.476 66.0069 104.608 65.4943 103.949 64.7627C102.987 63.6876 102.299 62.3953 101.945 60.9964C101.787 60.6048 101.96 60.4315 102.307 60.2733Z" fill="#471280"/>
<path d="M130.501 49.2828C130.388 49.6368 130.93 49.2828 131.661 50.1415C134.794 53.7947 133.001 60.137 130.305 63.5341C131.894 63.2027 132.76 60.4157 133.032 59.9863C133.571 60.9207 134.032 61.8983 134.41 62.9089C135.367 65.726 134.229 68.6561 130.019 70.1476C134.086 71.2172 137.935 64.8071 133.664 60.024C132.73 58.977 134.199 57.9752 133.95 54.5404C133.612 50.1942 130.719 48.5521 130.501 49.2828Z" fill="#471280"/>
<path d="M95.7014 56.733C95.8219 56.5899 96.2588 56.3639 95.8068 56.0852C95.6034 55.9798 95.4528 56.2057 95.2343 56.4468C92.8541 59.0831 91.3627 61.9831 91.4681 65.4856C91.4493 66.3491 91.718 67.1944 92.2321 67.8884C92.7462 68.5825 93.4764 69.086 94.3079 69.3196C94.8577 69.4929 95.0084 69.6887 94.8427 70.2461C94.7573 70.4452 94.7188 70.6612 94.73 70.8775C94.7413 71.0938 94.802 71.3046 94.9075 71.4938C95.013 71.6829 95.1604 71.8454 95.3385 71.9686C95.5167 72.0918 95.7207 72.1725 95.9349 72.2046C96.6268 72.3632 97.3466 72.3544 98.0344 72.1789C98.7222 72.0033 99.3581 71.6661 99.8894 71.1952C99.5504 71.022 99.3772 71.1952 99.1813 71.2479C97.3886 71.8279 95.0536 72.0539 95.4528 70.216C95.7541 68.8376 95.5432 69.1916 94.2702 68.6342C90.165 66.849 92.7261 60.1979 95.7014 56.733Z" fill="#471280"/>
<path d="M121.763 141.404C120.759 142.983 119.846 144.618 119.028 146.3C118.546 147.332 116.241 146.082 109.492 144.636C109.349 144.636 109.455 144.048 109.116 144.462C108.31 145.472 110.622 145.283 114.968 146.767C115.729 147.027 116.507 147.236 117.296 147.393C118.396 147.596 119.322 147.709 119.887 146.436C121.627 142.527 123.322 141.08 122.96 140.794C122.913 140.754 122.853 140.732 122.791 140.732C122.729 140.732 122.669 140.754 122.621 140.794C122.32 140.975 122.033 141.179 121.763 141.404Z" fill="#471280"/>
<path d="M117.981 52.0335C118.049 52.0862 118.177 52.2218 118.207 52.1314C118.335 51.7397 118.863 51.6795 118.961 51.2803C119.066 50.6701 116.219 48.7268 113.085 49.5478C111.925 49.8491 111.865 49.9244 111.752 51.0543C111.556 52.8847 114.584 49.4424 117.981 52.0335Z" fill="#471280"/>
<path d="M98.3679 51.2037C99.6269 49.8927 101.129 48.8387 102.789 48.1003L102.036 48.0401C105.139 46.3796 108.015 44.3265 110.593 41.9313C110.721 41.8033 111.083 41.6978 110.849 41.4492C110.616 41.2007 110.608 41.4492 109.215 42.5038C102.669 47.558 98.4056 48.9138 97.7578 49.6294C98.5111 49.8403 99.0308 49.3809 99.6635 49.2679C98.27 50.8045 98.27 50.8045 98.3679 51.2037Z" fill="#471280"/>
<path d="M106.397 53.7738C106.57 53.706 106.917 53.8567 106.842 53.4876C106.646 52.5837 103.746 54.1429 102.382 56.2595C101.765 57.2086 102.895 58.1426 106.525 56.3424C106.571 56.3211 106.607 56.2844 106.627 56.2389C106.648 56.1933 106.652 56.1419 106.638 56.0938C106.625 56.0455 106.595 56.0034 106.553 55.9745C106.512 55.9457 106.462 55.932 106.412 55.9356C105.403 56.026 104.439 56.5081 103.309 56.606C103.275 56.6079 103.241 56.5996 103.211 56.5822C103.182 56.5648 103.158 56.539 103.143 56.5081C103.127 56.4795 103.118 56.447 103.118 56.4139C103.118 56.3809 103.127 56.3484 103.143 56.3198C103.982 55.1968 105.105 54.3179 106.397 53.7738Z" fill="#471280"/>
<path d="M123.497 45.0286C119.158 43.1757 119.527 42.1287 119.143 42.3998C118.013 43.1983 125.817 47.3486 127.888 46.859C127.798 46.4372 126.834 46.4523 123.497 45.0286Z" fill="#471280"/>
<path d="M101.29 53.623C101.704 52.7956 101.916 51.8817 101.908 50.9565C101.953 50.5799 101.968 50.1656 101.516 50.0451C101.064 49.9246 100.876 50.3087 100.763 50.6552C99.3168 54.2482 100.665 54.6097 101.29 53.623Z" fill="#471280"/>
<path d="M128.994 47.348C128.934 46.7002 129.258 46.3688 129.943 46.3086C130.877 46.2257 131.661 47.4761 128.783 48.0787C128.618 48.0787 128.339 48.0034 128.362 48.3197C128.414 49.1257 132.045 48.3197 131.375 46.5345C130.704 44.7493 127.322 46.5948 128.994 47.348Z" fill="#471280"/>
<path d="M118.11 47.0847C116.005 45.9712 113.547 45.7278 111.264 46.4067C111.09 46.4519 110.812 46.5047 110.894 46.7608C111.045 47.2202 115.135 45.4275 118.766 48.0413C118.758 47.8362 118.693 47.6374 118.577 47.4681C118.461 47.2987 118.299 47.1658 118.11 47.0847Z" fill="#471280"/>
<path d="M103.332 44.2148C103.158 43.9437 102.88 44.2148 102.684 44.2826C101.584 44.825 98.669 46.3992 98.3149 47.5969C101.26 45.4727 103.655 44.7195 103.332 44.2148Z" fill="#471280"/>
<path d="M108.205 141.773C105.562 141.556 102.95 141.051 100.417 140.267C101.441 141.253 106.947 142.195 108.205 141.773Z" fill="#471280"/>
<path d="M108.303 140.139C106.699 140.011 105.185 139.469 103.596 139.333C105.07 140.001 106.691 140.278 108.303 140.139Z" fill="#471280"/>
<path d="M114.533 120.51C114.521 120.894 114.63 121.273 114.843 121.592C115.056 121.912 115.364 122.158 115.723 122.295C116.95 122.694 117.229 120.525 116.687 119.757C115.964 118.657 114.359 118.687 114.533 120.51ZM116.212 119.757C116.965 120.646 116.446 121.723 115.986 121.685C115.527 121.647 115.519 121.308 115.354 121.037C115.188 120.766 115.354 120.668 115.542 120.578C115.836 120.366 116.061 120.073 116.19 119.734L116.212 119.757Z" fill="#471280"/>
<path d="M53.9642 129.669C53.7834 129.548 53.5424 129.375 53.3842 129.616C53.0076 130.174 58.9582 133.947 63.5906 134.776C63.7639 134.776 63.9748 134.851 64.035 134.648C64.2158 134.03 59.4101 133.277 53.9642 129.669Z" fill="#471280"/>
<path d="M15.609 35.0697C14.4339 32.3279 16.656 31.9513 16.2116 31.537C15.496 30.8667 13.3041 33.7892 15.609 35.0697Z" fill="#471280"/>
<path d="M82.9639 55.6344C80.418 54.3765 77.1489 53.4124 70.8518 54.5347C70.6334 54.5799 70.317 54.5347 70.3321 54.8285C70.3923 55.883 70.2793 56.9451 70.8819 57.9243C72.5617 60.6661 75.1603 61.6905 78.1582 61.6001C80.772 61.5398 82.4216 59.7547 83.6644 57.6381C84.3348 56.4856 84.1616 56.2144 82.9639 55.6344ZM82.9639 57.2991C82.4391 58.2222 81.7189 59.0193 80.8536 59.6348C79.9884 60.2502 78.999 60.6691 77.9549 60.8619C75.1603 61.3817 71.4619 58.8432 70.9798 56.0939C70.8292 55.2352 70.9347 55.0394 71.7707 55.0168C75.8533 54.9038 78.452 54.2635 82.6777 56.3199C83.2049 56.5835 83.2351 56.817 82.9488 57.2916L82.9639 57.2991Z" fill="#471280"/>
<path d="M79.7849 37.1493C80.7867 42.0754 88.643 47.0619 90.3754 45.2014C89.1853 45.0674 88.0278 44.7258 86.9557 44.1921C79.5288 40.0191 80.6661 36.0721 79.8074 36.3433C79.5664 36.4186 79.7321 36.9007 79.7849 37.1493Z" fill="#471280"/>
<path d="M70.9124 42.2702C69.7826 42.1422 69.6319 44.7333 69.5641 45.3811C69.4963 46.0289 69.647 46.8424 70.3174 46.8876C71.628 47.0834 72.3662 42.4359 70.9124 42.2702Z" fill="#471280"/>
<path d="M76.4332 47.8673C77.0508 47.9351 76.742 47.0312 75.9436 47.2271C72.9833 47.9426 71.2659 50.7372 73.5859 50.9933C74.5651 51.1062 74.6404 50.5639 75.5067 51.4C76.7345 52.5826 78.3389 51.4 78.0451 50.9029C77.917 50.6844 77.7438 50.8577 77.6007 50.9029C75.5895 51.852 76.1997 49.9463 74.3843 50.2777C73.6311 50.2777 72.9683 50.3907 73.2545 49.6826C73.6107 49.1576 74.0823 48.721 74.6333 48.4063C75.1843 48.0917 75.7999 47.9073 76.4332 47.8673Z" fill="#471280"/>
<path d="M85.8119 46.5198C85.8697 46.3131 85.85 46.0925 85.7566 45.8992C85.6633 45.706 85.5026 45.5535 85.3048 45.4703C85.107 45.3871 84.8856 45.3789 84.6822 45.4474C84.4788 45.5158 84.3073 45.6561 84.2 45.8419C82.1738 49.1712 84.9984 50.0676 85.8119 46.5198Z" fill="#471280"/>
<path d="M71.3188 38.603C72.8253 39.8157 75.7177 39.7253 77.6837 39.6876C77.8275 39.6924 77.9705 39.6635 78.1012 39.6034C78.232 39.5432 78.3469 39.4534 78.4369 39.3412C77.9172 39.2357 78.4972 39.3412 76.7647 39.2206C71.8235 38.9947 71.4393 37.7142 71.2058 38.2264C71.1764 38.2923 71.1717 38.3665 71.1924 38.4356C71.2131 38.5048 71.258 38.5641 71.3188 38.603Z" fill="#471280"/>
<path d="M92.2739 44.9818C92.272 44.8247 92.2267 44.6711 92.143 44.5382C92.0592 44.4052 91.9403 44.2981 91.7994 44.2286C87.8901 41.8634 87.8449 41.8784 87.6867 42.0818C87.1895 42.7823 91.4529 44.6052 92.2739 44.9818Z" fill="#471280"/>
<path d="M70.8666 41.1416C70.3017 40.3884 66.3471 40.2227 66.1739 39.2284C66.076 38.7689 65.5788 38.9572 65.6768 39.4167C65.9479 40.6746 69.6614 40.9835 70.8666 41.1416Z" fill="#471280"/>
<path d="M79.0019 50.8808C79.4161 50.3912 79.499 49.4346 79.0019 49.4346C78.6704 49.4346 78.7759 49.7057 78.791 49.8639C78.8362 50.1878 78.693 50.5418 79.0019 50.8808Z" fill="#471280"/>
<path d="M49.3547 85.6575C49.3296 85.6883 49.3159 85.7269 49.3159 85.7667C49.3159 85.8065 49.3296 85.845 49.3547 85.8759C49.3726 85.9122 49.4032 85.9406 49.4407 85.9559C49.4781 85.9711 49.5199 85.9721 49.5581 85.9588C51.3884 85.3562 55.4785 79.5788 57.4972 71.376C57.5303 71.2547 57.5554 71.1315 57.5725 71.0069C57.5818 70.9453 57.5676 70.8825 57.5327 70.8309C57.4978 70.7793 57.4448 70.7426 57.3842 70.7282C57.3254 70.7147 57.2636 70.7223 57.2098 70.7499C57.1561 70.7775 57.1138 70.8231 57.0905 70.8789C56.0962 73.3721 54.0775 81.7707 49.3547 85.6575Z" fill="#471280"/>
<path d="M29.0407 10.4384C30.7581 10.7623 32.4755 11.0636 34.1928 11.3573C35.6315 11.6134 36.4526 10.8978 36.4526 9.45162C36.4526 7.59111 36.0383 7.81709 29.8015 6.62696C27.8054 6.21268 26.4269 9.91863 29.0407 10.4384ZM30.969 7.23709C35.8726 8.32176 36.1513 8.08072 35.9102 9.57214C35.624 11.3498 34.7276 10.8451 30.0651 10.1371C31.5866 9.43655 31.8277 8.57033 30.969 7.20696V7.23709ZM30.0425 7.67397C30.7505 7.67397 30.9238 8.07319 31.0066 8.50253C31.0059 8.76077 30.9091 9.00948 30.735 9.20024C30.561 9.391 30.3222 9.51015 30.0651 9.53447C29.8144 9.53747 29.5727 9.44075 29.3933 9.26559C29.2139 9.09042 29.1115 8.85117 29.1085 8.60046C29.1055 8.34974 29.2022 8.10811 29.3774 7.92871C29.5525 7.74931 29.7918 7.64684 30.0425 7.64384V7.67397ZM30.6225 7.13917C30.2469 7.14222 29.8821 7.26518 29.5813 7.4901C29.2805 7.71503 29.0594 8.03016 28.9503 8.38955C28.8868 8.67588 28.9119 8.97474 29.0222 9.24649C29.1325 9.51823 29.3229 9.75002 29.5679 9.91109C29.2495 9.97369 28.9191 9.91591 28.6408 9.74893C28.3625 9.58195 28.1561 9.31765 28.0615 9.00721C28.0357 8.61832 28.1257 8.23053 28.3201 7.89272C28.5145 7.55492 28.8045 7.28223 29.1537 7.10904C29.6361 6.99032 30.1401 6.99032 30.6225 7.10904V7.13917Z" fill="#471280"/>
<path d="M105.049 122.228C100.891 120.216 96.8161 119.169 92.7712 116.955C92.7347 116.92 92.6861 116.9 92.6356 116.9C92.585 116.9 92.5365 116.92 92.5 116.955C92.6582 118.13 102.865 121.678 104.763 122.664C105.17 122.913 105.508 122.446 105.049 122.228Z" fill="#471280"/>
<path d="M94.9868 122.672C94.806 122.627 94.4746 122.348 94.3692 122.672C94.2637 122.996 94.565 122.943 100.847 124.879C103.86 125.798 103.965 126.054 104.666 125.685C101.536 124.393 98.297 123.384 94.9868 122.672Z" fill="#471280"/>
<path d="M103.384 109.475C100.288 107.614 99.8584 106.944 97.0864 104.202C97.689 105.935 101.696 109.264 103.384 109.475Z" fill="#471280"/>
<path d="M119.09 95.4791C118.706 95.1401 118.397 93.724 117.9 94.0781C117.538 94.3342 118.126 96.9856 120.468 95.7728C122.811 94.5601 123.24 96.9178 124.174 95.464C125.379 93.5809 127.639 95.5092 126.946 92.6318C126.343 92.8503 126.712 93.6336 125.922 93.6713C123.662 93.7918 123.737 95.464 123.202 95.1778C121.108 94.2136 119.881 96.1796 119.09 95.4791Z" fill="#471280"/>
<path d="M107.806 122.988C108.175 124.201 110.292 125.888 111.075 125.707C110.917 125.557 107.979 123.124 107.806 122.988Z" fill="#471280"/>
<path d="M32.9339 10.0021C33.1898 10.0029 33.4367 9.90726 33.6251 9.73413C33.8136 9.561 33.9299 9.32316 33.9508 9.06808C33.9354 8.80427 33.8202 8.55619 33.6285 8.37429C33.4368 8.1924 33.1831 8.09034 32.9188 8.08887C31.2316 8.0964 31.563 10.0172 32.9339 10.0021ZM33.2276 9.06808C33.2335 9.11068 33.2296 9.15404 33.2164 9.19495C33.2032 9.23586 33.1809 9.27326 33.1512 9.30438C33.1215 9.3355 33.0852 9.35953 33.045 9.37469C33.0048 9.38986 32.9616 9.39576 32.9188 9.39197C31.5856 9.37691 33.1071 7.87796 33.2276 9.06808Z" fill="#471280"/>
</svg>
